<?xml version="1.0" encoding="utf-8"?>
<!-- Generator: Adobe Illustrator 27.3.1, SVG Export Plug-In . SVG Version: 6.00 Build 0)  -->
<svg version="1.1" id="Layer_1" xmlns="http://www.w3.org/2000/svg" xmlns:xlink="http://www.w3.org/1999/xlink" x="0px" y="0px"
	 viewBox="0 0 1024 1024" style="enable-background:new 0 0 1024 1024;" xml:space="preserve">
<style type="text/css">
	.st0{fill:url(#SVGID_1_);}
	.st1{fill:#0A0C0E;}
	.st2{fill-rule:evenodd;clip-rule:evenodd;fill:#F4B726;}
	.st3{fill:#FABB20;}
	.st4{fill:#000000;}
	
		.st5{fill:none;stroke:#0A0C0E;stroke-width:4;stroke-linecap:round;stroke-linejoin:round;stroke-miterlimit:10;stroke-dasharray:12,12,12,12,12,12;}
	.st6{fill-rule:evenodd;clip-rule:evenodd;}
	.st7{fill-rule:evenodd;clip-rule:evenodd;fill:#000000;}
	.st8{fill-rule:evenodd;clip-rule:evenodd;fill:#FABB20;}
	.st9{fill-rule:evenodd;clip-rule:evenodd;fill:#D69A12;}
	.st10{fill:none;}
	.st11{opacity:0.6;}
	.st12{opacity:0.6;fill:none;stroke:#000000;stroke-width:13;stroke-miterlimit:10;}
	.st13{fill:#010000;}
	.st14{fill:#F3B621;}
	.st15{fill:url(#SVGID_00000159432944079203410620000005815182463379576710_);}
	.st16{fill-rule:evenodd;clip-rule:evenodd;fill:url(#SVGID_00000164489724478971438550000002867060799325840313_);}
	.st17{fill:url(#SVGID_00000114787551862698958630000014318953819335312775_);}
	.st18{fill:url(#SVGID_00000115511534557227979550000013124398382604373180_);}
	.st19{fill-rule:evenodd;clip-rule:evenodd;fill:url(#SVGID_00000169545446235195907590000014526351837253328303_);}
	.st20{fill-rule:evenodd;clip-rule:evenodd;fill:#1B1464;}
	.st21{fill:url(#SVGID_00000173125011103489048590000012664252038506091942_);}
	.st22{fill:url(#SVGID_00000023260994448806047750000003679127026697782191_);}
	.st23{fill:url(#SVGID_00000030484968353528903340000000054866571914882963_);}
	.st24{fill:#0A0A0C;}
	.st25{fill-rule:evenodd;clip-rule:evenodd;fill:#0A0A0C;}
	.st26{fill:#F6B921;}
	.st27{fill:#606060;}
</style>
<g>
	<g>
		<path class="st14" d="M671.92,281.73c-57.07,0.03-114.14-0.14-171.21,0.24c-9.65,0.07-19.48,1.57-28.86,3.88
			c-28.67,6.24-42.22,43.84-12.77,59.54c11.04,5.82,23.15,6.96,35.28,7.71c24.77,1.54,49.49,3.28,73.62,9.67
			c25.65,6.79,49.71,18.4,68.87,37.08c-13.47,17.37-23.2,29.93-23.93,52.79c-0.14,3.7-1.08,6.35-4.49,7.77
			c-20.79-21.24-48.25-33.64-77.04-39.12c-22.47-4.47-45.21-7.62-67.86-11.17c-19.42-3.04-38.29-7.44-54.89-18.76
			c-20.76-14.16-32.19-33.77-34.2-58.7c-3.6-44.61,21.71-82.3,64.57-100.09c16.02-6.65,32.83-10.17,50.05-10.62
			c23.07-0.61,46.19-0.81,69.26-0.12c46.41,0.86,84.97,23.64,114.2,58.87C672.31,281.06,672.11,281.4,671.92,281.73z"/>
	</g>
	<g>
		<path class="st26" d="M442.69,455.32c-53.64-7.56-108.01-6.54-161.91-2.47c-3.95,0.31-7.91,0.76-11.85,0.61
			c-4.91-0.18-7.01-3.22-5.07-7.69c4.43-10.28,9.02-20.51,14.01-30.52c2.98-5.97,7.95-9.24,15.02-10.08
			c24.3-2.88,48.68-3.99,73.09-2.9c16.63,0.74,33.56,0.71,48.54,8.39c-12.42-12.35-28.62-15.29-45.5-14.83
			c0.72-2.1,1.73-3.53,1.54-4.77c-0.59-3.62-1.44-7.24-2.58-10.73c-1.23-3.75-4.1-5.77-8.11-5.78c-16.49-0.07-32.98-0.12-49.48-0.06
			c-4.14,0.01-7,2.13-8.08,6.25c-0.97,3.7-2.3,7.39-2.6,11.15c-0.31,3.92-2.07,5.17-5.64,5.3c-7.39,0.27-13.61,3.19-18.17,9.04
			c-2.51,3.2-4.85,6.64-6.68,10.26c-4.8,9.54-9.21,19.26-13.98,28.82c-0.58,1.15-2.38,1.7-3.61,2.53c-0.78-1.25-2-2.41-2.26-3.76
			c-0.43-2.17,0.16-4.58-0.44-6.67c-0.41-1.44-2.19-3.66-3.21-3.58c-6.39,0.5-12.82,1.16-19.05,2.59c-3.41,0.79-4.38,4.32-4.18,7.74
			c0.19,3.41,2.62,4.74,5.5,5.3c3.62,0.71,7.29,1.11,10.93,1.73c3.94,0.68,7.87,1.44,13.09,2.41c-4.09,5.61-7.26,10.24-10.71,14.65
			c-5.87,7.48-8.47,15.84-8.35,25.36c0.34,24.41,0.33,48.82,0.59,73.23c0.04,3.01-0.75,4.09-3.92,4.32
			c-12.67,0.92-25.31,2.16-37.96,3.28c1.03,0.4,2.06,0.52,3.1,0.56c18.98,0.6,37.97,1.21,56.95,1.77c1.97,0.06,4.13,0.27,5.87-0.42
			c9.75-3.88,19.4-8.02,29.66-12.32c-9.92-1.25-19.09-2.67-28.89-4.1c-5.56-0.84-9.31-3.92-10.14-9.56
			c-0.79-5.32-1.2-10.72-1.39-16.1c-0.14-3.95,1.15-4.86,5.15-4.35c6.66,0.86,13.33,1.75,19.97,2.74c12.89,1.92,25.92,3,38.23,7.98
			c4.07,1.65,8.65,2.27,13.06,2.78c5.36,0.62,10.79,0.75,16.19,0.85c2.32,0.04,4.72-0.33,6.97-0.9c6.26-1.59,12.47-3.37,18.7-5.1
			c0.74-0.21,1.44-0.57,2.96-1.19c-16.05,0.18-30.06,0.07-45.58-1.76c-10.23-1.3-15.12-9.06-19.66-17.26
			c-2.92-5.29-1.61-9.81,1.46-14.31c-3.06-2.12-5.31-1.66-7.27,1.1c-3.91,5.02-7.79,10.17-14.96,9.05
			c-6.4-0.85-12.84-1.4-19.25-2.21c-14.53-1.83-20.3-7.03-19.5-25.74c0.77-7.07,2.37-11.11,10.16-8.85
			c16.22,4.14,31.44,10.67,45.61,19.62c1.77,1.12,3.71,2,5.66,2.76c0.86,0.33,2.27,0.49,2.89,0.02c5.38-4.16,11.76-4.43,18.07-4.79
			c29.27-1.68,58.54-2.02,87.81,0.1c1.79,0.13,3.78-0.01,5.42-0.66c14.36-5.63,28.67-11.38,42.96-17.17
			c2.48-1.01,4.82-2.39,7.58-3.77C462.11,464.12,454.04,456.85,442.69,455.32z M358.41,389.75c-0.17,0.75-1.21,1.79-1.89,1.82
			c-0.38,0.01-0.96-0.36-1.39-0.81v3.47h-2.97v-3.26c-2.03,0.69-2.75,0.77-4.19-0.46l2.54,3.72h-3.49L345,391.2
			c-0.24-0.38-0.45-0.71-0.62-0.99c-0.08-0.14-0.16-0.28-0.24-0.41c-0.05-0.08-0.09-0.16-0.14-0.24c-0.48,0.54-0.97,1.11-1.57,1.5
			c-0.03,0.05-0.06,0.09-0.09,0.14l-2.07,3.03h-3.41l2.1-2.99c-0.24-0.09-0.49-0.22-0.76-0.36c1.79-1.47,3.02-2.95,3.59-4.43
			l-4.47-6.66h2.24c-0.26-0.23-0.53-0.46-0.82-0.69c3.6-2.27,4.85,0.46,6.27,1.94c0.48-0.26,0.95-0.52,1.42-0.78
			c0.29-0.16,0.57-0.32,0.85-0.47c1.34-0.74,2.63-1.45,3.93-2.17c0.49,0.32,0.99,0.64,1.48,0.96c-4.43,4.09-4.77,8.02-0.53,11.61
			v-10.4h2.47c0.24-0.62,1.14-1.45,1.53-1.38c0.8,0.14,2,0.91,2.11,1.57c0.3,1.78,0.1,3.64,0.1,5.47h0.12
			C358.49,386.89,358.71,388.38,358.41,389.75z M336.06,394.23h-3.29l-1.09-3.31h-5.19l-1.06,3.31h-3.26l0.95-2.76
			c-0.14-0.19-0.28-0.38-0.42-0.57c1.1-2.54,2.12-5.11,3.24-7.64l1.2-3.47h0.42c1.31-2.58,4.04-2.42,5.45,0.12
			c1.66,3.8,3.16,7.07,5.4,12.1c-1.37-0.4-2.52-0.57-3.42-0.83L336.06,394.23z M312.52,378.27c2.74-0.2,5.51-0.26,8.25-0.08
			c0.92,0.07,1.78,1,2.67,1.54c-0.18,0.13-0.35,0.26-0.52,0.39v2.15h-3.76c0.02,2.28,0.18,4.54-0.08,6.74
			c-0.05,0.42-0.27,0.83-0.56,1.22v4h-2.97v-4.29c-0.17-0.25-0.29-0.5-0.32-0.77c-0.28-2.18-0.12-4.4-0.1-6.9h-3.99v-1.99
			c-0.11-0.13-0.23-0.26-0.35-0.38C311.37,379.33,311.91,378.32,312.52,378.27z"/>
	</g>
	<g>
		<g>
			<path class="st4" d="M604.23,795.43c1.11-7.74,2.25-15.29,3.25-22.85c0.37-2.84,2.39-2.3,4.15-2.3
				c27.97-0.11,55.95,0.14,83.91-0.15c4.19-0.06,8.47-0.5,12.52-1.51c10.9-2.74,18.21-12.31,18.03-23.5
				c-14.71,7.51-30.46,5.28-45.91,5.51c-11.87,0.18-23.75,0.11-35.62-0.03c-23.21,0.33-44.58-15.66-42.97-40.04
				c1.79-40.69,8.19-77.01,56.91-81.91c38.24-0.74,76.23-0.05,114.52-0.27c-5.31,40.02-11.23,79.35-17.05,119.22
				c-2.94,26.37-24,47.49-50.99,47.93C671.42,795.58,637.69,796.57,604.23,795.43z M739.94,655.46c-0.91-0.24-1.41-0.47-1.9-0.47
				c-25.07,0.01-50.15-0.44-75.2,0.23c-27.96,0.46-29.72,23.54-31.94,46.05c-1.21,14.9,6.28,23.03,21.26,23.15
				c17.68,0.14,35.36,0.11,53.04,0.02c7.93-0.04,15.35-2.07,22.2-6.22c2.82-1.71,4.32-3.8,4.74-7.14
				C734.67,692.5,737.54,674.1,739.94,655.46z"/>
		</g>
		<g>
			<path class="st4" d="M393.38,724.51c-1.3,8.49-2.39,16.17-3.75,23.81c-0.16,0.91-1.74,1.79-2.84,2.25
				c-28.15,0.31-56.48,0-84.69,0.1c-29.29,0.41-52.11-17.18-49.3-50.52c1.86-38.27,17.12-68.57,59.56-71.33
				c21.33-0.98,42.74-0.35,64.11-0.06c4.8,0.06,9.76,1.13,14.33,2.67c33.2,11.55,26.02,41,20.28,68.75
				c-0.19,1.01-2.32,2.29-3.6,2.34c-41.64,0.52-83.32,0.08-124.97,0.25c-1.03,6.87,2.88,14.95,9.62,17.68
				c5.37,2.17,11.37,3.79,17.12,3.88C337.38,724.74,365.21,724.47,393.38,724.51z M386.91,677.33c3.51-15.8-7.13-22.62-21.28-22.35
				c-16.09-0.06-32.19-0.29-48.27,0.07c-15.4,0.52-28.09,5.87-32.18,22.28C319.33,677.33,353.02,677.33,386.91,677.33z"/>
		</g>
		<g>
			<path class="st4" d="M84.48,750.66c1.39-8.37,2.57-16.18,4.12-23.92c0.19-0.96,2.41-2.13,3.7-2.15
				c32.45-0.27,64.91,0.06,97.36-0.15c2.99-0.01,6.1-0.35,8.95-1.21c5.29-1.58,8.36-6.62,7.8-11.92c-0.97-9.68-12.5-8.53-20.23-8.61
				c-17.68-0.01-35.36,0.06-53.04-0.01c-21.28,0.54-38.03-11.65-36.54-34.24c1.1-26.34,21.55-40.33,46.64-40.05
				c33.72,0.07,67.38-0.37,101.1,0.16c0,1.4,0.13,2.54-0.02,3.65c-0.84,6.01-1.94,11.99-2.55,18.02c-0.37,3.6-1.74,4.78-5.43,4.76
				c-30.74-0.14-61.48-0.1-92.22-0.04c-3.01,0.01-6.09,0.21-9.03,0.83c-10.3,1.78-13.1,18.5-1.68,20.88c2.54,0.6,5.22,0.79,7.84,0.8
				c19.39,0.07,38.79,0,58.18,0.08c22.56-0.8,40.27,13.3,36.04,37.08c-8.49,43.66-44.9,35.34-79.44,36.02
				C132.14,750.67,108.41,750.66,84.48,750.66z"/>
		</g>
		<g>
			<path class="st14" d="M854.14,752.85c-43.21-1.12-76.59-9.76-71.81-60.98c1.08-25.86,16.09-52.57,42.21-59.51
				c25.56-7.47,51.72-7.62,77.5-1.94c25.72,5.67,38.4,23.45,37.42,49.74c-0.52,14.06-2.98,27.73-9.89,40.34
				C913.35,750.52,884.07,750.54,854.14,752.85z M864.91,652.72c-7.85,0.6-16.05,0.8-24.12,1.95
				c-25.88,3.62-29.33,25.48-29.49,47.67c0.29,12.27,7.78,20.16,19.91,22.09c16.64,2.65,33.43,2.7,50.07,0.14
				c10.91-1.67,19.41-7.65,23.91-18.04c3.93-9.07,5.55-18.77,4.93-28.61c-0.84-13.38-8.12-21.24-21.62-23.26
				C880.84,653.52,873.03,653.36,864.91,652.72z"/>
		</g>
		<g>
			<path class="st4" d="M578.76,750.42c-9.73,0-19.3,0-29.34,0c2.97-23.42,6.88-46.49,10.15-69.84
				c2.23-15.29-4.93-24.54-20.35-25.03c-17.53-0.55-35.11-0.57-52.64-0.05c-15.64,0.46-24.58,8.84-26.97,24.31
				c-3.44,22.29-6.67,44.62-9.8,66.95c-0.45,3.2-1.64,4.04-4.75,3.96c-8.27-0.22-16.55-0.08-25.3-0.08
				c3.8-24.83,7.2-48.66,10.91-73.32c2.7-17.86,10.35-32.64,26.76-41.65c9.46-5.19,19.8-7.23,30.5-7.28
				c18.47-0.09,36.95-0.19,55.42,0.13c24.98,0.08,47.3,13.4,46.3,40.64c-0.3,11.68-2.32,23.34-3.88,34.96
				C583.53,719.59,581.55,735.04,578.76,750.42z"/>
		</g>
	</g>
	<g>
		<path class="st14" d="M621.69,488.07c5.6,0,10.91,0,15.61,0c-1.81,5.3-3.61,10.59-5.42,15.88c0.51,0.27,1.02,0.54,1.53,0.81
			c10.2-9.57,17.39-21.91,33.37-18.94c8.33,1.52,16.52,1.14,24.78-0.08c2.08-0.31,4.33-0.81,6.27-0.3c1.89,0.49,4.2,1.78,5.03,3.39
			c1.25,2.43-0.44,4.81-2.84,5.67c-3.81,1.36-7.78,2.32-11.74,3.18c-5.78,1.57-15.6,0.13-17.33,7.67
			c12.25,1.27,23.67,0.1,34.44-6.15c7.84-4.56,15.99-8.69,24.33-12.25c3.42-1.46,7.69-1.16,11.57-1.12c1.11,0.01,2.57,1.74,3.13,3
			c0.26,0.58-1.02,2.37-2,2.91c-15.93,8.75-30.19,19.82-43.87,31.64c-5.28,4.56-11.33,6.49-17.79,6.46
			c-9.91-0.04-15.61,4.27-21.13,12.69c-32.07,49.12-90.52,57.58-144.69,54.04c24.35-13.1,48.35-25.62,70.14-42.65
			C605.83,537.78,624.35,516.07,621.69,488.07z"/>
	</g>
	<g>
		<path class="st14" d="M700.18,388.86c35.81,1.98,66.28,30.94,67.02,67.45c0.16,3.67-1.07,4.72-4.64,4.71
			c-41.27-0.09-82.54-0.06-123.82-0.06c-3.16,0-6.35-0.2-9.49,0.06c-3.29,0.28-4.02-1.13-3.91-4.12
			c0.77-21.27,9.34-38.72,25.76-52.18c10.98-9,23.7-14.14,37.84-15.56c2.33-0.23,3.6-0.75,3.55-3.46c-0.05-2.68-1.36-3.04-3.62-3.51
			c-1.49-0.32-3.75-2.31-3.67-3.43c0.09-1.44,2.06-3.8,3.41-3.94c4.95-0.49,10-0.51,14.96-0.06c1.3,0.12,3.08,2.45,3.32,3.98
			c0.16,1.01-1.94,3.37-3.14,3.45C698.83,382.51,699.66,385.44,700.18,388.86z M727.31,405.64c-0.23,0.23-0.47,0.46-0.7,0.68
			c11.68,11.62,19.35,25.31,19.97,42.05c0.3,6.11,0.3,5.92,6.57,6.11c3.73,0.11,4.48-1.31,3.99-4.72
			c-1.45-10.05-5.57-18.95-11.41-27.09C740.76,415.76,734.31,410.37,727.31,405.64z"/>
	</g>
	<g>
		<path class="st4" d="M533.01,440.47c10.88,6.04,20.93,12.96,25.36,25.37c2.87,8.05,1.99,15.89-2.95,22.6
			c-11.98,16.51-30.93,26.19-49.88,32.38C427.38,546,348.99,570.5,270.84,595.74c-1.23,0.39-2.48,0.77-4.04,0.5
			c66.23-35.29,139.77-52.35,210.78-75.11c18-5.62,36.02-11.51,52.1-21.64c6.14-3.87,11.91-8.8,16.65-14.28
			c6.24-7.21,7.5-16.11,3.01-24.8c-2.62-5.07-6.39-9.58-9.96-14.09C537.61,444.09,535.15,442.4,533.01,440.47z"/>
	</g>
	<g>
		<path class="st14" d="M696.41,468.96c24.94,0,49.87-0.02,74.81,0.04c2.05,0,4.99-0.95,5.32,2.45c0.5,5.53-5.71,6.46-9.93,6.12
			c-47.23,0.01-94.46,0.03-141.7-0.05c-2.26,0-4.86-0.4-6.67-1.59c-1.27-0.84-1.9-3.33-1.89-5.07c0-0.66,2.63-1.85,4.06-1.86
			c25.33-0.16,50.66-0.06,76-0.08C696.41,468.93,696.41,468.94,696.41,468.96z"/>
	</g>
	<g>
		<path class="st4" d="M295.23,499.52c-0.26,0.78-0.29,0.92-0.35,1.03c-4.35,7.6-10.62,10.75-19.41,8.85
			c-5.65-1.22-11.42-1.83-17.1-2.91c-11.47-2.17-10.83-12.69-10.4-21.98c0.05-1.97,1.11-2.79,3.17-2.21
			C266.38,486.59,280.87,492.74,295.23,499.52z"/>
	</g>
	<g>
		<path class="st4" d="M681.58,362.04c6.32-11.75,6.48-22.8-1.45-33.72c-13.83-20.39-3.16-34.61,10.8-43.29
			c1.09-0.68,2.27-1.2,3.85-1.34c-10.01,10.55-14.69,23.51-7.14,37c1.43,2.67,3,5.27,4.3,8.01
			C698.92,342.52,693.16,353.28,681.58,362.04z"/>
	</g>
	<g>
		<path class="st4" d="M473.99,482.45c2.83,11.8-0.74,21.42-8.28,24.3c-12.62,4.81-21.65,2.7-27.13-7.22
			C450.28,493.88,461.93,488.27,473.99,482.45z"/>
	</g>
	<g>
		<path class="st26" d="M104.78,471.3c34.98-1.2,69.96-2.39,105.08-3.59c0,3.37,0,6.18,0,9.45c-35.36-1.81-70.3-3.59-105.24-5.38
			C104.66,471.62,104.72,471.46,104.78,471.3z"/>
	</g>
	<g>
		<path class="st4" d="M501.73,560.3c-12.32,5.25-24.63,10.53-36.99,15.68c-1.11,0.46-2.61,0.34-3.85,0.1
			c-5.03-0.96-10.04-2.07-15.57-3.24c0.87-0.65,1.34-1.19,1.94-1.43c12.47-4.95,24.95-9.88,37.45-14.76
			c1.05-0.41,2.35-0.67,3.42-0.45c4.47,0.95,8.9,2.1,13.34,3.19C501.55,559.7,501.64,560,501.73,560.3z"/>
	</g>
	<g>
		<path class="st26" d="M209.7,503.36c0,3.42,0,6.13,0,9.36c-29.7-1.39-59.04-2.76-88.38-4.13c-0.01-0.14-0.02-0.28-0.03-0.43
			C150.68,506.56,180.09,504.96,209.7,503.36z"/>
	</g>
	<g>
		<path class="st4" d="M437.39,587.65c-11.92,3.38-22.3,11.6-35.86,9.96c-6.44-0.78-13.05-0.13-19.83-1
			c11.59-4.37,23.14-8.86,34.82-13.01c1.95-0.69,4.36-0.66,6.44-0.28c4.84,0.89,9.59,2.19,14.38,3.33
			C437.36,586.98,437.38,587.32,437.39,587.65z"/>
	</g>
	<g>
		<path class="st4" d="M710.34,300.48c-4.86,8.83-6.66,17.82-0.86,26.6c1.94,2.98,4.01,5.89,5.75,8.99
			c5.34,9.55,1.98,21.16-7.91,26.63c4.11-8.15,5.17-16.67-0.34-24.5c-2.73-4.01-5.75-8.03-7.44-12.5
			C696.11,316.63,700.29,307.07,710.34,300.48z"/>
	</g>
	<g>
		<path class="st4" d="M556.61,533.1c-11.31,5.79-21.92,11.29-32.62,16.6c-1.11,0.55-2.82,0.13-4.2-0.13
			c-3.86-0.72-7.7-1.59-12.54-2.61c6.98-3.28,13.09-6.13,19.19-9.01c2.27-1.07,4.69-1.93,6.72-3.35
			C540.23,529.68,547.62,528.84,556.61,533.1z"/>
	</g>
	<g>
		<path class="st26" d="M134.81,544.03c24.93-1.95,49.87-3.9,75.07-5.87c0,3.07,0,5.76,0,8.95c-25.23-0.96-50.21-1.9-75.19-2.85
			C134.73,544.19,134.77,544.11,134.81,544.03z"/>
	</g>
	<g>
		<path class="st4" d="M558.84,520.03c3.44-2.7,6.36-4.52,8.68-6.92c4.36-4.51,8.98-8.97,12.33-14.2c2.27-3.55,4.37-4.69,8.13-3.8
			c1,0.24,2.05,0.24,4.03,0.46c-1.86,3.76-3.1,7.37-5.25,10.31c-3.16,4.34-6.96,8.2-10.49,12.27c-2.52,2.91-5.45,4.27-9.42,3.12
			C564.62,520.61,562.21,520.52,558.84,520.03z"/>
	</g>
	<g>
		<path class="st4" d="M577.12,459.91c1.45,0,3.46-0.62,4.25,0.1c6.68,6.1,10.88,13.59,12.07,23.04c-2.86,0-5.39,0-8.44,0
			c0.08-8.3-2.9-15.44-8.08-21.71C576.99,460.86,577.06,460.38,577.12,459.91z"/>
	</g>
	<g>
		<path class="st4" d="M552.51,440.23c7.5,4.28,15,8.56,22.5,12.84c-0.16,0.6-0.31,1.2-0.47,1.79c-1.2,0-2.76,0.49-3.55-0.08
			c-6.32-4.58-12.5-9.36-18.72-14.07C552.35,440.56,552.43,440.4,552.51,440.23z"/>
	</g>
	<g>
		<g>
			<path class="st26" d="M330.9,388.59h-3.65l0.43-1.34c0.27-0.89,0.55-1.86,0.82-2.92c0.17-0.67,0.35-1.4,0.54-2.15
				c0.2,0.75,0.39,1.48,0.58,2.14c0.28,1.05,0.57,2.03,0.84,2.93L330.9,388.59z"/>
		</g>
		<g>
			<path class="st26" d="M359.81,377.09h-51v20l31,1l24-1v-11L359.81,377.09z M318.52,394.23h-2.97v-11.96h-4.41v-2.48h11.78v2.48
				h-4.4V394.23z M332.77,394.23l-1.09-3.31h-5.19l-1.06,3.31h-3.26l0.95-2.76l2.82-8.21l1.2-3.47H331l3.99,11.39l1.07,3.05H332.77z
				 M347.02,394.23L345,391.2c-0.24-0.38-0.45-0.71-0.62-0.99c-0.08-0.14-0.16-0.28-0.24-0.41c-0.05-0.08-0.09-0.16-0.14-0.24
				c-0.03-0.05-0.05-0.1-0.08-0.15c-0.07-0.13-0.15-0.29-0.23-0.43c-0.09,0.14-0.17,0.29-0.25,0.42c-0.14,0.26-0.29,0.53-0.46,0.81
				c-0.15,0.25-0.33,0.53-0.55,0.85c-0.03,0.05-0.06,0.09-0.09,0.14l-2.07,3.03h-3.41l2.1-2.99l3.09-4.4l-0.26-0.39l-4.47-6.66h3.42
				l1.59,2.43c0.27,0.43,0.5,0.82,0.7,1.18c0.19,0.35,0.37,0.7,0.54,1.03c0.04,0.09,0.1,0.19,0.15,0.29c0.05-0.1,0.1-0.2,0.15-0.29
				c0.17-0.33,0.35-0.68,0.55-1.03c0.2-0.36,0.43-0.75,0.71-1.18l1.3-1.96l0.31-0.47h3.34l-4.67,6.97l2.56,3.75l2.54,3.72H347.02z
				 M355.13,394.23h-2.97v-14.44h2.97V394.23z"/>
		</g>
		<g>
			<path class="st27" d="M347.28,379.79c-0.28,0.15-0.56,0.31-0.85,0.47l0.31-0.47H347.28z"/>
		</g>
	</g>
	<g>
		<path class="st14" d="M252.05,785.62v-2.98h15.65v2.98h-6.06v16.66h-3.51v-16.66H252.05z"/>
		<path class="st14" d="M272.21,802.28l6.88-19.64h4.46l7,19.64h-3.85l-3.48-10.23c-0.34-1.06-0.7-2.25-1.07-3.55
			s-0.79-2.8-1.25-4.5h0.79c-0.45,1.71-0.85,3.21-1.21,4.53c-0.36,1.31-0.7,2.49-1.03,3.53l-3.41,10.23H272.21z M276.23,797.46
			v-2.85h10.28v2.85H276.23z"/>
		<path class="st14" d="M297.1,802.28l7.96-11.35v2.65l-7.41-10.94h4.06l2.39,3.6c0.39,0.57,0.71,1.09,0.98,1.56
			c0.26,0.47,0.51,0.92,0.74,1.36s0.48,0.91,0.75,1.4h-0.86c0.28-0.49,0.54-0.96,0.76-1.39c0.23-0.44,0.48-0.89,0.75-1.36
			c0.27-0.47,0.6-0.99,0.98-1.56l2.44-3.6h3.96l-7.3,10.76v-2.53l7.82,11.42h-4.11l-2.98-4.42c-0.34-0.51-0.63-0.96-0.87-1.35
			c-0.24-0.38-0.46-0.76-0.66-1.13c-0.2-0.36-0.43-0.77-0.69-1.22h0.61c-0.25,0.44-0.47,0.84-0.68,1.21
			c-0.21,0.36-0.43,0.74-0.67,1.13c-0.24,0.39-0.54,0.84-0.89,1.36l-3.03,4.42H297.1z"/>
		<path class="st14" d="M326.52,782.64v19.64H323v-19.64H326.52z"/>
	</g>
	<g>
		<path class="st4" d="M380.96,802.28v-19.64h3.52v16.66h8.77v2.98H380.96z"/>
		<path class="st4" d="M405.05,782.64v19.64h-3.52v-19.64H405.05z"/>
		<path class="st4" d="M419.89,802.28l-7-19.64h3.84l3.49,10.23c0.33,1.02,0.68,2.19,1.06,3.51c0.38,1.32,0.8,2.81,1.26,4.48h-0.8
			c0.45-1.69,0.86-3.19,1.23-4.5c0.37-1.31,0.71-2.47,1.03-3.49l3.39-10.23h3.82l-6.88,19.64H419.89z"/>
		<path class="st4" d="M439.04,802.28v-19.64h7.42c1.49,0,2.74,0.26,3.78,0.78c1.03,0.52,1.82,1.26,2.35,2.2
			c0.54,0.94,0.8,2.04,0.8,3.3c0,1.26-0.27,2.35-0.82,3.27c-0.54,0.92-1.34,1.63-2.39,2.14c-1.05,0.5-2.32,0.75-3.82,0.75h-5.27
			v-2.91h4.92c0.87,0,1.59-0.13,2.15-0.38c0.56-0.25,0.98-0.62,1.26-1.11c0.28-0.48,0.42-1.07,0.42-1.75c0-0.7-0.14-1.3-0.42-1.8
			c-0.28-0.5-0.7-0.88-1.27-1.14c-0.57-0.26-1.29-0.39-2.16-0.39h-3.44v16.69H439.04z M450.13,802.28l-4.72-8.9h3.82l4.81,8.9
			H450.13z"/>
		<path class="st4" d="M460.66,802.28l6.88-19.64H472l7,19.64h-3.85l-3.48-10.23c-0.34-1.06-0.7-2.25-1.07-3.55s-0.79-2.8-1.25-4.5
			h0.79c-0.45,1.71-0.85,3.21-1.21,4.53c-0.36,1.31-0.7,2.49-1.03,3.53l-3.41,10.23H460.66z M464.68,797.46v-2.85h10.28v2.85H464.68
			z"/>
		<path class="st4" d="M490.37,782.64v19.64h-3.52v-19.64H490.37z"/>
		<path class="st4" d="M506.5,802.58c-1.54,0-2.87-0.24-4.01-0.73s-2.02-1.2-2.64-2.12c-0.63-0.93-0.96-2.05-1.01-3.37h3.45
			c0.05,0.71,0.26,1.31,0.63,1.79s0.86,0.84,1.48,1.08c0.62,0.24,1.32,0.36,2.09,0.36c0.78,0,1.47-0.12,2.06-0.35
			c0.59-0.23,1.06-0.56,1.4-0.99c0.34-0.43,0.51-0.93,0.51-1.49c0-0.5-0.14-0.92-0.43-1.25c-0.29-0.33-0.69-0.62-1.23-0.86
			c-0.53-0.24-1.17-0.45-1.92-0.63l-2.2-0.55c-1.71-0.42-3.03-1.06-3.96-1.92s-1.38-1.99-1.38-3.38c0-1.16,0.31-2.18,0.93-3.04
			c0.62-0.87,1.47-1.55,2.56-2.03c1.08-0.48,2.32-0.72,3.7-0.72c1.42,0,2.65,0.24,3.7,0.73c1.05,0.49,1.88,1.17,2.48,2.04
			c0.6,0.87,0.91,1.88,0.94,3.02h-3.39c-0.09-0.89-0.47-1.58-1.14-2.07c-0.67-0.49-1.55-0.74-2.63-0.74c-0.73,0-1.36,0.12-1.91,0.34
			c-0.54,0.23-0.96,0.54-1.25,0.93c-0.29,0.39-0.44,0.84-0.44,1.35c0,0.53,0.16,0.96,0.47,1.3c0.32,0.34,0.73,0.62,1.25,0.84
			c0.52,0.22,1.08,0.4,1.67,0.54l1.87,0.47c0.79,0.18,1.54,0.43,2.23,0.72c0.7,0.3,1.32,0.67,1.85,1.12
			c0.54,0.45,0.96,0.98,1.26,1.59c0.3,0.62,0.45,1.34,0.45,2.16c0,1.17-0.3,2.19-0.89,3.07c-0.59,0.88-1.45,1.56-2.56,2.05
			S508.06,802.58,506.5,802.58z"/>
		<path class="st4" d="M530.87,802.56c-1.72,0-3.27-0.4-4.63-1.21s-2.45-1.97-3.24-3.47c-0.79-1.51-1.19-3.31-1.19-5.4
			c0-2.11,0.4-3.92,1.19-5.42c0.79-1.51,1.87-2.67,3.24-3.47s2.91-1.21,4.63-1.21s3.27,0.4,4.63,1.21s2.44,1.97,3.22,3.47
			c0.79,1.51,1.18,3.31,1.18,5.42c0,2.09-0.39,3.89-1.18,5.4c-0.79,1.51-1.86,2.67-3.22,3.47S532.59,802.56,530.87,802.56z
			 M530.87,799.41c1.06,0,2.01-0.27,2.84-0.8c0.83-0.53,1.48-1.31,1.95-2.35c0.47-1.03,0.71-2.3,0.71-3.79
			c0-1.5-0.24-2.77-0.71-3.81c-0.47-1.04-1.12-1.82-1.95-2.35c-0.83-0.53-1.78-0.8-2.84-0.8c-1.07,0-2.02,0.27-2.85,0.8
			c-0.83,0.54-1.48,1.32-1.96,2.35s-0.71,2.3-0.71,3.8c0,1.49,0.24,2.76,0.71,3.78c0.47,1.03,1.13,1.81,1.96,2.35
			C528.85,799.14,529.8,799.41,530.87,799.41z"/>
		<path class="st4" d="M548.48,802.28v-19.64h3.93l6.82,10.85c0.26,0.41,0.55,0.89,0.86,1.44c0.31,0.55,0.64,1.16,0.98,1.83
			c0.34,0.67,0.67,1.4,1,2.18l-0.4,0.2c-0.06-0.7-0.11-1.44-0.15-2.2c-0.04-0.76-0.07-1.49-0.09-2.19
			c-0.02-0.69-0.03-1.27-0.03-1.73v-10.39h3.56v19.64H561l-6.14-9.77c-0.35-0.56-0.7-1.14-1.05-1.75c-0.35-0.6-0.72-1.29-1.13-2.05
			c-0.4-0.76-0.88-1.66-1.42-2.7l0.5-0.11c0.06,0.96,0.11,1.86,0.15,2.71c0.04,0.85,0.07,1.61,0.09,2.28
			c0.02,0.66,0.03,1.2,0.03,1.6v9.78H548.48z"/>
	</g>
	<g>
		<rect x="140.81" y="794.09" class="st14" width="94" height="2"/>
	</g>
	<g>
		<rect x="760.98" y="794.09" class="st14" width="94" height="2"/>
	</g>
	<g>
		<circle class="st14" cx="355.81" cy="795.09" r="5"/>
	</g>
</g>
</svg>
