<svg xmlns="http://www.w3.org/2000/svg" width="44.389" height="52.322" viewBox="0 0 44.389 52.322">
  <g id="customer-service" transform="translate(-38.81 0)" style="mix-blend-mode: luminosity;isolation: isolate">
    <path id="Path_3534" data-name="Path 3534" d="M259.9,261.412v4.006l-4.484,3.377-4.485-3.377v-4.006Z" transform="translate(-190.441 -234.696)" fill="#fed2a4"/>
    <path id="Path_3535" data-name="Path 3535" d="M252.972,265.418v-4.006h-2.044v4.006l4.485,3.377,1.022-.77Z" transform="translate(-190.44 -234.696)" fill="#ffbd86"/>
    <path id="Path_3536" data-name="Path 3536" d="M54.3,143.813H47.843a1.533,1.533,0,0,1-1.533-1.533v-9.7a1.533,1.533,0,0,1,1.533-1.533H54.3a1.533,1.533,0,0,1,1.533,1.533v4.852l3.175,3.211H55.834v1.642A1.533,1.533,0,0,1,54.3,143.813Z" transform="translate(-6.734 -117.65)" fill="#75cc77"/>
    <path id="Path_3537" data-name="Path 3537" d="M69.606,305.576h3.175V302.2a1.587,1.587,0,0,0-3.175,0Z" transform="translate(-27.649 -269.89)" fill="#fed2a4"/>
    <path id="Path_3538" data-name="Path 3538" d="M71.961,300.81a1.588,1.588,0,0,0-2.355,1.39v3.377h1.533V302.2A1.587,1.587,0,0,1,71.961,300.81Z" transform="translate(-27.649 -269.89)" fill="#ffbd86"/>
    <path id="Path_3539" data-name="Path 3539" d="M65.07,315.1a1.533,1.533,0,0,0,1.533-1.533v-1.641l5.814-7.548a3.065,3.065,0,0,1,1.355-1l7.4-2.765,4.481,3.377,4.481-3.377,10.018,3.156a4.29,4.29,0,0,1,2.961,4.08v13.6H72.952v-7.933l-5.439,6.571a3.066,3.066,0,0,1-2.551,1.365h-.055a3.066,3.066,0,0,1-3.066-3.066V315.1Z" transform="translate(-20.677 -269.89)" fill="#42a5f5"/>
    <g id="Group_85423" data-name="Group 85423" transform="translate(41.164 30.722)">
      <path id="Path_3540" data-name="Path 3540" d="M305.831,303.989l3.879-2.923-1.441-.454-3.459,2.607Z" transform="translate(-279.978 -300.612)" fill="#0593fc"/>
      <path id="Path_3541" data-name="Path 3541" d="M170.559,411.017H172.6v9.55h-2.044Z" transform="translate(-159.448 -399.734)" fill="#0593fc"/>
      <path id="Path_3542" data-name="Path 3542" d="M63.886,318.383V315.1h3.229a1.533,1.533,0,0,0,1.533-1.533v-1.641l5.814-7.548a3.067,3.067,0,0,1,1.355-1l6.03-2.254-.678-.511-7.4,2.765a3.066,3.066,0,0,0-1.355,1L66.6,311.926v1.641a1.533,1.533,0,0,1-1.533,1.533H61.842v3.283a3.066,3.066,0,0,0,3.066,3.066h.055a3.068,3.068,0,0,0,.994-.166A3.069,3.069,0,0,1,63.886,318.383Z" transform="translate(-61.842 -300.612)" fill="#0593fc"/>
    </g>
    <path id="Path_3543" data-name="Path 3543" d="M170.559,411.017h23.809V417.4H170.559Z" transform="translate(-118.284 -369.011)" fill="#ffca28"/>
    <path id="Path_3544" data-name="Path 3544" d="M170.559,411.017H172.6V417.4h-2.044Z" transform="translate(-118.284 -369.011)" fill="#f9b916"/>
    <path id="Path_3545" data-name="Path 3545" d="M187.276,131.752h-1.539a2.136,2.136,0,0,0-2.136,2.136v1.6a2.136,2.136,0,0,0,2.136,2.136h1.539Z" transform="translate(-129.993 -118.287)" fill="#fed2a4"/>
    <path id="Path_3546" data-name="Path 3546" d="M370.056,131.752H371.6a2.136,2.136,0,0,1,2.136,2.136v1.6a2.136,2.136,0,0,1-2.136,2.136h-1.539Z" transform="translate(-297.393 -118.287)" fill="#fed2a4"/>
    <path id="Path_3547" data-name="Path 3547" d="M219.559,103.242v7.385a7.1,7.1,0,0,0,7.1,7.1h1.173a7.1,7.1,0,0,0,7.1-7.1v-7.312l-7.691-3.237Z" transform="translate(-162.277 -89.849)" fill="#fff3de"/>
    <path id="Path_3548" data-name="Path 3548" d="M221.6,110.627v-7.385l6.657-2.739-1.01-.425-7.691,3.165v7.385a7.1,7.1,0,0,0,7.1,7.1h1.173c.146,0,.291-.006.435-.014A7.1,7.1,0,0,1,221.6,110.627Z" transform="translate(-162.277 -89.849)" fill="#ffe5c2"/>
    <path id="Path_3549" data-name="Path 3549" d="M191.469,48.086H195a3.066,3.066,0,0,0,3.066-3.066V38.562h-1.994a4.6,4.6,0,0,0-4.6,4.6Z" transform="translate(-137.057 -34.621)" fill="#546e7a"/>
    <path id="Path_3550" data-name="Path 3550" d="M198.061,38.563h-1.994a4.6,4.6,0,0,0-4.6,4.6v4.925h2.044V43.161A4.6,4.6,0,0,1,198.061,38.563Z" transform="translate(-137.056 -34.621)" fill="#435860"/>
    <path id="Path_3551" data-name="Path 3551" d="M264.248,7.5a6.293,6.293,0,0,1,6.293,6.293v6.4h-11.5a3.066,3.066,0,0,1-3.066-3.066V10.568A3.066,3.066,0,0,1,259.045,7.5Z" transform="translate(-194.974 -6.735)" fill="#546e7a"/>
    <path id="Path_3552" data-name="Path 3552" d="M258.023,17.133V10.567A3.066,3.066,0,0,1,261.089,7.5h-2.044a3.066,3.066,0,0,0-3.066,3.066v6.566a3.066,3.066,0,0,0,3.066,3.066h2.044A3.066,3.066,0,0,1,258.023,17.133Z" transform="translate(-194.974 -6.734)" fill="#435860"/>
    <path id="Path_3553" data-name="Path 3553" d="M47.843,358.711h3.283a1.533,1.533,0,0,0,1.533-1.533V350.72a1.533,1.533,0,0,0-1.533-1.533H47.843a1.533,1.533,0,0,0-1.533,1.533v6.458A1.533,1.533,0,0,0,47.843,358.711Z" transform="translate(-6.734 -313.5)" fill="#fff3de"/>
    <path id="Path_3554" data-name="Path 3554" d="M48.355,357.178V350.72a1.533,1.533,0,0,1,1.533-1.533H47.844a1.533,1.533,0,0,0-1.533,1.533v6.458a1.533,1.533,0,0,0,1.533,1.533h2.044A1.533,1.533,0,0,1,48.355,357.178Z" transform="translate(-6.734 -313.5)" fill="#ffe5c2"/>
    <g id="Group_85424" data-name="Group 85424" transform="translate(38.81 0)">
      <path id="Path_3555" data-name="Path 3555" d="M320.457,154.136a.766.766,0,0,0,.767-.766v-1.006a.766.766,0,1,0-1.533,0v1.006A.766.766,0,0,0,320.457,154.136Z" transform="translate(-290.985 -136.104)"/>
      <path id="Path_3556" data-name="Path 3556" d="M255.84,154.136a.766.766,0,0,0,.766-.766v-1.006a.766.766,0,0,0-1.533,0v1.006A.766.766,0,0,0,255.84,154.136Z" transform="translate(-232.971 -136.104)"/>
      <path id="Path_3557" data-name="Path 3557" d="M271.189,205.678a2.692,2.692,0,0,0,2.689-2.689.766.766,0,1,0-1.533,0,1.156,1.156,0,1,1-2.312,0,.766.766,0,1,0-1.533,0A2.692,2.692,0,0,0,271.189,205.678Z" transform="translate(-245.026 -181.556)"/>
      <path id="Path_3558" data-name="Path 3558" d="M82.433,41.1a.766.766,0,0,0,.766-.766V37.958a5.048,5.048,0,0,0-3.5-4.811l-9.479-2.986V27.112A8.265,8.265,0,0,0,73.43,20.1c1.759.135,3.675-.907,3.675-2.9V15.6a2.891,2.891,0,0,0-.786-1.983c.01-.049.015-2.186.015-2.186a.766.766,0,1,0-1.533,0V12.7H64.07a2.3,2.3,0,0,1-2.3-2.3V3.832a2.3,2.3,0,0,1,2.3-2.3h5.2A5.533,5.533,0,0,1,74.8,7.06V8.09a.766.766,0,0,0,1.533,0V7.06A7.068,7.068,0,0,0,69.274,0h-5.2A3.838,3.838,0,0,0,60.3,3.175H59.011A5.372,5.372,0,0,0,53.645,8.54s0,5.008.011,5.048a2.892,2.892,0,0,0-.815,2.013v1.6c0,1.964,1.907,3.053,3.675,2.9a8.149,8.149,0,0,0,3.206,7.009v3.08l-6.9,2.577a3.835,3.835,0,0,0-1.693,1.251l-4.441,5.765V37.22a2.294,2.294,0,0,0-.794-1.736V32.309a2.354,2.354,0,1,0-4.707,0V34.92a2.116,2.116,0,0,0-2.381,2.3v6.458A2.3,2.3,0,0,0,40.4,45.863v2.63a3.871,3.871,0,0,0,7.053,2.16l4.058-4.9v5.8a.766.766,0,0,0,.766.766H82.433a.766.766,0,0,0,.766-.766v-7.88a.766.766,0,1,0-1.533,0v7.113H76.85V40.619a.766.766,0,1,0-1.533,0v.62H53.041v-.791a.766.766,0,0,0-1.533,0v2.9l-5.263,6.359c-1.255,1.515-4.315,1.56-4.315-1.212V45.977h2.435V46.8a.766.766,0,0,0,1.533,0V45.413a2.3,2.3,0,0,0,.794-1.736V42.3l5.655-7.341a2.3,2.3,0,0,1,1.016-.751l7-2.617,4.148,3.123a.8.8,0,0,0,.971-.037l4.12-3.1,9.632,3.034a3.516,3.516,0,0,1,2.432,3.351v2.377a.766.766,0,0,0,.767.767Zm-7.115,1.671v4.846H62.158a.766.766,0,1,0,0,1.533H75.317v1.637H53.041V49.152h5.777a.766.766,0,1,0,0-1.533H53.041V42.773ZM42.724,32.31a.821.821,0,1,1,1.641,0V34.92H42.724Zm-2.381,4.91a.767.767,0,0,1,.766-.766h3.283a.767.767,0,0,1,.766.766v.875H42.751a.766.766,0,0,0,0,1.533h2.408v1.642H42.751a.766.766,0,0,0,0,1.533h2.408v.875c0,.511-.31.732-.766.766H41.11a.767.767,0,0,1-.766-.766ZM75.572,17.2A1.371,1.371,0,0,1,74.2,18.57H73.43V14.231H74.2A1.371,1.371,0,0,1,75.572,15.6ZM55.178,8.54a3.837,3.837,0,0,1,3.832-3.832h1.228V10.4h0a2.3,2.3,0,0,1-2.3,2.3H55.178Zm.565,10.03A1.371,1.371,0,0,1,54.374,17.2V15.6a1.371,1.371,0,0,1,1.369-1.369h.773V18.57h-.773Zm2.306,2.207V14.229A3.829,3.829,0,0,0,61,12.7a3.829,3.829,0,0,0,3.066,1.536H71.9v6.546c0,8.423-13.848,8.413-13.848,0ZM68.691,28v2.342l-3.718,2.8-3.718-2.8V28c1.828,1.1,5.473,1.028,7.436,0Z" transform="translate(-38.81 0)"/>
      <path id="Path_3559" data-name="Path 3559" d="M63.919,174.972a.767.767,0,0,0,1.084,0l3.175-3.175a.767.767,0,0,0-1.084-1.084l-2.632,2.633L63.416,172.3a.767.767,0,0,0-1.084,1.084Z" transform="translate(-59.726 -153.065)"/>
      <path id="Path_3560" data-name="Path 3560" d="M41.11,137.846h6.458a2.3,2.3,0,0,0,2.3-2.3v-.875h2.408c.809-.006,1.167-.624.545-1.305l-2.953-2.987v-4.537a2.3,2.3,0,0,0-2.3-2.3H41.111a2.3,2.3,0,0,0-2.3,2.3v9.7a2.3,2.3,0,0,0,2.3,2.3Zm-.766-12a.767.767,0,0,1,.766-.766h6.458a.767.767,0,0,1,.766.766v4.852a.766.766,0,0,0,.221.539l1.884,1.905H49.1a.766.766,0,0,0-.766.767v1.641a.767.767,0,0,1-.766.767H41.111a.767.767,0,0,1-.767-.767Z" transform="translate(-38.811 -110.916)"/>
    </g>
  </g>
</svg>
