<svg xmlns="http://www.w3.org/2000/svg" width="40.862" height="52.322" viewBox="0 0 40.862 52.322">
  <g id="driver" transform="translate(-56.071 0)" style="mix-blend-mode: luminosity;isolation: isolate">
    <g id="Group_85435" data-name="Group 85435" transform="translate(56.837 0.766)">
      <path id="Path_3598" data-name="Path 3598" d="M92.221,253.424l1.185-22.091a6.854,6.854,0,0,1,6.844-6.487h17.416a6.854,6.854,0,0,1,6.844,6.487l1.185,22.091Z" transform="translate(-89.293 -202.635)" fill="#b1d8fc"/>
      <path id="Path_3599" data-name="Path 3599" d="M321.12,231.333a6.854,6.854,0,0,0-6.844-6.487H311.21a6.854,6.854,0,0,1,6.844,6.487l1.185,22.091H322.3Z" transform="translate(-285.903 -202.635)" fill="#88c7fc"/>
      <g id="Group_85434" data-name="Group 85434" transform="translate(0)">
        <g id="Group_85433" data-name="Group 85433" transform="translate(0 27.248)">
          <path id="Path_3600" data-name="Path 3600" d="M102.9,297.425v-8.531a8.175,8.175,0,0,0-6.146-7.92l-6.966-1.785a2.044,2.044,0,0,1-1.537-1.98v-3.07H78.218v3.071a2.044,2.044,0,0,1-1.537,1.98l-6.966,1.785a8.175,8.175,0,0,0-6.146,7.92v8.53a1.022,1.022,0,0,0,1.022,1.022h37.286A1.022,1.022,0,0,0,102.9,297.425Z" transform="translate(-63.569 -274.14)" fill="#f48996"/>
          <g id="Group_85428" data-name="Group 85428" transform="translate(21.615 0)">
            <path id="Path_3601" data-name="Path 3601" d="M286.65,280.975l-6.966-1.785a2.044,2.044,0,0,1-1.537-1.98v-3.07h-3.066v4.6a2.044,2.044,0,0,0,1.537,1.98l6.966,1.785a8.175,8.175,0,0,1,6.146,7.92v8.019h2.044a1.022,1.022,0,0,0,1.022-1.022v-8.53A8.175,8.175,0,0,0,286.65,280.975Z" transform="translate(-275.081 -274.14)" fill="#ef7280"/>
          </g>
          <path id="Path_3602" data-name="Path 3602" d="M196.971,278.976a7.322,7.322,0,0,0,12.064,0,2.043,2.043,0,0,1-1.017-1.765V274.14H197.988v3.071A2.043,2.043,0,0,1,196.971,278.976Z" transform="translate(-183.338 -274.14)" fill="#ffdecf"/>
          <path id="Path_3603" data-name="Path 3603" d="M276.618,280.723l.625.16a7.369,7.369,0,0,0,1.921-1.907,2.043,2.043,0,0,1-1.017-1.765V274.14h-3.066v4.6A2.044,2.044,0,0,0,276.618,280.723Z" transform="translate(-253.467 -274.14)" fill="#ffcdbe"/>
          <path id="Path_3604" data-name="Path 3604" d="M252.41,342.533a86.162,86.162,0,0,0,8.8-15.766.915.915,0,0,0-.5-1.206l-3.426-1.4a.915.915,0,0,0-1.178.469c-1.09,2.4-2.352,4.924-3.818,7.535a98.957,98.957,0,0,1-6.7,10.363l-.6.766h6.847Z" transform="translate(-226.459 -318.992)" fill="#3c6d91"/>
          <path id="Path_3605" data-name="Path 3605" d="M293.936,325.56l-3.426-1.4a.915.915,0,0,0-1.178.469l-.116.252,1.655.674a.915.915,0,0,1,.5,1.206,86.153,86.153,0,0,1-8.8,15.766L282,343.3h3.066l.563-.766a86.172,86.172,0,0,0,8.8-15.766A.914.914,0,0,0,293.936,325.56Z" transform="translate(-259.678 -318.992)" fill="#345e80"/>
          <g id="Group_85432" data-name="Group 85432" transform="translate(4.549 12.101)">
            <g id="Group_85429" data-name="Group 85429" transform="translate(0.793)">
              <path id="Path_3606" data-name="Path 3606" d="M115.983,404a14.508,14.508,0,0,1,28.36,0l.127.766h-4.905l-.2-.766a9.7,9.7,0,0,0-18.4,0l-.2.766H115.84Z" transform="translate(-115.84 -392.56)" fill="#e9f5ff"/>
            </g>
            <g id="Group_85430" data-name="Group 85430" transform="translate(2.649)">
              <path id="Path_3607" data-name="Path 3607" d="M143.4,439.62a9.713,9.713,0,0,0-9.2,6.63l-.2.766h3.066l.2-.766a9.726,9.726,0,0,1,7.666-6.508A9.716,9.716,0,0,0,143.4,439.62Z" transform="translate(-134 -434.811)" fill="#d7ebfd"/>
              <path id="Path_3608" data-name="Path 3608" d="M256.713,404A14.514,14.514,0,0,0,241,392.641,14.514,14.514,0,0,1,253.647,404l.127.766h3.066Z" transform="translate(-230.066 -392.56)" fill="#d7ebfd"/>
            </g>
            <g id="Group_85431" data-name="Group 85431" transform="translate(0 1.699)">
              <path id="Path_3609" data-name="Path 3609" d="M352.1,416.334h0a1.625,1.625,0,0,1-2.073-.7,24.6,24.6,0,0,1-1.18-2.444c-.255-.612-.472-1.2-.658-1.768a1.624,1.624,0,0,1,.895-2,2.845,2.845,0,0,1,3.691,1.347q.167.339.33.7.289.64.52,1.249A2.842,2.842,0,0,1,352.1,416.334Z" transform="translate(-323.578 -409.184)" fill="#ffdecf"/>
              <path id="Path_3610" data-name="Path 3610" d="M358.953,412.72q-.232-.608-.52-1.249-.163-.36-.33-.7a2.845,2.845,0,0,0-3.691-1.347,1.624,1.624,0,0,0-.37.225,2.826,2.826,0,0,1,.995,1.123q.167.34.33.7.289.64.52,1.249a2.836,2.836,0,0,1-.537,2.9l.006.01a1.625,1.625,0,0,0,2.073.7h0A2.842,2.842,0,0,0,358.953,412.72Z" transform="translate(-328.908 -409.186)" fill="#ffcdbe"/>
              <path id="Path_3611" data-name="Path 3611" d="M109.79,416.334h0a1.625,1.625,0,0,0,2.073-.7,24.623,24.623,0,0,0,1.18-2.444c.255-.612.472-1.2.658-1.768a1.624,1.624,0,0,0-.895-2,2.845,2.845,0,0,0-3.691,1.347q-.167.339-.33.7-.289.64-.52,1.249A2.842,2.842,0,0,0,109.79,416.334Z" transform="translate(-108.079 -409.184)" fill="#ffdecf"/>
              <path id="Path_3612" data-name="Path 3612" d="M119.167,409.425a2.847,2.847,0,0,0-2.7.225A1.623,1.623,0,0,1,117,411.42c-.186.565-.4,1.156-.658,1.768a24.6,24.6,0,0,1-1.174,2.434,2.842,2.842,0,0,0,.987.714h0a1.625,1.625,0,0,0,2.073-.7,24.6,24.6,0,0,0,1.18-2.444c.255-.612.472-1.2.658-1.768A1.624,1.624,0,0,0,119.167,409.425Z" transform="translate(-114.439 -409.186)" fill="#ffcdbe"/>
            </g>
          </g>
        </g>
        <path id="Path_3613" data-name="Path 3613" d="M169.9,22.162H147.78v-8.3A6.362,6.362,0,0,1,154.142,7.5h9.394a6.362,6.362,0,0,1,6.362,6.362Z" transform="translate(-139.174 -7.5)" fill="#3c6d91"/>
        <path id="Path_3614" data-name="Path 3614" d="M275.031,7.5h-3.066a6.362,6.362,0,0,1,6.362,6.362v8.3h3.066v-8.3A6.362,6.362,0,0,0,275.031,7.5Z" transform="translate(-250.669 -7.5)" fill="#345e80"/>
        <path id="Path_3615" data-name="Path 3615" d="M158.839,112.393a10.811,10.811,0,0,1-5.016-.836,11.086,11.086,0,0,1-6.044-9.881v-5.67a24.777,24.777,0,0,0,9.35-1.921,24.409,24.409,0,0,0,4.319-2.358.711.711,0,0,1,.869.051,20.876,20.876,0,0,0,7.58,4.228v5.67a11.086,11.086,0,0,1-6,9.856A10.806,10.806,0,0,1,158.839,112.393Z" transform="translate(-139.174 -83.008)" fill="#ffdecf"/>
        <path id="Path_3616" data-name="Path 3616" d="M158.839,112.393a10.811,10.811,0,0,1-5.016-.836,11.086,11.086,0,0,1-6.044-9.881v-5.67a24.777,24.777,0,0,0,9.35-1.921,24.409,24.409,0,0,0,4.319-2.358.711.711,0,0,1,.869.051,20.876,20.876,0,0,0,7.58,4.228v5.67a11.086,11.086,0,0,1-6,9.856A10.806,10.806,0,0,1,158.839,112.393Z" transform="translate(-139.174 -83.008)" fill="#ffdecf"/>
        <path id="Path_3617" data-name="Path 3617" d="M222.995,129.661v-5.67a20.973,20.973,0,0,1-3.062-1.218l0,6.888a9.93,9.93,0,0,1-13.009,9.881h0a11.059,11.059,0,0,0,16.074-9.881Z" transform="translate(-192.271 -110.993)" fill="#ffcdbe"/>
        <path id="Path_3618" data-name="Path 3618" d="M364.631,140.525h-.411v-5.706h.411a2.853,2.853,0,1,1,0,5.706Z" transform="translate(-333.496 -121.808)" fill="#ffdecf"/>
        <path id="Path_3619" data-name="Path 3619" d="M118.689,140.525h.411v-5.706h-.411a2.853,2.853,0,1,0,0,5.706Z" transform="translate(-110.495 -121.808)" fill="#ffcdbe"/>
      </g>
    </g>
    <path id="Path_3620" data-name="Path 3620" d="M76.5,44.159a10.343,10.343,0,0,0-4.6,1.065A.766.766,0,1,0,72.58,46.6a8.823,8.823,0,0,1,3.922-.908,8.939,8.939,0,0,1,2.371.32c-1.12,1.734-2.3,3.442-3.516,5.088a.766.766,0,1,0,1.233.911c1.3-1.761,2.562-3.593,3.753-5.451a8.928,8.928,0,0,1,3.187,2.553c-.454.684-.912,1.355-1.368,2A.766.766,0,1,0,83.414,52c.339-.481.68-.976,1.02-1.479a9,9,0,0,1,.541,1.279.766.766,0,1,0,1.454-.486A10.493,10.493,0,0,0,76.5,44.159Zm-7.737,3.426a10.4,10.4,0,0,0-2.19,3.728.766.766,0,1,0,1.454.486A8.88,8.88,0,0,1,69.9,48.616a.766.766,0,1,0-1.133-1.032Zm12.07-31.592a.766.766,0,0,0-.766.766v1.733a.766.766,0,0,0,1.533,0V16.759A.766.766,0,0,0,80.836,15.992Zm-2.969,7.784a2.906,2.906,0,0,1-1.395.35,2.85,2.85,0,0,1-1.335-.35.766.766,0,1,0-.737,1.344,4.387,4.387,0,0,0,2.056.539,4.5,4.5,0,0,0,2.148-.539.766.766,0,1,0-.737-1.344ZM93.143,35.459l-.324-6.036a7.579,7.579,0,0,0-4.946-6.732,11.8,11.8,0,0,0,.412-2.246,3.619,3.619,0,0,0,.043-7.207V7.128A7.136,7.136,0,0,0,81.2,0H71.8a7.136,7.136,0,0,0-7.128,7.128v6.11a3.619,3.619,0,0,0,.043,7.207,11.8,11.8,0,0,0,.412,2.246,7.579,7.579,0,0,0-4.946,6.732l-.324,6.038a8.936,8.936,0,0,0-3.79,7.308v8.786a.766.766,0,0,0,1.533,0V42.769a7.405,7.405,0,0,1,5.57-7.176c.063-.016,6.981-1.788,7.04-1.807a8.085,8.085,0,0,0,12.577,0c.083.027,2.412.623,2.5.644-.96,2.045-1.995,4.066-3.085,6.027A15.262,15.262,0,0,0,67.5,42.286a2.389,2.389,0,0,0-1.08-.935,3.606,3.606,0,0,0-4.685,1.711c-.118.239-.232.482-.341.723-.191.423-.372.857-.538,1.291a3.6,3.6,0,0,0,1.318,4.249,15.247,15.247,0,0,0-.6,2.069.766.766,0,0,0,1.5.323,13.693,13.693,0,0,1,.538-1.852,2.379,2.379,0,0,0,2.231-1.233,25.5,25.5,0,0,0,1.217-2.52c.248-.6.477-1.209.679-1.823a2.412,2.412,0,0,0,.077-.309,13.738,13.738,0,0,1,17.377,0,2.436,2.436,0,0,0,.077.309c.2.614.43,1.227.679,1.823a25.51,25.51,0,0,0,1.217,2.52,2.379,2.379,0,0,0,2.231,1.233,13.7,13.7,0,0,1,.538,1.852.766.766,0,0,0,1.5-.323,15.23,15.23,0,0,0-.6-2.069,3.6,3.6,0,0,0,1.318-4.249c-.166-.434-.347-.868-.538-1.291-.109-.241-.224-.484-.341-.723a3.594,3.594,0,0,0-1.505-1.572c.821-1.606,1.6-3.248,2.316-4.9a7.363,7.363,0,0,1,3.32,6.179v8.786a.766.766,0,0,0,1.533,0V42.769a8.884,8.884,0,0,0-3.79-7.31ZM88.328,14.783a2.087,2.087,0,0,1,0,4.113ZM64.676,18.9a2.087,2.087,0,0,1,0-4.113Zm1.6,24.913c-.19.577-.4,1.153-.638,1.713A23.943,23.943,0,0,1,64.5,47.89a.856.856,0,0,1-1.093.374,2.07,2.07,0,0,1-1.118-2.64c.155-.406.324-.812.5-1.208.1-.225.209-.453.319-.677a2.075,2.075,0,0,1,2.7-.983A.854.854,0,0,1,66.28,43.809Zm4.44-12.724a1.277,1.277,0,0,1-.961,1.237l-6.966,1.785a8.967,8.967,0,0,0-1.349.464l.272-5.067a6.054,6.054,0,0,1,3.932-5.37,11.917,11.917,0,0,0,5.072,5.634Zm5.782,4.17a6.56,6.56,0,0,1-4.974-2.288,2.8,2.8,0,0,0,.725-1.883v-.593a11.8,11.8,0,0,0,8.5,0v.593a2.8,2.8,0,0,0,.725,1.883A6.56,6.56,0,0,1,76.5,35.256Zm0-5.5A10.317,10.317,0,0,1,66.209,19.435V14.512a25.6,25.6,0,0,0,6.738-1.173.766.766,0,1,0-.464-1.461,24.065,24.065,0,0,1-6.275,1.1V7.128a5.6,5.6,0,0,1,5.6-5.6H81.2a5.6,5.6,0,0,1,5.6,5.6v5.566a20.143,20.143,0,0,1-3.574-1.725,20.173,20.173,0,0,1-2.735-2.01,1.477,1.477,0,0,0-1.807-.107A23.778,23.778,0,0,1,75.7,10.588a.766.766,0,0,0,.673,1.377,25.326,25.326,0,0,0,3.134-1.823,21.719,21.719,0,0,0,2.911,2.135,21.7,21.7,0,0,0,4.374,2.045v5.113A10.316,10.316,0,0,1,76.5,29.752ZM89.894,43.74c.11.223.217.451.319.677.179.4.348.8.5,1.207a2.07,2.07,0,0,1-1.118,2.64A.856.856,0,0,1,88.5,47.89a23.966,23.966,0,0,1-1.143-2.368c-.233-.56-.448-1.136-.638-1.713a.854.854,0,0,1,.473-1.053,2.075,2.075,0,0,1,2.7.983Zm.994-8.252c-.8,1.878-1.687,3.748-2.625,5.567a3.612,3.612,0,0,0-1.679.3,2.389,2.389,0,0,0-1.08.935A15.243,15.243,0,0,0,83.6,41.1c1.278-2.308,2.489-4.716,3.589-7.127a.148.148,0,0,1,.191-.076l3.427,1.4a.139.139,0,0,1,.081.194Zm-2.93-3.01a1.676,1.676,0,0,0-1.976.546l-2.737-.7a1.277,1.277,0,0,1-.961-1.237V29.769a11.916,11.916,0,0,0,5.072-5.634A6.054,6.054,0,0,1,91.288,29.5l.238,4.434C91.4,33.873,88.1,32.535,87.958,32.478ZM72.168,15.992a.766.766,0,0,0-.766.766v1.733a.766.766,0,1,0,1.533,0V16.759A.766.766,0,0,0,72.168,15.992Z" transform="translate(0)"/>
  </g>
</svg>
