<svg xmlns="http://www.w3.org/2000/svg" width="45.571" height="52.322" viewBox="0 0 45.571 52.322">
  <g id="man" transform="translate(-5 -1)" style="mix-blend-mode: luminosity;isolation: isolate">
    <path id="Path_3575" data-name="Path 3575" d="M27.063,37.774A11.075,11.075,0,0,1,22,36.552v2.91l5.063,5.063L32.1,39.462h.023v-2.91A11.075,11.075,0,0,1,27.063,37.774Z" transform="translate(-2.654 -5.55)" fill="#f2b789"/>
    <path id="Path_3576" data-name="Path 3576" d="M37.379,41.938,29.629,40h-.023l-5.041,5.063L19.5,40l-7.75,1.938A7.6,7.6,0,0,0,6,49.306v9.26H43.132v-9.26A7.6,7.6,0,0,0,37.379,41.938Z" transform="translate(-0.156 -6.088)" fill="#e04b4b"/>
    <path id="Path_3577" data-name="Path 3577" d="M37.847,41.938,30.1,40h-.023l-5.041,5.063L19.971,40l-7.75,1.938A7.574,7.574,0,0,0,9,43.649v5.539a6.846,6.846,0,0,0,6.846,6.846H43.6V49.306A7.6,7.6,0,0,0,37.847,41.938Z" transform="translate(-0.624 -6.088)" fill="#ea5b5a"/>
    <g id="Group_85425" data-name="Group 85425" transform="translate(10.063 12.815)">
      <path id="Path_3578" data-name="Path 3578" d="M36.941,15v8.637a10.973,10.973,0,0,1-21.941,0V15" transform="translate(-11.624 -15)" fill="#f2b789"/>
      <path id="Path_3579" data-name="Path 3579" d="M41.8,21.929h-.844V24.72a10.619,10.619,0,0,1-.25,2.273H41.8a2.532,2.532,0,1,0,0-5.063Z" transform="translate(-15.637 -16.082)" fill="#f2b789"/>
      <path id="Path_3580" data-name="Path 3580" d="M14.376,24.719V21.928h-.844a2.532,2.532,0,1,0,0,5.063h1.094A10.613,10.613,0,0,1,14.376,24.719Z" transform="translate(-11 -16.081)" fill="#f2b789"/>
    </g>
    <path id="Path_3581" data-name="Path 3581" d="M27.376,37.774A11.141,11.141,0,0,1,24,37.249v3.9l3.376,3.376,5.041-5.063h.023v-2.91A11.075,11.075,0,0,1,27.376,37.774Z" transform="translate(-2.966 -5.55)" fill="#f6cca5"/>
    <path id="Path_3582" data-name="Path 3582" d="M27.127,34.368a10.848,10.848,0,0,0,10.127-10.73V15H17v8.637A10.848,10.848,0,0,0,27.127,34.368Z" transform="translate(-1.873 -2.185)" fill="#f6cca5"/>
    <path id="Path_3583" data-name="Path 3583" d="M15,12.971a10.971,10.971,0,1,1,21.941,0Z" transform="translate(-1.561 -0.156)" fill="#f5ac41"/>
    <path id="Path_3584" data-name="Path 3584" d="M26.549,2.025A10.962,10.962,0,0,0,16,12.975H37.1A10.962,10.962,0,0,0,26.549,2.025Z" transform="translate(-1.717 -0.16)" fill="#f3c05f"/>
    <path id="Path_3585" data-name="Path 3585" d="M15,15l1.133,2.264a5.063,5.063,0,0,0,4.528,2.8h10.62a5.064,5.064,0,0,0,4.529-2.8L36.941,15Z" transform="translate(-1.561 -2.185)" fill="#f5ac41"/>
    <path id="Path_3586" data-name="Path 3586" d="M17,16v.226a3.15,3.15,0,0,0,3.149,3.149H34.377a5.046,5.046,0,0,0,1.744-1.955L36.832,16Z" transform="translate(-1.873 -2.341)" fill="#f3c05f"/>
    <g id="Group_85426" data-name="Group 85426" transform="translate(16.835 33.912)">
      <path id="Path_3587" data-name="Path 3587" d="M36.039,40.744,33.063,40h-.023L28,45.063,32.357,47.6Z" transform="translate(-20.425 -40)" fill="#cecece"/>
      <path id="Path_3588" data-name="Path 3588" d="M22.23,47.6,26.6,45.063,21.535,40l-2.511.628Z" transform="translate(-19.024 -40)" fill="#cecece"/>
    </g>
    <path id="Path_3589" data-name="Path 3589" d="M30.751,8.688A1.687,1.687,0,0,0,29.063,7H25.688a1.688,1.688,0,1,0,0,3.376h3.376A1.687,1.687,0,0,0,30.751,8.688Z" transform="translate(-2.966 -0.937)" fill="#e04b4b"/>
    <path id="Path_3590" data-name="Path 3590" d="M29.22,7H25.844a1.679,1.679,0,0,0-.692.152,1.681,1.681,0,0,0,1.536,2.38h3.376a1.679,1.679,0,0,0,.692-.152A1.681,1.681,0,0,0,29.22,7Z" transform="translate(-3.122 -0.937)" fill="#ea5b5a"/>
    <path id="Path_3591" data-name="Path 3591" d="M34,54H54.254v6.751H34Z" transform="translate(-4.527 -8.273)" fill="#cecece"/>
    <path id="Path_3592" data-name="Path 3592" d="M42,54h6.751v3.376H42Z" transform="translate(-5.776 -8.273)" fill="#aeb3b8"/>
    <g id="Group_85427" data-name="Group 85427" transform="translate(5 1)">
      <path id="Path_3593" data-name="Path 3593" d="M30.751,31H29.063a1.689,1.689,0,1,1-3.376,0H24a3.376,3.376,0,1,0,6.751,0Z" transform="translate(-7.966 -5.683)"/>
      <path id="Path_3594" data-name="Path 3594" d="M21,23h1.688v2.532H21Z" transform="translate(-7.498 -4.434)"/>
      <path id="Path_3595" data-name="Path 3595" d="M33,23h1.688v2.532H33Z" transform="translate(-9.371 -4.434)"/>
      <path id="Path_3596" data-name="Path 3596" d="M25.532,11.063h3.376a2.532,2.532,0,1,0,0-5.063H25.532a2.532,2.532,0,1,0,0,5.063Zm0-3.376h3.376a.844.844,0,1,1,0,1.688H25.532a.844.844,0,0,1,0-1.688Z" transform="translate(-7.81 -1.78)"/>
      <path id="Path_3597" data-name="Path 3597" d="M49.727,44.883H43.82V43.218a8.424,8.424,0,0,0-6.393-8.187l-7.11-1.777V31.5a11.676,11.676,0,0,0,5.463-6.928h.445a3.376,3.376,0,0,0,0-6.751v-5a11.815,11.815,0,0,0-23.629,0v5a3.376,3.376,0,1,0,0,6.751h.445A11.681,11.681,0,0,0,18.5,31.5v1.757l-7.11,1.777A8.425,8.425,0,0,0,5,43.218v9.26a.843.843,0,0,0,.844.844H49.727a.843.843,0,0,0,.844-.844V45.727A.843.843,0,0,0,49.727,44.883ZM37.068,46.571h5.063v1.688H37.068ZM30.9,35.138l-2.5,5.2-2.672-1.48,4.01-4.01Zm7.015-13.944a1.69,1.69,0,0,1-1.688,1.688h-.1a11.412,11.412,0,0,0,.1-1.43V19.505A1.691,1.691,0,0,1,37.912,21.194ZM24.41,2.688a10.135,10.135,0,0,1,10.084,9.283H14.326A10.135,10.135,0,0,1,24.41,2.688Zm9.605,10.971L33.494,14.7a4.2,4.2,0,0,1-3.774,2.333H19.1A4.2,4.2,0,0,1,15.326,14.7L14.8,13.659ZM12.6,22.882a1.688,1.688,0,1,1,0-3.376v1.947a11.409,11.409,0,0,0,.1,1.429Zm1.688-1.43V16.228A5.867,5.867,0,0,0,19.1,18.722H29.72a5.867,5.867,0,0,0,4.817-2.494v5.224a10.129,10.129,0,0,1-20.254,0ZM24.41,33.068a11.92,11.92,0,0,0,4.22-.779v1.273l-4.22,4.22-4.22-4.22V32.289A11.92,11.92,0,0,0,24.41,33.068Zm-5.323,1.778L23.037,38.8,20.42,40.312l-2.393-5.2Zm-12.4,8.372a6.741,6.741,0,0,1,5.114-6.55l4.559-1.14,2.914,6.332a.842.842,0,0,0,1.189.378l3.1-1.8V51.634H13.439V45.727H11.751v5.907H6.688Zm21.941,2.509v5.907H25.254V40.527l3.1,1.719a.839.839,0,0,0,.408.105.865.865,0,0,0,.257-.04.846.846,0,0,0,.5-.439l3.041-6.317,4.448,1.112a6.742,6.742,0,0,1,5.114,6.55v1.665H29.473A.843.843,0,0,0,28.629,45.727Zm20.254,5.907H30.317V46.571h5.063V49.1a.843.843,0,0,0,.844.844h6.751a.843.843,0,0,0,.844-.844V46.571h5.063Z" transform="translate(-5 -1)"/>
    </g>
  </g>
</svg>
