<svg xmlns="http://www.w3.org/2000/svg" width="48.454" height="46.104" viewBox="0 0 48.454 46.104">
  <g id="bicycle_2_" data-name="bicycle (2)" transform="translate(0 -12.413)">
    <g id="Group_90949" data-name="Group 90949" transform="translate(0 12.413)">
      <g id="Group_90948" data-name="Group 90948" transform="translate(0 0)">
        <path id="Path_158317" data-name="Path 158317" d="M47.14,50.917a.946.946,0,0,0-1.239.505A8.5,8.5,0,0,1,29.738,49.8c0-.015,0-.03,0-.045a4.72,4.72,0,0,0-.156-1.206q-.01-.206-.01-.414a8.507,8.507,0,0,1,5.3-7.868l2.287,8.125a.946.946,0,0,0,1.822-.513l-2.287-8.125a8.5,8.5,0,0,1,9.165,4.988.946.946,0,0,0,1.735-.757,10.394,10.394,0,0,0-11.416-6.062l-.081-.288a21.57,21.57,0,0,1-.613-2.961h0q-.117-.867-.164-1.743a.947.947,0,0,0,.928.761h1.293a3.247,3.247,0,1,0,0-6.493H34.7l-7.258-6.431a4.263,4.263,0,1,0-2.466-1.9,5.28,5.28,0,0,0-5.914,1.073l-7.749,7.749-.006.007a.951.951,0,0,0-.071.081l-.008.01,0,0a4.263,4.263,0,0,0-.833,2.284H8.534a.946.946,0,0,0-.946.946v1.158a3.578,3.578,0,0,0,3.574,3.574h1.122l-.485,2.1A10.383,10.383,0,0,0,4.415,56.624H.946a.946.946,0,0,0,0,1.893h9.44a10.4,10.4,0,0,0,10.24-8.649.946.946,0,0,0,.938.829H28A10.419,10.419,0,0,0,32.1,56.624H26.088a.946.946,0,0,0,0,1.893H38.068a10.369,10.369,0,0,0,9.577-6.361A.947.947,0,0,0,47.14,50.917ZM35.287,29.085h2.251a1.354,1.354,0,1,1,0,2.708H36.246a.946.946,0,0,0-.941.849q-.017-.428-.017-.857v-2.7Zm-1.8,4.767H24c-.152-.181-.311-.356-.479-.525L20.54,30.345l3.929-3.929L33.422,32.9Q33.445,33.377,33.486,33.852Zm-1.4,1.893L26.291,41l-.553-3.434,0-.02a8.01,8.01,0,0,0-.554-1.8Zm-3.462-21.44a2.366,2.366,0,1,1-2.366,2.366A2.369,2.369,0,0,1,28.627,14.306ZM20.4,21.272a3.382,3.382,0,0,1,4.783,0l8.212,7.293v1.979l-8.469-6.134a.946.946,0,0,0-1.224.1l-4.78,4.78-3.158-.872L13.8,27.872Zm-9.24,12.58A1.683,1.683,0,0,1,9.48,32.171V31.96h1.136a5.6,5.6,0,0,0,1,1.893Zm-.775,22.772a8.494,8.494,0,1,1,.982-16.93l-1.9,8.223a.946.946,0,0,0,.922,1.16h8.441A8.506,8.506,0,0,1,10.386,56.624Zm1.191-9.44,1.636-7.063a8.516,8.516,0,0,1,5.615,7.063Zm2.065-8.917.581-2.509,4.536,2.619,1.489,6.493A10.435,10.435,0,0,0,13.642,38.267Zm6.869-.715a.947.947,0,0,0-.449-.608l-6.127-3.538a3.535,3.535,0,0,1-1.592-2.322,2.907,2.907,0,0,1,.1-1.624l2.756.761,3.511.969,3.475,3.475a6.078,6.078,0,0,1,1.687,3.21l1.15,7.144h-2.8Zm2,11.253V46.912h2.5a2.844,2.844,0,0,1,2.677,1.893Zm5.388-2.8a4.74,4.74,0,0,0-.889-.544l-.36-2.238,7.256-6.573q.159.749.366,1.489l.081.289A10.425,10.425,0,0,0,27.9,46.009Z" transform="translate(0 -12.413)" fill="#fff"/>
      </g>
    </g>
    <g id="Group_90951" data-name="Group 90951" transform="translate(46.561 47.184)">
      <g id="Group_90950" data-name="Group 90950" transform="translate(0 0)">
        <path id="Path_158318" data-name="Path 158318" d="M492.945,379.833a.946.946,0,0,0-.946.946v.044a.946.946,0,0,0,.944.949h0a.946.946,0,0,0,.946-.944v-.05A.947.947,0,0,0,492.945,379.833Z" transform="translate(-491.999 -379.833)" fill="#fff"/>
      </g>
    </g>
    <g id="Group_90953" data-name="Group 90953" transform="translate(21.419 56.625)">
      <g id="Group_90952" data-name="Group 90952">
        <path id="Path_158319" data-name="Path 158319" d="M227.945,479.864a.946.946,0,1,0,.277.669A.948.948,0,0,0,227.945,479.864Z" transform="translate(-226.33 -479.587)" fill="#fff"/>
      </g>
    </g>
  </g>
</svg>
