<svg xmlns="http://www.w3.org/2000/svg" xmlns:xlink="http://www.w3.org/1999/xlink" width="63.207" height="63.766" viewBox="0 0 63.207 63.766">
  <defs>
    <linearGradient id="linear-gradient" x1="0.592" y1="1.321" x2="0.576" y2="-1.05" gradientUnits="objectBoundingBox">
      <stop offset="0" stop-color="#004aad"/>
      <stop offset="1" stop-color="#00b76c"/>
    </linearGradient>
    <filter id="Path_158153" x="0" y="0" width="63.207" height="63.766" filterUnits="userSpaceOnUse">
      <feOffset dy="3" input="SourceAlpha"/>
      <feGaussianBlur stdDeviation="3" result="blur"/>
      <feFlood flood-opacity="0.161"/>
      <feComposite operator="in" in2="blur"/>
      <feComposite in="SourceGraphic"/>
    </filter>
  </defs>
  <g id="taxi_1_" data-name="taxi (1)" transform="translate(5.873 6)">
    <g id="Group_90711" data-name="Group 90711" transform="translate(3.127 0)">
      <g transform="matrix(1, 0, 0, 1, -9, -6)" filter="url(#Path_158153)">
        <path id="Path_158153-2" data-name="Path 158153" d="M45.076,5.579c1.48-7.832-8.037-6.633-14.726-1.242-4.775,3.849-11.62-.246-17.226.62C7.9,5.765,8.244,10.62,8.048,15.64c-.139,3.555-4.22,8.208-4.77,11.774C2.089,35.124,8.139,39.186,13.746,40.089c3.742.6,8.434-1.867,11.574,1.066,10.252,9.577,19.4,2.222,21.871-3.923C51.227,27.2,43.124,15.909,45.076,5.579Z" transform="translate(5.87 6)" opacity="0.34" fill="url(#linear-gradient)"/>
      </g>
    </g>
    <g id="Group_90752" data-name="Group 90752" transform="translate(6.162 3.92)">
      <g id="Group_90746" data-name="Group 90746" transform="translate(3.512)">
        <g id="Group_90744" data-name="Group 90744">
          <path id="Path_158154" data-name="Path 158154" d="M112.6,88.476v-.3a.707.707,0,0,0-.707-.707h-2.467a.708.708,0,0,0-.5.207l-.083.082-1.016-3.648a4.355,4.355,0,0,0-.541-1.2,22.026,22.026,0,0,0,2.832-.192,2.216,2.216,0,0,0,1.893-1.892,22.658,22.658,0,0,0,0-5.908,2.216,2.216,0,0,0-1.893-1.892,22.722,22.722,0,0,0-5.906,0,2.216,2.216,0,0,0-1.893,1.892,21.623,21.623,0,0,0-.186,2.375.89.89,0,0,0-.292-.05h-1.649a2.452,2.452,0,0,1-1.749-.735,2.035,2.035,0,0,0-2.9,0,2.452,2.452,0,0,1-1.749.735H92.137a.894.894,0,0,0-.894.894v2.78h-.889a4.364,4.364,0,0,0-4.2,3.193l-1.016,3.648-.083-.083a.707.707,0,0,0-.5-.207H82.085a.707.707,0,0,0-.707.707v.3a1.314,1.314,0,0,0,1.314,1.314H84.57l-1.761,1.171a3.207,3.207,0,0,0-1.431,2.671v8.235a4.966,4.966,0,0,0,.395,1.944v3.223A1.228,1.228,0,0,0,83,108.263h3.139a1.228,1.228,0,0,0,1.228-1.228v-.011a85.856,85.856,0,0,0,9.619.452,85.856,85.856,0,0,0,9.619-.452v.011a1.228,1.228,0,0,0,1.228,1.228h3.139a1.228,1.228,0,0,0,1.228-1.228v-3.223a4.967,4.967,0,0,0,.395-1.944V93.632a3.207,3.207,0,0,0-1.431-2.671L109.4,89.79h1.878A1.314,1.314,0,0,0,112.6,88.476Z" transform="translate(-80.931 -70.247)" fill="#0000cb" opacity="0.1"/>
          <g id="Group_90742" data-name="Group 90742" transform="translate(0.447 4.498)">
            <g id="Group_90722" data-name="Group 90722" transform="translate(0 12.9)">
              <g id="Group_90714" data-name="Group 90714" transform="translate(0.395 11.738)">
                <g id="Group_90712" data-name="Group 90712" transform="translate(24.834)">
                  <path id="Path_158155" data-name="Path 158155" d="M367.984,376.54h-3.139a1.228,1.228,0,0,1-1.228-1.228v-5.507h5.595v5.507A1.228,1.228,0,0,1,367.984,376.54Z" transform="translate(-363.617 -369.805)" fill="#6582fd"/>
                </g>
                <g id="Group_90713" data-name="Group 90713">
                  <path id="Path_158156" data-name="Path 158156" d="M90.16,376.54H87.021a1.228,1.228,0,0,1-1.228-1.228v-5.507h5.595v5.507A1.228,1.228,0,0,1,90.16,376.54Z" transform="translate(-85.793 -369.805)" fill="#6582fd"/>
                </g>
              </g>
              <path id="Path_158157" data-name="Path 158157" d="M109.4,238.493H84.57l-1.761,1.171a3.207,3.207,0,0,0-1.431,2.671v8.235a4.971,4.971,0,0,0,4.178,4.91,73.911,73.911,0,0,0,11.431.7,73.911,73.911,0,0,0,11.431-.7,4.971,4.971,0,0,0,4.178-4.91v-8.235a3.207,3.207,0,0,0-1.431-2.671Z" transform="translate(-81.378 -238.493)" fill="#6582fd"/>
              <path id="Path_158158" data-name="Path 158158" d="M108.463,351.3h-1.83a2.189,2.189,0,0,0-1.9,1.1h0a1.179,1.179,0,0,1-.9.584,18.331,18.331,0,0,1-1.966.1H92.1a18.331,18.331,0,0,1-1.966-.1,1.179,1.179,0,0,1-.9-.584,2.189,2.189,0,0,0-1.9-1.1h-1.83a3.769,3.769,0,0,1-2.038-.595,10.026,10.026,0,0,1-2.1-1.72v2.2a4.972,4.972,0,0,0,4.179,4.91,73.925,73.925,0,0,0,11.43.7,73.911,73.911,0,0,0,11.431-.7,4.971,4.971,0,0,0,4.178-4.91v-2.2a10.025,10.025,0,0,1-2.1,1.72A3.77,3.77,0,0,1,108.463,351.3Z" transform="translate(-81.379 -339.113)" fill="#fff"/>
              <g id="Group_90721" data-name="Group 90721" transform="translate(2.826 13.613)">
                <g id="Group_90718" data-name="Group 90718">
                  <g id="Group_90715" data-name="Group 90715">
                    <path id="Path_158159" data-name="Path 158159" d="M113.415,390.79h2.044a1.651,1.651,0,0,1,1.5.96l.29.629a.341.341,0,0,1-.31.484h-.277l-1.2-.268-1.1.268a1.085,1.085,0,0,1-1.006-.68l-.33-.82A.417.417,0,0,1,113.415,390.79Z" transform="translate(-112.997 -390.79)" fill="#6582fd"/>
                  </g>
                  <g id="Group_90716" data-name="Group 90716" transform="translate(21.282)">
                    <path id="Path_158160" data-name="Path 158160" d="M354.955,390.79h-2.044a1.651,1.651,0,0,0-1.5.96l-.29.629a.341.341,0,0,0,.31.484h.277l1.2-.268,1.1.268a1.085,1.085,0,0,0,1.006-.68l.33-.82A.417.417,0,0,0,354.955,390.79Z" transform="translate(-351.09 -390.79)" fill="#6582fd"/>
                  </g>
                  <g id="Group_90717" data-name="Group 90717" transform="translate(1.269 0.876)">
                    <path id="Path_158161" data-name="Path 158161" d="M129.592,401.785a1.2,1.2,0,0,0-2.395,0Z" transform="translate(-127.197 -400.588)" fill="#004aad"/>
                  </g>
                </g>
                <g id="Group_90720" data-name="Group 90720" transform="translate(21.901 0.876)">
                  <g id="Group_90719" data-name="Group 90719">
                    <path id="Path_158162" data-name="Path 158162" d="M358.013,401.785a1.2,1.2,0,1,1,2.395,0Z" transform="translate(-358.013 -400.588)" fill="#004aad"/>
                  </g>
                </g>
              </g>
            </g>
            <g id="Group_90739" data-name="Group 90739" transform="translate(0 4.032)">
              <path id="Path_158163" data-name="Path 158163" d="M117.088,238.493a10.7,10.7,0,0,0,5.313,6.239h14.208a10.7,10.7,0,0,0,5.313-6.239Z" transform="translate(-113.896 -229.625)" fill="#fff"/>
              <g id="Group_90723" data-name="Group 90723" transform="translate(7.339 10.741)">
                <path id="Path_158164" data-name="Path 158164" d="M165.057,260.694h-1.4a.179.179,0,0,1-.179-.179v-.442a.626.626,0,0,1,.626-.626h.505a.626.626,0,0,1,.626.626v.442A.179.179,0,0,1,165.057,260.694Z" transform="translate(-163.479 -259.448)" fill="#6582fd"/>
                <path id="Path_158165" data-name="Path 158165" d="M330.448,260.694h-1.4a.179.179,0,0,1-.179-.179v-.442a.626.626,0,0,1,.626-.626H330a.626.626,0,0,1,.626.626v.442A.179.179,0,0,1,330.448,260.694Z" transform="translate(-314.086 -259.448)" fill="#6582fd"/>
              </g>
              <g id="Group_90734" data-name="Group 90734">
                <g id="Group_90733" data-name="Group 90733">
                  <g id="Group_90732" data-name="Group 90732">
                    <g id="Group_90731" data-name="Group 90731">
                      <g id="Group_90730" data-name="Group 90730">
                        <g id="Group_90724" data-name="Group 90724" transform="translate(0 6.551)">
                          <path id="Path_158166" data-name="Path 158166" d="M373.561,214.21l1.427-1.427a.707.707,0,0,1,.5-.207h2.467a.707.707,0,0,1,.707.707v.3a1.314,1.314,0,0,1-1.314,1.314h-3.786Z" transform="translate(-347.444 -212.576)" fill="#fff"/>
                          <path id="Path_158167" data-name="Path 158167" d="M86.478,214.21l-1.427-1.427a.707.707,0,0,0-.5-.207H82.085a.707.707,0,0,0-.707.707v.3a1.314,1.314,0,0,0,1.314,1.314h3.786v-.683Z" transform="translate(-81.378 -212.576)" fill="#fff"/>
                        </g>
                        <path id="Path_158168" data-name="Path 158168" d="M141.922,148.154H117.088l1.58-5.675a4.364,4.364,0,0,1,4.2-3.193h13.266a4.364,4.364,0,0,1,4.2,3.193Z" transform="translate(-113.896 -139.286)" fill="#6582fd"/>
                        <path id="Path_158169" data-name="Path 158169" d="M161.014,160.472H160.4l-3.238-.268-3.238.268h-3.139l-3.238-.268-3.238.268h-.616a1.511,1.511,0,0,1-1.455-1.916l.573-2.059a3.033,3.033,0,0,1,2.912-2.211h13.266A3.033,3.033,0,0,1,161.9,156.5l.573,2.059A1.511,1.511,0,0,1,161.014,160.472Z" transform="translate(-136.742 -152.945)" fill="#fff"/>
                        <g id="Group_90729" data-name="Group 90729" transform="translate(7.562 3.987)">
                          <g id="Group_90726" data-name="Group 90726">
                            <g id="Group_90725" data-name="Group 90725">
                              <path id="Path_158170" data-name="Path 158170" d="M172.457,187.427H165.98l.612-2.482a1.392,1.392,0,0,1,1.352-1.058h2.549a1.393,1.393,0,0,1,1.352,1.058Z" transform="translate(-165.98 -183.886)" fill="#6582fd"/>
                            </g>
                          </g>
                          <path id="Path_158171" data-name="Path 158171" d="M188.557,196.574H186.82a.557.557,0,0,1,0-1.114h1.737a.557.557,0,0,1,0,1.114Z" transform="translate(-184.45 -194.425)" fill="#fff"/>
                          <g id="Group_90728" data-name="Group 90728" transform="translate(9.616)">
                            <g id="Group_90727" data-name="Group 90727">
                              <path id="Path_158172" data-name="Path 158172" d="M280.037,187.427H273.56l.612-2.482a1.393,1.393,0,0,1,1.352-1.058h2.549a1.392,1.392,0,0,1,1.352,1.058Z" transform="translate(-273.56 -183.886)" fill="#6582fd"/>
                            </g>
                          </g>
                          <path id="Path_158173" data-name="Path 158173" d="M296.137,196.574H294.4a.557.557,0,1,1,0-1.114h1.737a.557.557,0,1,1,0,1.114Z" transform="translate(-282.414 -194.425)" fill="#fff"/>
                        </g>
                      </g>
                    </g>
                  </g>
                </g>
              </g>
              <path id="Path_158174" data-name="Path 158174" d="M189.138,317.282h-9.767a1.788,1.788,0,0,1-1.785-1.681l-.373-6.253a1,1,0,0,1,1-1.059H190.3a1,1,0,0,1,1,1.059l-.373,6.253A1.788,1.788,0,0,1,189.138,317.282Z" transform="translate(-168.646 -293.182)" fill="#004aad"/>
              <path id="Path_158175" data-name="Path 158175" d="M188.478,325.5a.9.9,0,0,1-.892-.84l-.373-6.253a.105.105,0,0,1,.105-.112h1.53l.528.268.528-.268h1.6l.528.268.528-.268h1.6l.528.268.528-.268h1.6l.528.268.528-.268h1.53a.105.105,0,0,1,.105.112l-.373,6.253a.9.9,0,0,1-.892.841h-.37l-.528-.268-.528.268h-1.6l-.528-.268-.528.268h-1.6l-.528-.268-.528.268h-1.6l-.528-.268-.528.268Z" transform="translate(-177.752 -302.289)" fill="#fff"/>
              <g id="Group_90735" data-name="Group 90735" transform="translate(11.096 16.001)">
                <path id="Path_158176" data-name="Path 158176" d="M205.513,318.29h1.056V325.5h-1.056Z" transform="translate(-205.513 -318.29)" fill="#6582fd"/>
                <path id="Path_158177" data-name="Path 158177" d="M235.232,318.29h1.056V325.5h-1.056Z" transform="translate(-232.576 -318.29)" fill="#6582fd"/>
                <path id="Path_158178" data-name="Path 158178" d="M264.952,318.29h1.056V325.5h-1.056Z" transform="translate(-259.639 -318.29)" fill="#6582fd"/>
                <path id="Path_158179" data-name="Path 158179" d="M294.671,318.29h1.056V325.5h-1.056Z" transform="translate(-286.701 -318.29)" fill="#6582fd"/>
              </g>
              <g id="Group_90738" data-name="Group 90738" transform="translate(1.877 13.514)">
                <g id="Group_90736" data-name="Group 90736" transform="translate(23.304)">
                  <path id="Path_158180" data-name="Path 158180" d="M364.721,296.837a4.1,4.1,0,0,1-.744.2.771.771,0,0,1-.9-.763V294.8a4.06,4.06,0,0,1,1.424-3.1,13.055,13.055,0,0,1,1.528-1.107.772.772,0,0,1,1.179.6,8.685,8.685,0,0,1-.325,3.265l-1.241,1.1Z" transform="translate(-363.079 -290.476)" fill="#fff"/>
                  <path id="Path_158181" data-name="Path 158181" d="M380.1,332.419a1.632,1.632,0,0,0-2.164,2.379A3.6,3.6,0,0,0,380.1,332.419Z" transform="translate(-376.299 -328.438)" fill="#004aad"/>
                </g>
                <g id="Group_90737" data-name="Group 90737">
                  <path id="Path_158182" data-name="Path 158182" d="M104.892,296.837a4.1,4.1,0,0,0,.744.2.771.771,0,0,0,.9-.763V294.8a4.06,4.06,0,0,0-1.424-3.1,13.056,13.056,0,0,0-1.528-1.107.772.772,0,0,0-1.179.6,8.685,8.685,0,0,0,.325,3.265l1.241,1.1Z" transform="translate(-102.373 -290.476)" fill="#fff"/>
                  <path id="Path_158183" data-name="Path 158183" d="M106.35,332.419a1.632,1.632,0,0,1,2.164,2.379A3.6,3.6,0,0,1,106.35,332.419Z" transform="translate(-105.995 -328.438)" fill="#004aad"/>
                </g>
              </g>
            </g>
            <path id="Path_158184" data-name="Path 158184" d="M202.335,94.179h-9.7a.894.894,0,0,0-.894.894v3.138h11.488V95.073A.894.894,0,0,0,202.335,94.179Z" transform="translate(-181.876 -94.179)" fill="#fff"/>
            <g id="Group_90741" data-name="Group 90741" transform="translate(12.895 1.517)">
              <g id="Group_90740" data-name="Group 90740">
                <path id="Path_158185" data-name="Path 158185" d="M230.621,112.049h-4.534a.447.447,0,0,1,0-.894h4.534a.447.447,0,0,1,0,.894Z" transform="translate(-225.64 -111.155)" fill="#6582fd"/>
              </g>
            </g>
          </g>
          <g id="Group_90743" data-name="Group 90743">
            <path id="Path_158186" data-name="Path 158186" d="M323.329,56.832a22.659,22.659,0,0,0,0-5.908,2.216,2.216,0,0,0-1.893-1.892,22.721,22.721,0,0,0-5.906,0,2.216,2.216,0,0,0-1.893,1.892,22.659,22.659,0,0,0,0,5.908,2.216,2.216,0,0,0,1.893,1.892,22.721,22.721,0,0,0,5.906,0A2.216,2.216,0,0,0,323.329,56.832Z" transform="translate(-292.253 -48.393)" fill="rgba(0,74,173,0.55)"/>
            <path id="Path_158187" data-name="Path 158187" d="M108.489,59.937v-.3a1.156,1.156,0,0,0-1.154-1.154h-2.467a1.156,1.156,0,0,0-.312.043l-.856-3.074a4.817,4.817,0,0,0-.233-.65c.737-.026,1.464-.086,2.154-.18a2.667,2.667,0,0,0,2.276-2.275,23.255,23.255,0,0,0,0-6.029,2.667,2.667,0,0,0-2.276-2.275,23.325,23.325,0,0,0-6.027,0,2.667,2.667,0,0,0-2.276,2.275,23.362,23.362,0,0,0-.052,5.614H87.136V49.245a.447.447,0,0,1,.447-.447h7.432a.447.447,0,1,0,0-.894H87.583a1.342,1.342,0,0,0-1.341,1.341v2.691H85.8a4.825,4.825,0,0,0-4.634,3.52l-.856,3.074A1.16,1.16,0,0,0,80,58.488H77.531a1.156,1.156,0,0,0-1.154,1.154v.3A1.763,1.763,0,0,0,78.138,61.7h.4l-.529.352a3.646,3.646,0,0,0-1.631,3.043v1.979a.447.447,0,1,0,.894,0V65.093a2.754,2.754,0,0,1,1.232-2.3l1.648-1.1h24.564l1.648,1.1a2.754,2.754,0,0,1,1.232,2.3v8.235a4.5,4.5,0,0,1-3.8,4.469,74.8,74.8,0,0,1-11.36.693,74.787,74.787,0,0,1-11.36-.693,4.5,4.5,0,0,1-3.8-4.469V69.609a.447.447,0,1,0-.894,0v3.719a5.452,5.452,0,0,0,.395,2.042V78.5a1.677,1.677,0,0,0,1.675,1.675h3.139a1.677,1.677,0,0,0,1.6-1.195,89.661,89.661,0,0,0,9.244.408,89.661,89.661,0,0,0,9.244-.408,1.677,1.677,0,0,0,1.6,1.195h3.139a1.677,1.677,0,0,0,1.675-1.675V75.37a5.452,5.452,0,0,0,.395-2.042V65.093a3.646,3.646,0,0,0-1.631-3.043l-.529-.352h.4a1.763,1.763,0,0,0,1.761-1.761ZM79.677,60.8H78.138a.868.868,0,0,1-.867-.867v-.3a.261.261,0,0,1,.26-.26H80a.262.262,0,0,1,.072.011ZM98.2,46.444a1.77,1.77,0,0,1,1.51-1.51,22.385,22.385,0,0,1,5.786,0,1.77,1.77,0,0,1,1.511,1.51,22.319,22.319,0,0,1,0,5.787,1.77,1.77,0,0,1-1.511,1.51,22.377,22.377,0,0,1-5.786,0,1.77,1.77,0,0,1-1.511-1.51A22.323,22.323,0,0,1,98.2,46.444ZM80.6,60.8,82.027,55.7A3.929,3.929,0,0,1,85.8,52.831H97.431a2.668,2.668,0,0,0,2.163,1.8,22.5,22.5,0,0,0,2.882.195,3.9,3.9,0,0,1,.363.875l1.422,5.108Zm.981,18.473H78.447a.782.782,0,0,1-.781-.781V76.849a5.4,5.4,0,0,0,3.265,1.83q.639.1,1.34.191a.781.781,0,0,1-.685.407ZM107.2,78.5a.782.782,0,0,1-.781.781H103.28a.782.782,0,0,1-.685-.407q.7-.088,1.34-.191a5.4,5.4,0,0,0,3.265-1.83ZM105.189,60.8l-.393-1.412a.262.262,0,0,1,.072-.011h2.467a.261.261,0,0,1,.26.26v.3a.868.868,0,0,1-.867.867Z" transform="translate(-76.377 -43.853)" fill="#004aad"/>
            <path id="Path_158188" data-name="Path 158188" d="M353.117,73.667h-.692l.23-2.074a.268.268,0,0,0-.483-.188l-2.312,3.154a.268.268,0,0,0,.216.427h.692l-.23,2.074a.268.268,0,0,0,.483.188l2.312-3.154A.268.268,0,0,0,353.117,73.667Z" transform="translate(-325.367 -68.841)" fill="#fff"/>
          </g>
        </g>
        <g id="Group_90745" data-name="Group 90745" transform="translate(18.895 25.437)">
          <path id="Path_158189" data-name="Path 158189" d="M289.885,329.942h-.443l.147-1.328a.172.172,0,0,0-.309-.12l-1.48,2.019a.172.172,0,0,0,.138.273h.443l-.147,1.328a.172.172,0,0,0,.309.12l1.48-2.019A.172.172,0,0,0,289.885,329.942Z" transform="translate(-287.767 -328.423)" fill="#004aad"/>
        </g>
      </g>
      <g id="Group_90747" data-name="Group 90747" transform="translate(6.754 5.71)">
        <path id="Path_158190" data-name="Path 158190" d="M114.524,109.341a.445.445,0,0,1-.316-.131l-.4-.4-.4.4a.447.447,0,0,1-.632-.632l.715-.715a.447.447,0,0,1,.632,0l.715.715a.447.447,0,0,1-.316.763Z" transform="translate(-112.647 -107.732)" fill="#6582fd"/>
      </g>
      <g id="Group_90748" data-name="Group 90748" transform="translate(37.527 23.12)">
        <path id="Path_158191" data-name="Path 158191" d="M458.793,304.113a.445.445,0,0,1-.316-.131l-.4-.4-.4.4a.447.447,0,0,1-.632-.632l.715-.715a.447.447,0,0,1,.632,0l.715.715a.447.447,0,0,1-.316.763Z" transform="translate(-456.916 -302.504)" fill="#6582fd"/>
      </g>
      <g id="Group_90749" data-name="Group 90749" transform="translate(0 31.736)">
        <path id="Path_158192" data-name="Path 158192" d="M39.319,400.684a.447.447,0,0,1-.447-.447.447.447,0,1,0-.894,0,.447.447,0,0,1-.894,0,1.341,1.341,0,0,1,2.682,0A.447.447,0,0,1,39.319,400.684Z" transform="translate(-37.084 -398.896)" fill="#6582fd"/>
      </g>
      <g id="Group_90750" data-name="Group 90750" transform="translate(36.822 19.182)">
        <path id="Path_158193" data-name="Path 158193" d="M451.261,260.238a.447.447,0,0,1-.447-.447.447.447,0,1,0-.894,0,.447.447,0,0,1-.894,0,1.341,1.341,0,0,1,2.682,0A.447.447,0,0,1,451.261,260.238Z" transform="translate(-449.026 -258.45)" fill="#6582fd"/>
      </g>
      <g id="Group_90751" data-name="Group 90751" transform="translate(9.502 2.603)">
        <path id="Path_158194" data-name="Path 158194" d="M145.618,74.757a.447.447,0,0,1-.447-.447.447.447,0,0,0-.894,0,.447.447,0,0,1-.894,0,1.341,1.341,0,1,1,2.682,0A.447.447,0,0,1,145.618,74.757Z" transform="translate(-143.383 -72.969)" fill="#6582fd"/>
      </g>
    </g>
  </g>
</svg>
