<svg xmlns="http://www.w3.org/2000/svg" width="22.059" height="16.803" viewBox="0 0 22.059 16.803">
  <g id="car_2_" data-name="car (2)" transform="translate(0 -61)">
    <path id="Path_158262" data-name="Path 158262" d="M21.348,126.868a3.242,3.242,0,0,0-1.82-1.132l-1.631-.362-2.528-3.16A3.216,3.216,0,0,0,12.846,121H6.7a3.216,3.216,0,0,0-3,2.031l-.962,2.405-.828.276A2.8,2.8,0,0,0,0,128.369v3.617a.646.646,0,0,0,.646.646H2.219a3.232,3.232,0,0,0,6.333,0h4.955a3.232,3.232,0,0,0,6.333,0h1.573a.646.646,0,0,0,.646-.646v-3.1a3.242,3.242,0,0,0-.711-2.022Zm-10.491-4.576h1.989a1.929,1.929,0,0,1,1.514.728l1.831,2.288H10.857ZM4.9,123.511a1.929,1.929,0,0,1,1.8-1.219h2.86v3.016H4.186Zm.481,10.414a1.939,1.939,0,1,1,1.939-1.939A1.941,1.941,0,0,1,5.385,133.925Zm11.288,0a1.939,1.939,0,1,1,1.939-1.939A1.941,1.941,0,0,1,16.673,133.925Zm4.093-2.585H19.84a3.232,3.232,0,0,0-6.333,0H8.552a3.232,3.232,0,0,0-6.333,0H1.293v-2.971a1.506,1.506,0,0,1,1.031-1.431l1.013-.338H17.464l1.784.4a1.927,1.927,0,0,1,1.518,1.893Z" transform="translate(0 -57.415)" fill="#fff"/>
    <path id="Path_158263" data-name="Path 158263" d="M.646,62.293H2.8A.646.646,0,0,0,2.8,61H.646a.646.646,0,0,0,0,1.293Z" transform="translate(0)" fill="#fff"/>
    <path id="Path_158264" data-name="Path 158264" d="M.646,122.293H2.37a.646.646,0,0,0,0-1.293H.646a.646.646,0,0,0,0,1.293Z" transform="translate(0 -57.415)" fill="#fff"/>
    <path id="Path_158265" data-name="Path 158265" d="M100.646,62.293h.862a.646.646,0,1,0,0-1.293h-.862a.646.646,0,1,0,0,1.293Z" transform="translate(-95.692)" fill="#fff"/>
  </g>
</svg>
