<svg xmlns="http://www.w3.org/2000/svg" xmlns:xlink="http://www.w3.org/1999/xlink" width="53.677" height="48.787" viewBox="0 0 53.677 48.787">
  <defs>
    <clipPath id="clip-path">
      <rect id="Rectangle_26565" data-name="Rectangle 26565" width="25.309" height="48" transform="matrix(0.646, 0.763, -0.763, 0.646, 36.643, 0)" fill="#fff"/>
    </clipPath>
  </defs>
  <g id="Group_90984" data-name="Group 90984" transform="matrix(-0.998, -0.07, 0.07, -0.998, 51.514, 51.343)" clip-path="url(#clip-path)">
    <path id="Path_158404" data-name="Path 158404" d="M20.146,25.631a2.611,2.611,0,0,0-.367-.567c-1.322-1.563-4.236-1.272-6.508.651s-3.041,4.748-1.719,6.31a2.623,2.623,0,0,0,.5.456Z" fill="#0349a6"/>
    <path id="Path_158405" data-name="Path 158405" d="M23.339,29.4a2.6,2.6,0,0,1,.5.454c1.322,1.563.553,4.388-1.719,6.31s-5.186,2.213-6.508.65a2.616,2.616,0,0,1-.366-.566Z" fill="#0349a6"/>
    <path id="Path_158406" data-name="Path 158406" d="M34.129,11.723,31.763,9.866l-.444.57,2.367,1.856Z" fill="#4f555c"/>
    <path id="Path_158407" data-name="Path 158407" d="M27.928,7.391a.534.534,0,0,1,.355-.208.54.54,0,0,1,.21.013.546.546,0,0,1,.19.093l3.108,2.363a.68.68,0,0,0,.095-.388.764.764,0,0,0-.349-.526L29.424,7.233a.137.137,0,0,1-.063-.088.135.135,0,0,1,0-.055.133.133,0,0,1,.114-.106.135.135,0,0,1,.055,0,.137.137,0,0,1,.049.026L31.694,8.52a1.023,1.023,0,0,1,.461.725A.969.969,0,0,1,32,9.834a.546.546,0,0,1,.113.364.534.534,0,0,1-.5.5.543.543,0,0,1-.365-.11L28.036,8.148a.547.547,0,0,1-.21-.358A.538.538,0,0,1,27.928,7.391Z" fill="#2a363e"/>
    <path id="Path_158408" data-name="Path 158408" d="M39.382,17.935l-.636.344,1.439,2.641.636-.344Z" fill="#4f555c"/>
    <path id="Path_158409" data-name="Path 158409" d="M42.628,24.764a.533.533,0,0,0,.263-.316.543.543,0,0,0-.039-.412L41.038,20.58a.678.678,0,0,1,.4-.029.764.764,0,0,1,.461.431l1.134,2.334a.137.137,0,0,0,.077.062.134.134,0,0,0,.165-.178l-1.135-2.336a1.022,1.022,0,0,0-.639-.574.981.981,0,0,0-.607.056.545.545,0,0,0-.34-.172.534.534,0,0,0-.579.407.543.543,0,0,0,.048.378L41.9,24.532a.547.547,0,0,0,.318.266A.538.538,0,0,0,42.628,24.764Z" fill="#2a363e"/>
    <path id="Path_158410" data-name="Path 158410" d="M38.367,14.76l5.453-4.614a1.07,1.07,0,0,0,.362-.731A1.092,1.092,0,0,0,43.2,8.254a1.07,1.07,0,0,0-.781.236L36.965,13.1a1.07,1.07,0,0,0-.388.736A1.088,1.088,0,0,0,38,14.971,1.068,1.068,0,0,0,38.367,14.76Z" fill="#072129"/>
    <path id="Path_158411" data-name="Path 158411" d="M36.683,16.866l5.455-4.615a1.582,1.582,0,0,0,.555-1.085,1.615,1.615,0,0,0-1.466-1.732,1.582,1.582,0,0,0-1.162.367l-5.455,4.615a1.582,1.582,0,0,0-.555,1.085,1.615,1.615,0,0,0,1.466,1.732A1.583,1.583,0,0,0,36.683,16.866Z" fill="#0349a6"/>
    <path id="Path_158412" data-name="Path 158412" d="M36.348,16.469,41.8,11.854a1.07,1.07,0,0,0,.362-.731,1.092,1.092,0,0,0-.983-1.162,1.07,1.07,0,0,0-.781.236l-5.455,4.615a1.07,1.07,0,0,0-.362.731,1.092,1.092,0,0,0,.983,1.162A1.07,1.07,0,0,0,36.348,16.469Z" fill="#0349a6"/>
    <path id="Path_158413" data-name="Path 158413" d="M38.718,18.3l-5.341-6.313L22,21.614l5.342,6.313Z" fill="#323d44"/>
    <path id="Path_158414" data-name="Path 158414" d="M13.066,37.33,16.9,34.086a1.944,1.944,0,0,0,.681-1.333,1.985,1.985,0,0,0-1.8-2.128,1.944,1.944,0,0,0-1.427.451L10.519,34.32a1.944,1.944,0,0,0-.681,1.333,1.985,1.985,0,0,0,1.8,2.128A1.944,1.944,0,0,0,13.066,37.33Z" fill="#c9171e"/>
    <path id="Path_158415" data-name="Path 158415" d="M12.654,36.842,16.487,33.6a1.314,1.314,0,0,0,.461-.9,1.342,1.342,0,0,0-1.218-1.439,1.314,1.314,0,0,0-.965.3l-3.834,3.244a1.315,1.315,0,0,0-.461.9,1.342,1.342,0,0,0,1.217,1.439A1.314,1.314,0,0,0,12.654,36.842Z" fill="#d41920"/>
    <path id="Path_158416" data-name="Path 158416" d="M11.707,37.488a.317.317,0,0,0,.109-.215.323.323,0,0,0-.074-.231l-1.157-1.368a.322.322,0,0,0-.216-.111.31.31,0,0,0-.339.287.323.323,0,0,0,.074.231l1.157,1.368a.322.322,0,0,0,.216.111A.316.316,0,0,0,11.707,37.488Z" fill="#072129"/>
    <path id="Path_158417" data-name="Path 158417" d="M35.125,16.208a21.1,21.1,0,0,1,3.646,5.646c1.747-2.849.715-5.368-1.242-7.681s-4.271-3.748-7.37-2.5A21.09,21.09,0,0,1,35.125,16.208Z" fill="#0059cf"/>
    <path id="Path_158418" data-name="Path 158418" d="M37.554,14.174c-1.832-2.166-3.978-3.562-6.788-2.7a21.67,21.67,0,0,1,4.769,4.411A21.677,21.677,0,0,1,39.1,21.316C40.408,18.686,39.386,16.339,37.554,14.174Z" fill="#0349a6"/>
    <path id="Path_158419" data-name="Path 158419" d="M36.147,15.343a2.5,2.5,0,0,1-.585-1.809,2.453,2.453,0,0,1,.86-1.682c1.039-.879,2.152-.361,3.039.688s1.214,2.232.175,3.111a2.453,2.453,0,0,1-1.8.569A2.5,2.5,0,0,1,36.147,15.343Z" fill="#0349a6"/>
    <path id="Path_158420" data-name="Path 158420" d="M36.649,12.019a3.715,3.715,0,0,0,1.04,1.721l.292.345A3.725,3.725,0,0,0,39.507,15.4l-.05.042a2.184,2.184,0,0,1-1.586.465,2.229,2.229,0,0,1-1.994-2.356,2.184,2.184,0,0,1,.721-1.487Z" fill="#fff"/>
    <path id="Path_158421" data-name="Path 158421" d="M39.46,12.539c-.722-.853-1.592-1.355-2.451-1.04-.34.7.313,1.385,1.035,2.238s1.29,1.611,2.036,1.391A2.29,2.29,0,0,0,39.46,12.539Z" fill="#3323f1"/>
    <path id="Path_158422" data-name="Path 158422" d="M37.216,11.722c.8-.216,1.545.412,2.036.994a2.166,2.166,0,0,1,.643,2.173c-.455.055-.875-.412-1.5-1.152l-.295-.349C37.477,12.653,37.086,12.162,37.216,11.722Z" fill="#d9d7d8"/>
    <path id="Path_158423" data-name="Path 158423" d="M25.327,25.45l-.993-1.173a3.346,3.346,0,0,0-4.713-.415l-7.292,6.17a3.346,3.346,0,0,0-.371,4.717l.993,1.173a3.346,3.346,0,0,0,4.713.415l7.292-6.17A3.346,3.346,0,0,0,25.327,25.45Z" fill="#323d44"/>
    <path id="Path_158424" data-name="Path 158424" d="M24.678,25.358l-.36-.425a3.346,3.346,0,0,0-4.713-.415l-6.225,5.267a3.346,3.346,0,0,0-.371,4.717l.36.425a3.346,3.346,0,0,0,4.713.415l6.226-5.267A3.346,3.346,0,0,0,24.678,25.358Z" fill="#fff"/>
    <path id="Path_158425" data-name="Path 158425" d="M21.791,31.594l1.445-1.223a3.179,3.179,0,1,0-4.1-4.848l-1.445,1.223Z" fill="#323d44"/>
    <path id="Path_158426" data-name="Path 158426" d="M31.674,24.941a2.84,2.84,0,0,1,.941,1.112c.235.551-.092,1.318-.991,1.823L25.8,30.418s-2.762,1.164-5.361-1.907-.995-5.606-.995-5.606l3.472-5.324c.647-.8,1.458-1,1.962-.676a2.839,2.839,0,0,1,.941,1.112Z" fill="#002455"/>
    <path id="Path_158427" data-name="Path 158427" d="M24.524,29.753l5.761-3.47c1.507-1.275.765-3.345-.86-5.266s-3.542-2.994-5.05-1.719L20,24.406s-.346,1.41,1.425,3.5S24.524,29.753,24.524,29.753Z" fill="#00b76c"/>
    <path id="Path_158428" data-name="Path 158428" d="M27.33,9.536l.845-.573.594-.943s.291-.568.721-.333L31.127,8.9s.276.212-.01.593l-.523.774s.254.219-.042.532-.857-.133-.857-.133l-.441-.307s-.407-.131-1.174.4Z" fill="#fcc587"/>
    <path id="Path_158429" data-name="Path 158429" d="M26.859,19.579a6.663,6.663,0,0,1,1.628-8.847l-1-1.648s-4.806,3.275-3.767,11.491Z" fill="#00b76c"/>
    <path id="Path_158430" data-name="Path 158430" d="M28.488,10.732l-1-1.648a6.862,6.862,0,0,0-.631.529l1,1.7Q28.15,11.018,28.488,10.732Z" fill="#f58828"/>
    <path id="Path_158431" data-name="Path 158431" d="M40.4,24.985l.705-.737,1.027-.43s.608-.193.448-.656l-.928-1.816s-.164-.307-.587-.089l-.85.387s-.173-.287-.531-.047-.011.867-.011.867l.23.485s.062.423-.588,1.092Z" fill="#fcc587"/>
    <path id="Path_158432" data-name="Path 158432" d="M30.418,23.786a6.662,6.662,0,0,0,8.994-.142l1.459,1.261s-4.025,4.2-11.955,1.813Z" fill="#00b76c"/>
    <path id="Path_158433" data-name="Path 158433" d="M39.413,23.644l1.459,1.261a6.853,6.853,0,0,1-.626.535l-1.51-1.271Q39.075,23.93,39.413,23.644Z" fill="#f58828"/>
    <path id="Path_158434" data-name="Path 158434" d="M27.8,22.393c1.163,1.374,3.467,1.336,5.146-.085s2.1-3.687.936-5.062-3.467-1.336-5.147.085S26.636,21.019,27.8,22.393Z" fill="#0059cf"/>
    <path id="Path_158435" data-name="Path 158435" d="M26.549,23.451a3.761,3.761,0,0,0,5.3.178,3.761,3.761,0,0,0,.7-5.259,3.761,3.761,0,0,0-5.3-.178A3.761,3.761,0,0,0,26.549,23.451Z" fill="#004aad"/>
    <path id="Path_158436" data-name="Path 158436" d="M28.535,21.77a2.368,2.368,0,0,0,3.6-3.044,2.368,2.368,0,0,0-3.6,3.044Z" fill="#0349a6"/>
    <path id="Path_158437" data-name="Path 158437" d="M27.423,22.712a3.7,3.7,0,0,1,.288-4.862,4.363,4.363,0,0,0-.461.341,3.761,3.761,0,0,0-.7,5.259,3.761,3.761,0,0,0,5.3.179,4.368,4.368,0,0,0,.414-.4A3.7,3.7,0,0,1,27.423,22.712Z" fill="#033476"/>
  </g>
</svg>
