<svg xmlns="http://www.w3.org/2000/svg" width="27.165" height="27.165" viewBox="0 0 27.165 27.165">
  <g id="Group_87919" data-name="Group 87919" transform="translate(10039.082 5401.583)">
    <path id="Path_158037" data-name="Path 158037" d="M416,312h.97v.97H416Z" transform="translate(-10431.797 -5696.604)"/>
    <path id="Path_158038" data-name="Path 158038" d="M416,392h.97v.97H416Z" transform="translate(-10431.797 -5771.753)"/>
    <path id="Path_158039" data-name="Path 158039" d="M258.012,230.718l-.3,1.822,1.524-.843a.485.485,0,0,1,.469,0l1.524.843-.3-1.822a.485.485,0,0,1,.132-.417l1.281-1.313-1.748-.267a.485.485,0,0,1-.366-.273l-.76-1.62-.76,1.619a.485.485,0,0,1-.366.273l-1.748.267,1.281,1.313A.485.485,0,0,1,258.012,230.718Z" transform="translate(-10282.063 -5616.597)"/>
    <path id="Path_158040" data-name="Path 158040" d="M336,392h.97v.97H336Z" transform="translate(-10356.648 -5771.753)"/>
    <path id="Path_158041" data-name="Path 158041" d="M176,392h.97v.97H176Z" transform="translate(-10206.351 -5771.753)"/>
    <path id="Path_158042" data-name="Path 158042" d="M176,232h.97v.97H176Z" transform="translate(-10206.351 -5621.455)"/>
    <path id="Path_158043" data-name="Path 158043" d="M176,312h.97v.97H176Z" transform="translate(-10206.351 -5696.604)"/>
    <path id="Path_158044" data-name="Path 158044" d="M376.97,35.4V32.485a.485.485,0,1,0-.97,0V35.4a.485.485,0,0,0,.97,0Z" transform="translate(-10394.223 -5433.583)"/>
    <path id="Path_158045" data-name="Path 158045" d="M256,392h.97v.97H256Z" transform="translate(-10281.5 -5771.753)"/>
    <path id="Path_158046" data-name="Path 158046" d="M120.97,35.4V32.485a.485.485,0,0,0-.97,0V35.4a.485.485,0,0,0,.97,0Z" transform="translate(-10153.746 -5433.583)"/>
    <path id="Path_158047" data-name="Path 158047" d="M248.97,35.4V32.485a.485.485,0,1,0-.97,0V35.4a.485.485,0,1,0,.97,0Z" transform="translate(-10273.984 -5433.583)"/>
    <path id="Path_158048" data-name="Path 158048" d="M416,232h.97v.97H416Z" transform="translate(-10431.797 -5621.455)"/>
    <path id="Path_158049" data-name="Path 158049" d="M96,312h.97v.97H96Z" transform="translate(-10131.201 -5696.604)"/>
    <path id="Path_158050" data-name="Path 158050" d="M32,177.948a1.457,1.457,0,0,0,1.455,1.455H57.71a1.457,1.457,0,0,0,1.455-1.455V160H32Zm15.523-2.425a.485.485,0,0,1-.485.485H45.1a.485.485,0,0,1-.485-.485v-1.94a.485.485,0,0,1,.485-.485h1.94a.485.485,0,0,1,.485.485Zm4.851,0a.485.485,0,0,1-.485.485h-1.94a.485.485,0,0,1-.485-.485v-1.94a.485.485,0,0,1,.485-.485h1.94a.485.485,0,0,1,.485.485Zm1.94-11.642a.485.485,0,0,1,.485-.485h1.94a.485.485,0,0,1,.485.485v1.94a.485.485,0,0,1-.485.485H54.8a.485.485,0,0,1-.485-.485Zm0,4.851a.485.485,0,0,1,.485-.485h1.94a.485.485,0,0,1,.485.485v1.94a.485.485,0,0,1-.485.485H54.8a.485.485,0,0,1-.485-.485Zm0,4.851a.485.485,0,0,1,.485-.485h1.94a.485.485,0,0,1,.485.485v1.94a.485.485,0,0,1-.485.485H54.8a.485.485,0,0,1-.485-.485Zm-10.162-7.861a.485.485,0,0,1,.387-.326l2.425-.371,1.089-2.321a.485.485,0,0,1,.878,0l1.089,2.321,2.425.371a.485.485,0,0,1,.274.819l-1.769,1.813.418,2.566a.485.485,0,0,1-.713.5l-2.164-1.2-2.164,1.2a.485.485,0,0,1-.713-.5l.418-2.566-1.769-1.813a.485.485,0,0,1-.112-.493Zm-4.391-1.84a.485.485,0,0,1,.485-.485h1.94a.485.485,0,0,1,.485.485v1.94a.485.485,0,0,1-.485.485h-1.94a.485.485,0,0,1-.485-.485Zm0,4.851a.485.485,0,0,1,.485-.485h1.94a.485.485,0,0,1,.485.485v1.94a.485.485,0,0,1-.485.485h-1.94a.485.485,0,0,1-.485-.485Zm0,4.851a.485.485,0,0,1,.485-.485h1.94a.485.485,0,0,1,.485.485v1.94a.485.485,0,0,1-.485.485h-1.94a.485.485,0,0,1-.485-.485Zm-4.851-4.851a.485.485,0,0,1,.485-.485h1.94a.485.485,0,0,1,.485.485v1.94a.485.485,0,0,1-.485.485H35.4a.485.485,0,0,1-.485-.485Zm0,4.851a.485.485,0,0,1,.485-.485h1.94a.485.485,0,0,1,.485.485v1.94a.485.485,0,0,1-.485.485H35.4a.485.485,0,0,1-.485-.485Z" transform="translate(-10071.082 -5553.821)"/>
    <path id="Path_158051" data-name="Path 158051" d="M96,392h.97v.97H96Z" transform="translate(-10131.201 -5771.753)"/>
    <path id="Path_158052" data-name="Path 158052" d="M57.71,64H54.8v1.455a1.455,1.455,0,0,1-2.911,0V64H47.038v1.455a1.455,1.455,0,0,1-2.911,0V64H39.276v1.455a1.455,1.455,0,1,1-2.911,0V64H33.455A1.457,1.457,0,0,0,32,65.455v3.4H59.165v-3.4A1.457,1.457,0,0,0,57.71,64Z" transform="translate(-10071.082 -5463.642)"/>
  </g>
</svg>
