<svg xmlns="http://www.w3.org/2000/svg" width="29.325" height="27.326" viewBox="0 0 29.325 27.326">
  <path id="shopping-basket" d="M24.395,8.333v1a.315.315,0,0,1-.333.333h-3a.315.315,0,0,1-.333-.333v-1A.315.315,0,0,1,21.062,8h3A.315.315,0,0,1,24.395,8.333Zm-13.163,10a1.24,1.24,0,0,0,.233-.666,1.133,1.133,0,1,0-2.266,0c0,.633.1.467.233.666h1.8Zm21.661,4-1.6,11a2.358,2.358,0,0,1-2.3,2H10.465a2.358,2.358,0,0,1-2.3-2l-1.6-11H32.925ZM12.365,25a.666.666,0,0,0-1.333,0V32.66a.666.666,0,1,0,1.333,0Zm4,0a.666.666,0,0,0-1.333,0V32.66a.666.666,0,1,0,1.333,0Zm4,0a.666.666,0,0,0-1.333,0V32.66a.666.666,0,1,0,1.333,0Zm4,0a.666.666,0,0,0-1.333,0V32.66a.666.666,0,1,0,1.333,0Zm4,0a.666.666,0,0,0-1.333,0V32.66a.666.666,0,1,0,1.333,0ZM12.9,17.4v.933h1.566l.766-2.866L14.7,13.332a.474.474,0,0,0,.067-.2V12.066a.315.315,0,0,0-.333-.333H8.2a.315.315,0,0,0-.333.333v1.066a.35.35,0,0,0,.167.3l-.966,3.9v1h.666v-.9l1-3.966H13.9l-.966,3.866V17.4Zm3.6,2.366L19.1,10.1a.845.845,0,1,0-1.633-.433l-2.6,9.664a.845.845,0,1,0,1.633.433ZM33.359,19h-.467L23.828,21.13c-.1,0-.233.033-.333.033A1.5,1.5,0,0,1,22.029,20a1.457,1.457,0,0,1,.133-1H17.4l-.233.933a1.462,1.462,0,0,1-1.433,1.1c-.666,0-.267,0-.4-.067a1.469,1.469,0,0,1-.9-.7A1.358,1.358,0,0,1,14.3,19.13v-.167H6.1a.982.982,0,0,0-1,1v.666a.982.982,0,0,0,1,1H33.425a.982.982,0,0,0,1-1v-.666a.982.982,0,0,0-1-1Zm-10.7.866a.86.86,0,0,0,1,.633l9.731-2.3a.837.837,0,1,0-.367-1.633l-9.731,2.3a.86.86,0,0,0-.633,1ZM26.627,16.8l-.333.533a3.8,3.8,0,0,0-.5-1.333l-.4-.633A8.57,8.57,0,0,1,24.028,10.7v-.367h-3V10.7a8.57,8.57,0,0,1-1.366,4.665l-.4.633a3.744,3.744,0,0,0-.567,1.966v.367h1.333a3.744,3.744,0,0,1,.567-1.966.337.337,0,1,1,.567.367,2.988,2.988,0,0,0-.467,1.6h2.133a1,1,0,0,1,.333-.133l3.2-.766,1-.233-.7-.4Zm7.031-4.765-.3-.167a3.366,3.366,0,0,0-4.565,1.2l-.5.866,1.3.766a.489.489,0,0,1,.167.7.471.471,0,0,1-.7.167l-1.3-.766-.666,1.166,1.3.766a.448.448,0,0,1,.2.233l4.232-1h.067l1.2-2.033a1.346,1.346,0,0,0-.467-1.833Z" transform="translate(-5.1 -8)"/>
</svg>
