<svg xmlns="http://www.w3.org/2000/svg" width="25.935" height="27.853" viewBox="0 0 25.935 27.853">
  <g id="Group_87918" data-name="Group 87918" transform="translate(10465.999 5402)">
    <path id="Path_158023" data-name="Path 158023" d="M30.966,3H18.48a.48.48,0,0,0-.48.48v9.6a.48.48,0,0,0,.48.48H30.966a.48.48,0,0,0,.48-.48V3.48A.48.48,0,0,0,30.966,3ZM28.085,9.243a.48.48,0,0,1-.48.48H26.164v1.441a.48.48,0,0,1-.48.48H23.763a.48.48,0,0,1-.48-.48V9.723H21.842a.48.48,0,0,1-.48-.48V7.322a.48.48,0,0,1,.48-.48h1.441V5.4a.48.48,0,0,1,.48-.48h1.921a.48.48,0,0,1,.48.48V6.842H27.6a.48.48,0,0,1,.48.48Z" transform="translate(-10477.755 -5405)"/>
    <path id="Path_158024" data-name="Path 158024" d="M28.342,36.992a4,4,0,0,1-2.574-.932,4,4,0,0,1-2.574.932,5.116,5.116,0,0,1-3.669-.932,4,4,0,0,1-2.574.932,5.116,5.116,0,0,1-3.669-.932,5.116,5.116,0,0,1-3.669.932A4.015,4.015,0,0,1,8,36.651V47.556a.48.48,0,0,0,.48.48h2.4V39.393a.48.48,0,0,1,.48-.48H17.6a.48.48,0,0,1,.48.48v8.644H30.57a.48.48,0,0,0,.48-.48V36.651A6.177,6.177,0,0,1,28.342,36.992Zm-.653,7.683a.48.48,0,0,1-.48.48H20.486a.48.48,0,0,1-.48-.48V39.393a.48.48,0,0,1,.48-.48h6.723a.48.48,0,0,1,.48.48Z" transform="translate(-10472.558 -5422.184)"/>
    <path id="Path_158025" data-name="Path 158025" d="M11.241,19.637a1.441,1.441,0,0,1-.96-1.354V13H6.919a.48.48,0,0,0-.48.389L5,20.9a.658.658,0,0,0,0,.091,3.054,3.054,0,0,0,3.054,3.054H9.147a3.049,3.049,0,0,0,2.094-.831Z" transform="translate(-10470.996 -5410.198)"/>
    <path id="Path_158026" data-name="Path 158026" d="M25.282,27H20v3.491a3.049,3.049,0,0,0,2.094.831h1.095a3.049,3.049,0,0,0,2.094-.831Z" transform="translate(-10478.795 -5417.475)"/>
    <path id="Path_158027" data-name="Path 158027" d="M38.282,27H33v3.491a3.049,3.049,0,0,0,2.094.831h1.095a3.049,3.049,0,0,0,2.094-.831Z" transform="translate(-10485.552 -5417.475)"/>
    <path id="Path_158028" data-name="Path 158028" d="M52.243,20.9,50.8,13.389a.48.48,0,0,0-.48-.389H46.96v5.282A1.441,1.441,0,0,1,46,19.637v3.578a3.049,3.049,0,0,0,2.094.831h1.095a3.054,3.054,0,0,0,3.054-3.054A.659.659,0,0,0,52.243,20.9Z" transform="translate(-10492.309 -5410.198)"/>
  </g>
</svg>
