<svg xmlns="http://www.w3.org/2000/svg" width="30.808" height="31.066" viewBox="0 0 30.808 31.066">
  <g id="Group_87917" data-name="Group 87917" transform="translate(10576 5404)">
    <rect id="Rectangle_25918" data-name="Rectangle 25918" width="16.31" height="1.812" rx="0.906" transform="translate(-10576 -5396.492)"/>
    <path id="Path_158016" data-name="Path 158016" d="M17.955,12.307a.551.551,0,0,0-.5-.307H5.516a.551.551,0,0,0-.5.307l-.4.8H18.356Z" transform="translate(-10579.424 -5410.454)"/>
    <path id="Path_158017" data-name="Path 158017" d="M6.687,41.526h7.737A4.425,4.425,0,0,1,12.912,38.2v-.555a1.654,1.654,0,0,1,.6-1.268,2.193,2.193,0,0,1,.007-3.02,1.624,1.624,0,0,1-.6-1.114,1.644,1.644,0,0,1,.429-1.252,1.653,1.653,0,0,1-.435-1.112,7.218,7.218,0,0,1,5.357-6.961L18.416,21H4.08l1.5,19.5a1.115,1.115,0,0,0,1.106,1.025Z" transform="translate(-10579.184 -5414.46)"/>
    <path id="Path_158018" data-name="Path 158018" d="M41.972,50.555A.555.555,0,0,0,41.417,50H22.555a.555.555,0,0,0-.555.555v.555a3.332,3.332,0,0,0,3.329,3.329H38.643a3.332,3.332,0,0,0,3.329-3.329Z" transform="translate(-10587.164 -5427.373)"/>
    <path id="Path_158019" data-name="Path 158019" d="M14.785,6.439v-3a.555.555,0,0,0-.4-.533l-3.148-.9a.21.21,0,0,0-.256.142l-.191.668a.208.208,0,0,0,.143.256l2.346.67a.555.555,0,0,1,.4.533v2.16Z" transform="translate(-10582.168 -5406.002)"/>
    <path id="Path_158020" data-name="Path 158020" d="M40.862,44h-1.71a.9.9,0,0,0-.561.2L37.12,45.371a1.331,1.331,0,0,1-1.668,0L33.98,44.2a.9.9,0,0,0-.561-.2H23.11a1.11,1.11,0,1,0,0,2.219H40.862a1.11,1.11,0,1,0,0-2.219Z" transform="translate(-10587.164 -5424.701)"/>
    <path id="Path_158021" data-name="Path 158021" d="M35.869,26H28.1A6.11,6.11,0,0,0,22,32.1a.555.555,0,0,0,.555.555H41.417a.555.555,0,0,0,.555-.555,6.11,6.11,0,0,0-6.1-6.1ZM28.1,30.438h-.555a.555.555,0,0,1,0-1.11H28.1a.555.555,0,0,1,0,1.11Zm1.664-2.219h-.555a.555.555,0,0,1,0-1.11h.555a.555.555,0,1,1,0,1.11ZM33.1,29.883h-.555a.555.555,0,1,1,0-1.11H33.1a.555.555,0,0,1,0,1.11Z" transform="translate(-10587.164 -5416.687)"/>
    <path id="Path_158022" data-name="Path 158022" d="M22.555,40a.535.535,0,0,0-.385.159.544.544,0,0,0-.166.447.6.6,0,0,0,.614.5h10.8a2.017,2.017,0,0,1,1.254.439l1.471,1.174a.228.228,0,0,0,.285,0L37.9,41.549a2.017,2.017,0,0,1,1.254-.44h2.265a.532.532,0,0,0,.384-.159.543.543,0,0,0,.166-.444h0A.6.6,0,0,0,41.355,40Z" transform="translate(-10587.164 -5422.92)"/>
  </g>
</svg>
