<svg xmlns="http://www.w3.org/2000/svg" width="32.214" height="31.066" viewBox="0 0 32.214 31.066">
  <path id="needs_1_" data-name="needs (1)" d="M16.114,29.423a3.663,3.663,0,1,1,3.663-3.663,3.663,3.663,0,0,1-3.663,3.663Zm5.912,10.771a1.188,1.188,0,0,0,1.188-1.188V35.544a4.872,4.872,0,0,0-1.634-3.6,5.744,5.744,0,0,0-3.876-1.479H14.523a5.747,5.747,0,0,0-3.876,1.479,4.872,4.872,0,0,0-1.632,3.6v3.462A1.187,1.187,0,0,0,10.2,40.194h1.925v-4.65a.44.44,0,0,1,.881,0v4.65h6.214v-4.65a.44.44,0,0,1,.881,0v4.65ZM17.771,18.019V15.263a1.657,1.657,0,1,0-3.314,0v2.756Zm11.046,9.205a.729.729,0,0,0-.521.216l-.225.225a.642.642,0,0,1-.906,0l-.225-.225A.738.738,0,0,0,25.9,28.483L27.618,30.2l1.721-1.721a.737.737,0,0,0-.523-1.259Zm3.4,1.539a4.6,4.6,0,1,1-1.348-3.255,4.6,4.6,0,0,1,1.348,3.255Zm-1.787-.8a1.618,1.618,0,0,0-2.761-1.145l-.055.055-.055-.055a1.619,1.619,0,1,0-2.288,2.29L27.166,31a.642.642,0,0,0,.906,0l1.891-1.891a1.615,1.615,0,0,0,.473-1.145Zm-21.219.8a4.6,4.6,0,1,1-1.348-3.255,4.6,4.6,0,0,1,1.348,3.255Zm-1.8,0a1.032,1.032,0,0,0-1.031-1.031h-.74v-.74a1.031,1.031,0,1,0-2.062,0v.74H2.841a1.031,1.031,0,1,0,0,2.062H3.58v.74a1.031,1.031,0,1,0,2.062,0v-.74h.74a1.029,1.029,0,0,0,1.031-1.031ZM9.949,18.253A4.6,4.6,0,1,1,8.6,15a4.6,4.6,0,0,1,1.348,3.255Zm-3.166,1a1.44,1.44,0,0,0-1.438-1.439.558.558,0,1,1,.524-.745.44.44,0,1,0,.829-.293,1.44,1.44,0,0,0-.528-.694,1.419,1.419,0,0,0-.385-.193v-.381a.44.44,0,1,0-.881,0v.382a1.437,1.437,0,0,0,.44,2.806.558.558,0,1,1-.524.745.44.44,0,1,0-.829.3,1.44,1.44,0,0,0,.526.692,1.455,1.455,0,0,0,.387.193V21a.44.44,0,1,0,.881,0v-.382a1.435,1.435,0,0,0,1-1.368Zm9.735-10a.7.7,0,0,0-.806,0l-1.694,1.156-1.7,1.156-.005,0-1.689,1.152a.44.44,0,1,0,.5.726l.851-.58v4.341a.842.842,0,0,0,.2.544.724.724,0,0,0,.556.264h.851V15.264a2.538,2.538,0,1,1,5.076,0V18.02H19.5a.717.717,0,0,0,.555-.264.842.842,0,0,0,.2-.544V12.87l.851.58a.44.44,0,1,0,.5-.726l-1.689-1.152-.005,0ZM28.58,16.744H25.187a.222.222,0,0,0-.153.064.219.219,0,0,0-.064.153v.612h.105a.442.442,0,0,1,.44.44v1.75h2.738v-1.75a.442.442,0,0,1,.44-.44h.1v-.612a.212.212,0,0,0-.064-.153.216.216,0,0,0-.153-.064Zm2.909,1.509A4.6,4.6,0,1,1,30.14,15a4.6,4.6,0,0,1,1.348,3.255Zm-1.81-1.291a1.1,1.1,0,0,0-1.1-1.1H25.187a1.1,1.1,0,0,0-1.1,1.1V17.6a.852.852,0,0,0,.252.6l0,0a.879.879,0,0,0,.293.193v1.5a.747.747,0,0,0,.218.524l0,0a.742.742,0,0,0,.526.219h3.005a.738.738,0,0,0,.491-.187l.038-.032a.746.746,0,0,0,.219-.528v-1.5a.853.853,0,0,0,.291-.189l0,0a.853.853,0,0,0,.252-.6Zm-14,3.6a.44.44,0,0,0,.881,0v-1.5a.44.44,0,1,0-.881,0Zm4.275,1.231a.44.44,0,1,0,.44.761l1.869-1.079a.44.44,0,1,0-.44-.761Zm.942,5.1a.439.439,0,1,0-.227.849l1.455.391a.44.44,0,1,0,.228-.849Zm-9.326.849a.439.439,0,1,0-.227-.849l-1.455.391a.439.439,0,1,0,.227.849Zm.275-5.192a.44.44,0,1,0,.44-.761L10.41,20.713a.44.44,0,0,0-.44.761Z" transform="translate(-0.008 -9.128)" fill-rule="evenodd"/>
</svg>
