<svg xmlns="http://www.w3.org/2000/svg" width="28.295" height="28.761" viewBox="0 0 28.295 28.761">
  <g id="Group_88006" data-name="Group 88006" transform="translate(10254 5402)">
    <path id="Path_158014" data-name="Path 158014" d="M44.392,19.459l-7.08-2.7-1.789,2.36A8.551,8.551,0,0,1,35,22.056a8.446,8.446,0,0,1-1.678,2.79l1.824,6.367,3.4-.975-1.951-6.8,4.856-1.395,1.951,6.8,3.4-.975Z" transform="translate(-10272.508 -5411.825)" />
    <path id="Path_158015" data-name="Path 158015" d="M15.436,5.383l.1-.1c.061-.061.126-.111.192-.167.045-.04.091-.076.141-.116s.126-.091.187-.136.116-.081.177-.116l.182-.106c.1-.056.2-.111.3-.162a4.544,4.544,0,0,1,6.064,2.239L22.47,6.6a1.01,1.01,0,0,0-1.167.334L20.115,8.506c.035.061.066.126.1.192a8.605,8.605,0,0,1,.672,2.138L22.46,8.759l8.262,3.148.723-1.89L24.032,7.193A5.57,5.57,0,0,0,16.29,3.564c-.076.035-.141.076-.217.111a.037.037,0,0,0-.03.01c-.04.02-.081.051-.121.071-.076.04-.152.086-.222.131s-.147.1-.217.141-.157.106-.232.167c-.061.045-.116.091-.172.141-.081.066-.157.131-.232.2-.045.045-.091.091-.141.136-.076.076-.157.157-.227.238-.03.03-.056.066-.081.1A7.574,7.574,0,0,0,7.6,18.169l-.91,2.5L7.3,21.964l-1.294.606.606,1.294-1.294.606.606,1.294-1.294.606L4.01,28.084,5.349,31.8,8.76,29.812l3.608-9.91A7.572,7.572,0,0,0,15.446,5.378Zm-.2,3.669a1.517,1.517,0,1,1-1.941-1.941,5.653,5.653,0,0,0-.2,1,.507.507,0,0,0,1.011.091,4.746,4.746,0,0,1,.238-1.086A1.517,1.517,0,0,1,15.234,9.052Z" transform="translate(-10258.01 -5405.037)" />
  </g>
</svg>
