<svg xmlns="http://www.w3.org/2000/svg" width="34.4" height="31.066" viewBox="0 0 34.4 31.066">
  <path id="hood" d="M1.651,37.454l4.136,1.42a.927.927,0,0,0,.309.052.956.956,0,0,0,.9-.623l1.861-4.882A2.184,2.184,0,0,0,9,32.557l-.55-13.989a.408.408,0,0,1,.393-.426.412.412,0,0,1,.423.393l.663,16.723a.546.546,0,0,0,.546.527H25.938a.546.546,0,0,0,.546-.527l.663-16.723a.412.412,0,0,1,.423-.393.408.408,0,0,1,.393.426l-.55,13.989a2.187,2.187,0,0,0,.142.864l1.864,4.885a.956.956,0,0,0,.9.62.927.927,0,0,0,.309-.052l4.136-1.42a.966.966,0,0,0,.6-1.2c-.729-2.206-4.456-13.469-6.313-18.689a7.234,7.234,0,0,0-1.825-2.82,11.7,11.7,0,0,0-1.487-1.066.538.538,0,0,0-.618.029A14.735,14.735,0,0,1,19.9,16.183a.267.267,0,0,0-.2.306,66.8,66.8,0,0,1,1.059,8.04.41.41,0,0,1-.819,0,66.846,66.846,0,0,0-1.054-7.914.265.265,0,0,0-.27-.218c-.237.007-.583.007-.819,0a.265.265,0,0,0-.27.218,66.893,66.893,0,0,0-1.054,7.914.41.41,0,0,1-.819,0,66.816,66.816,0,0,1,1.059-8.04.267.267,0,0,0-.2-.306,14.714,14.714,0,0,1-5.215-2.48.54.54,0,0,0-.622-.027,11.744,11.744,0,0,0-1.505,1.086,7.253,7.253,0,0,0-1.8,2.8C5.507,22.782,1.78,34.045,1.051,36.251a.966.966,0,0,0,.6,1.2Zm13.5-7.934a9,9,0,0,1-2.984,2.99.4.4,0,0,1-.218.063.41.41,0,0,1-.218-.756A8.209,8.209,0,0,0,14.451,29.1a.41.41,0,1,1,.7.42Zm9.655,2.861a.41.41,0,0,1-.347.191.4.4,0,0,1-.218-.063,9,9,0,0,1-2.984-2.99.41.41,0,1,1,.7-.42,8.209,8.209,0,0,0,2.719,2.717.41.41,0,0,1,.128.565Zm-14.181,1.9a.41.41,0,0,1,.41-.41h14.34a.41.41,0,1,1,0,.819H11.035A.41.41,0,0,1,10.626,34.284Zm.6-21.723c.079.079.416.369.56.486a13.29,13.29,0,0,0,4.841,2.325.273.273,0,0,0,.331-.218c.055-.3.091-.482.1-.527a.41.41,0,0,1,.805.15c0,.013-.034.188-.088.485a.273.273,0,0,0,.265.323c.112,0,.235,0,.347,0a.273.273,0,0,0,.265-.323c-.055-.3-.086-.472-.088-.485a.41.41,0,0,1,.805-.15c.008.045.045.231.1.527a.273.273,0,0,0,.331.218,13.29,13.29,0,0,0,4.839-2.325c.144-.117.481-.407.56-.486a1,1,0,0,0,.005-1.379C24.157,9.965,22.527,7.86,20.886,7.86H15.524c-1.641,0-3.271,2.105-4.309,3.323a1,1,0,0,0,.005,1.379Zm3.195-1.876a.41.41,0,0,1,.53.235,3.871,3.871,0,0,0,1.914,1.958,2.867,2.867,0,0,0,2.692,0,3.871,3.871,0,0,0,1.914-1.958.41.41,0,1,1,.764.295A4.661,4.661,0,0,1,19.936,13.6a3.689,3.689,0,0,1-3.462,0,4.661,4.661,0,0,1-2.294-2.386.41.41,0,0,1,.235-.53Z" transform="translate(-1.005 -7.86)"/>
</svg>
