<svg xmlns="http://www.w3.org/2000/svg" xmlns:xlink="http://www.w3.org/1999/xlink" width="35.015" height="30.37" viewBox="0 0 35.015 30.37">
  <defs>
    <linearGradient id="sengo-gold-gradient" x1="0.592" y1="1.321" x2="0.576" y2="-1.05" gradientUnits="objectBoundingBox">
      <stop offset="0" stop-color="#C99400"/>
      <stop offset="1" stop-color="#F5B800"/>
    </linearGradient>
  </defs>
  <g id="coupon" transform="translate(0 -30.699)">
    <g id="Group_90702" data-name="Group 90702" transform="translate(0.151 30.85)">
      <path id="Path_158133" data-name="Path 158133" d="M17.148,92.418c.551.993-5.17,6.67-9.31,6.67A24.876,24.876,0,0,0,2,96.3l3.923-2.737c1.009.819,2.75.485,3.77-.183a1.164,1.164,0,0,0-.036-2.1l2.675-1.9A23.744,23.744,0,0,1,17.148,92.418Z" transform="translate(-1.998 -85.089)" fill="#F5B800"/>
      <path id="Path_158134" data-name="Path 158134" d="M99.905,145.811l-2.6,1.516c-1-1-1.774-1.41-2.822-.929a2.079,2.079,0,0,0-.447,3.239L90.014,152.3a25.5,25.5,0,0,0-10.836-16.068,21.316,21.316,0,0,1,9.31-6.67A38.985,38.985,0,0,1,99.905,145.811Z" transform="translate(-73.338 -122.229)" fill="url(#sengo-gold-gradient)"/>
      <g id="Group_90700" data-name="Group 90700" transform="translate(9.98 11.113)">
        <path id="Path_158135" data-name="Path 158135" d="M134.61,203.267a2.247,2.247,0,0,1,2.977.538,1.936,1.936,0,0,1-.189,2.839,2.245,2.245,0,0,1-2.976-.537A1.936,1.936,0,0,1,134.61,203.267Zm1.868,2.262a.658.658,0,0,0,.064-.964.764.764,0,0,0-1.011-.183.658.658,0,0,0-.063.964.762.762,0,0,0,1.01.182" transform="translate(-133.897 -201.147)" fill="#F5B800"/>
        <path id="Path_158136" data-name="Path 158136" d="M192.974,179.688a.768.768,0,0,1,1.139.488l2.033,8.693a.593.593,0,0,1-.218.628.768.768,0,0,1-1.139-.489l-2.033-8.693A.591.591,0,0,1,192.974,179.688Z" transform="translate(-188.285 -179.571)" fill="#F5B800"/>
        <path id="Path_158137" data-name="Path 158137" d="M240.127,235.38a2.246,2.246,0,0,1,2.977.537,1.937,1.937,0,0,1-.188,2.84,2.246,2.246,0,0,1-2.977-.538A1.936,1.936,0,0,1,240.127,235.38Zm1.868,2.262a.658.658,0,0,0,.064-.965.763.763,0,0,0-1.011-.182.658.658,0,0,0-.064.964.763.763,0,0,0,1.011.183" transform="translate(-231.429 -230.83)" fill="#F5B800"/>
      </g>
      <path id="Path_158138" data-name="Path 158138" d="M207.449,37.893c-1.813,3-9.464,3.583-12.3,2.831a47.2,47.2,0,0,0-3.616-5l4.619-1.218a3.465,3.465,0,0,0,3.54,1.506c1.186-.275,1.264-1.37.742-2.349l2.922-.969A22.525,22.525,0,0,1,207.449,37.893Z" transform="translate(-177.197 -32.698)" fill="#F5B800"/>
      <path id="Path_158139" data-name="Path 158139" d="M256.011,120.2l-2.952.516c-.048-1.058-.379-2.172-1.7-2.172a2.8,2.8,0,0,0-2.449,3.281l-4.4,1.037c-.076-8.238-1.615-14.111-5.184-19.848a20.463,20.463,0,0,1,12.3-2.831A36.053,36.053,0,0,1,256.011,120.2Z" transform="translate(-221.371 -94.985)" fill="url(#sengo-gold-gradient)"/>
      <g id="Group_90701" data-name="Group 90701" transform="translate(21.744 8.191)">
        <path id="Path_158140" data-name="Path 158140" d="M290.644,148.8a2.288,2.288,0,0,1,2.7,1.486,1.972,1.972,0,0,1-1.1,2.679,2.287,2.287,0,0,1-2.7-1.485A1.972,1.972,0,0,1,290.644,148.8Zm1.068,2.79a.67.67,0,0,0,.375-.91.778.778,0,0,0-.917-.5.67.67,0,0,0-.374.91.776.776,0,0,0,.916.5" transform="translate(-289.381 -148.125)" fill="#F5B800"/>
        <path id="Path_158141" data-name="Path 158141" d="M349.775,140.981a.782.782,0,0,1,.941.841l-.86,9.052a.6.6,0,0,1-.415.535.782.782,0,0,1-.941-.842l.86-9.052A.6.6,0,0,1,349.775,140.981Z" transform="translate(-344.024 -140.953)" fill="#F5B800"/>
        <path id="Path_158142" data-name="Path 158142" d="M382.061,214.064a2.287,2.287,0,0,1,2.7,1.485,1.973,1.973,0,0,1-1.1,2.68,2.288,2.288,0,0,1-2.7-1.486A1.972,1.972,0,0,1,382.061,214.064Zm1.068,2.79a.67.67,0,0,0,.375-.91.777.777,0,0,0-.917-.5.67.67,0,0,0-.375.91.777.777,0,0,0,.917.5" transform="translate(-373.88 -208.455)" fill="#F5B800"/>
      </g>
    </g>
    <g id="Group_90703" data-name="Group 90703" transform="translate(0 30.699)">
      <path id="Path_158143" data-name="Path 158143" d="M132.678,201.3a2.088,2.088,0,0,0-.215,3.058,2.4,2.4,0,0,0,3.182.563,2.087,2.087,0,0,0,.216-3.058A2.4,2.4,0,0,0,132.678,201.3Zm2.789,3.377a2.093,2.093,0,0,1-2.771-.511,1.788,1.788,0,0,1,.16-2.621,2.094,2.094,0,0,1,2.772.512A1.787,1.787,0,0,1,135.467,204.681Z" transform="translate(-121.922 -188.042)" fill="#C99400"/>
      <path id="Path_158144" data-name="Path 158144" d="M150.6,218.9a.808.808,0,0,0-.091,1.183.916.916,0,0,0,1.216.208.808.808,0,0,0,.092-1.183A.916.916,0,0,0,150.6,218.9Zm1.123.844c-.056.445-.656.541-.981.147a.509.509,0,0,1,.036-.746A.637.637,0,0,1,151.728,219.742Z" transform="translate(-138.928 -204.521)" fill="#C99400"/>
      <path id="Path_158145" data-name="Path 158145" d="M192.411,178.3a.918.918,0,0,0-1.375-.576.741.741,0,0,0-.276.784l2.033,8.693a.952.952,0,0,0,.915.722.74.74,0,0,0,.737-.93Zm1.579,9.233a.618.618,0,0,1-.9-.4l-2.033-8.693a.443.443,0,0,1,.16-.47.617.617,0,0,1,.9.4l2.033,8.693A.445.445,0,0,1,193.99,187.532Z" transform="translate(-176.305 -166.464)" fill="#C99400"/>
      <path id="Path_158146" data-name="Path 158146" d="M255.819,251.528a.956.956,0,0,0,.952,1.03.784.784,0,0,0,.564-1.332A.839.839,0,0,0,255.819,251.528Zm1.282-.109a.509.509,0,0,1-.036.746.637.637,0,0,1-.945-.6C256.176,251.122,256.776,251.025,257.1,251.419Z" transform="translate(-236.457 -234.212)" fill="#C99400"/>
      <path id="Path_158147" data-name="Path 158147" d="M33.05,41.529a26.135,26.135,0,0,0-6.632-10.79.152.152,0,0,0-.15-.033l-2.922.969a.151.151,0,0,0-.086.215c.495.93.41,1.887-.643,2.131a3.308,3.308,0,0,1-3.373-1.431.151.151,0,0,0-.171-.074l-4.619,1.218a.151.151,0,0,0-.079.242,40.828,40.828,0,0,1,5.543,8.537,28.189,28.189,0,0,0-9.337-7.5.167.167,0,0,0-.186,0l-2.675,1.9a.151.151,0,0,0,.011.254,1.013,1.013,0,0,1,.03,1.844c-1.018.667-2.681.93-3.591.192a.151.151,0,0,0-.182-.007L.064,41.938a.151.151,0,0,0,.039.268,24.815,24.815,0,0,1,5.81,2.773,25.429,25.429,0,0,1,10.765,15.97.151.151,0,0,0,.231.095l4.024-2.659a.151.151,0,0,0,.036-.219,1.934,1.934,0,0,1,.391-3.009,1.627,1.627,0,0,1,1.649.075c.076,1.12.119,2.281.13,3.493a.151.151,0,0,0,.186.146l4.4-1.037a.151.151,0,0,0,.111-.189,2.652,2.652,0,0,1,2.3-3.088c.977,0,1.482.663,1.544,2.027a.151.151,0,0,0,.177.142l2.952-.516a.151.151,0,0,0,.125-.14A38.218,38.218,0,0,0,33.05,41.529ZM21.236,54.881a2.2,2.2,0,0,0-.6,3.338l-3.708,2.45a26.809,26.809,0,0,0-3.583-8.6A24.489,24.489,0,0,0,.484,42.014l3.586-2.5a3.674,3.674,0,0,0,3.857-.244,1.293,1.293,0,0,0,.146-2.23L10.5,35.313a23.5,23.5,0,0,1,4.5,2.814,21.921,21.921,0,0,0-7.716,5.028.151.151,0,1,0,.217.211,21.453,21.453,0,0,1,7.778-5.018,33.289,33.289,0,0,1,5.116,5.216,31.007,31.007,0,0,1,1.085,2.96,2.338,2.338,0,0,0-2.734-.135,2.088,2.088,0,0,0-.216,3.058,2.271,2.271,0,0,0,3.7-.017,40.86,40.86,0,0,1,.757,5.443,1.9,1.9,0,0,0-1.75.008Zm.407-7.788q.26.9.472,1.826c-.391,1.4-2.32,1.594-3.358.336a1.787,1.787,0,0,1,.161-2.62A2.093,2.093,0,0,1,21.643,47.093Zm13,8.839-2.668.466c-.108-1.423-.725-2.144-1.836-2.144a2.968,2.968,0,0,0-2.632,3.32l-4.069.958c-.123-10.246-2.49-16.945-8.684-24.566l4.28-1.128a3.669,3.669,0,0,0,3.648,1.477c1.178-.273,1.421-1.33.921-2.408l2.671-.886a22.182,22.182,0,0,1,3.836,4.838,20.771,20.771,0,0,0-9.952,1.8.151.151,0,1,0,.123.277A20.16,20.16,0,0,1,30.3,36.185a36.11,36.11,0,0,1,4.342,19.748Z" transform="translate(0 -30.699)" fill="#C99400"/>
      <path id="Path_158148" data-name="Path 158148" d="M288.76,146.807a2.123,2.123,0,0,0-1.2,2.878,2.441,2.441,0,0,0,2.885,1.576,2.124,2.124,0,0,0,1.2-2.878A2.441,2.441,0,0,0,288.76,146.807Zm1.6,4.165a2.134,2.134,0,0,1-2.512-1.4,1.824,1.824,0,0,1,1.007-2.481,2.136,2.136,0,0,1,2.513,1.4A1.823,1.823,0,0,1,290.355,150.972Z" transform="translate(-265.646 -137.938)" fill="#C99400"/>
      <path id="Path_158149" data-name="Path 158149" d="M305.914,165.661a.821.821,0,0,0-.47,1.109.93.93,0,0,0,1.1.594.821.821,0,0,0,.471-1.108.93.93,0,0,0-1.1-.595Zm.542,1.414a.62.62,0,0,1-.722-.395.505.505,0,0,1,.415-.753C306.782,165.927,307.025,166.9,306.455,167.075Z" transform="translate(-282.273 -155.417)" fill="#C99400"/>
      <path id="Path_158150" data-name="Path 158150" d="M348.658,139.162a.77.77,0,0,0-1.3.5l-.86,9.052a.932.932,0,0,0,1.136,1,.753.753,0,0,0,.52-.665l.86-9.052A.956.956,0,0,0,348.658,139.162Zm.058.8-.86,9.051a.455.455,0,0,1-.309.405.631.631,0,0,1-.745-.683l.86-9.052a.469.469,0,0,1,.805-.289A.654.654,0,0,1,348.716,139.965Z" transform="translate(-320.28 -130.768)" fill="#C99400"/>
      <path id="Path_158151" data-name="Path 158151" d="M380.182,212.074a2.124,2.124,0,0,0-1.2,2.878,2.442,2.442,0,0,0,2.886,1.576,2.124,2.124,0,0,0,1.2-2.878A2.44,2.44,0,0,0,380.182,212.074Zm2.6,1.684a1.823,1.823,0,0,1-1.008,2.481,2.135,2.135,0,0,1-2.513-1.4,1.823,1.823,0,0,1,1.008-2.481A2.135,2.135,0,0,1,382.785,213.758Z" transform="translate(-350.151 -198.267)" fill="#C99400"/>
      <path id="Path_158152" data-name="Path 158152" d="M396.863,231.341a.967.967,0,0,0,.853,1.345.8.8,0,0,0,.7-1.144A.852.852,0,0,0,396.863,231.341Zm.688-.127a.666.666,0,0,1,.576.911.448.448,0,0,1-.27.236h0a.651.651,0,0,1-.721-.889A.451.451,0,0,1,397.551,231.214Z" transform="translate(-366.757 -215.765)" fill="#C99400"/>
    </g>
  </g>
</svg>
