<svg xmlns="http://www.w3.org/2000/svg" xmlns:xlink="http://www.w3.org/1999/xlink" width="114.247" height="113.102" viewBox="0 0 114.247 113.102">
  <defs>
    <linearGradient id="linear-gradient" x1="0.341" y1="0.176" x2="0.854" y2="0.791" gradientUnits="objectBoundingBox">
      <stop offset="0" stop-color="#e05024"/>
      <stop offset="1" stop-color="#922200"/>
    </linearGradient>
    <clipPath id="clip-path">
      <path id="Path_157960" data-name="Path 157960" d="M-6382.09-5789.3l-8.044-7.063-11.183,7.063-13.145,22.366,13.145,25.7,29.625,6.475,14.518-5.1,4.9-15.107,1.766-20.4-6.671-8.829-5.3,2.747-6.082,2.747Z" transform="translate(6414.461 5796.363)" fill="url(#linear-gradient)"/>
    </clipPath>
  </defs>
  <g id="Group_90439" data-name="Group 90439" transform="translate(6251.462 5845.707)">
    <g id="Auction" transform="translate(-6245.761 -5845.707)">
      <path id="Path_157959" data-name="Path 157959" d="M52.271,49.078,36.712,33.536,50,20.245,65.545,35.8Zm55.363,31.527L66.7,39.668,56.117,50.23,97.072,91.185c7,6.911,17.532-3.61,10.562-10.58ZM36.916,66.26a7.086,7.086,0,0,0,10.024,0l3.735-3.735a7.086,7.086,0,0,0,0-10.024L33.3,35.126a7.094,7.094,0,0,0-10.026,0L19.54,38.86a7.086,7.086,0,0,0,0,10.024ZM68.967,34.209a7.086,7.086,0,0,0,10.024,0l3.735-3.735a7.086,7.086,0,0,0,0-10.024L65.35,3.074a7.094,7.094,0,0,0-10.026,0L51.59,6.809a7.1,7.1,0,0,0,0,10.024ZM42.276,71.868a17,17,0,1,1-10.562-5.813c1.821,1.833,5.662,6.513,10.562,5.813ZM29.34,81.314c-4.529,0-2.208-7.565,2.162-4.111a1.764,1.764,0,1,0,2.215-2.747,7.288,7.288,0,0,0-2.605-1.382V70.823a1.772,1.772,0,0,0-3.544,0v2.251A6.03,6.03,0,0,0,29.34,84.858a2.49,2.49,0,1,1,0,4.98A2.537,2.537,0,0,1,27.177,88.6a1.771,1.771,0,1,0-3.066,1.772A6.073,6.073,0,0,0,27.567,93.1V95a1.772,1.772,0,1,0,3.544,0V93.081a6.02,6.02,0,0,0-1.772-11.767Zm27.912.6a28,28,0,0,0-5.405-15.542c-2.476,2.476-3.464,3.7-5.742,4.643A20.56,20.56,0,1,1,28.046,62.4l-6.362-6.38C13.571,57.65,1.375,67.725,1.375,82.909a27.945,27.945,0,1,0,55.881-.992Z" transform="translate(-1.375 -1)" fill="#e05024"/>
    </g>
    <g id="Mask_Group_89620" data-name="Mask Group 89620" transform="translate(-6251.462 -5794.209)" clip-path="url(#clip-path)">
      <g id="Auction-2" data-name="Auction" transform="translate(5.701 -51.498)">
        <path id="Path_157959-2" data-name="Path 157959" d="M52.271,49.078,36.712,33.536,50,20.245,65.545,35.8Zm55.363,31.527L66.7,39.668,56.117,50.23,97.072,91.185c7,6.911,17.532-3.61,10.562-10.58ZM36.916,66.26a7.086,7.086,0,0,0,10.024,0l3.735-3.735a7.086,7.086,0,0,0,0-10.024L33.3,35.126a7.094,7.094,0,0,0-10.026,0L19.54,38.86a7.086,7.086,0,0,0,0,10.024ZM68.967,34.209a7.086,7.086,0,0,0,10.024,0l3.735-3.735a7.086,7.086,0,0,0,0-10.024L65.35,3.074a7.094,7.094,0,0,0-10.026,0L51.59,6.809a7.1,7.1,0,0,0,0,10.024ZM42.276,71.868a17,17,0,1,1-10.562-5.813c1.821,1.833,5.662,6.513,10.562,5.813ZM29.34,81.314c-4.529,0-2.208-7.565,2.162-4.111a1.764,1.764,0,1,0,2.215-2.747,7.288,7.288,0,0,0-2.605-1.382V70.823a1.772,1.772,0,0,0-3.544,0v2.251A6.03,6.03,0,0,0,29.34,84.858a2.49,2.49,0,1,1,0,4.98A2.537,2.537,0,0,1,27.177,88.6a1.771,1.771,0,1,0-3.066,1.772A6.073,6.073,0,0,0,27.567,93.1V95a1.772,1.772,0,1,0,3.544,0V93.081a6.02,6.02,0,0,0-1.772-11.767Zm27.912.6a28,28,0,0,0-5.405-15.542c-2.476,2.476-3.464,3.7-5.742,4.643A20.56,20.56,0,1,1,28.046,62.4l-6.362-6.38C13.571,57.65,1.375,67.725,1.375,82.909a27.945,27.945,0,1,0,55.881-.992Z" transform="translate(-1.375 -1)" fill="url(#linear-gradient)"/>
      </g>
    </g>
  </g>
</svg>
