<svg id="Layer_x0020_1" xmlns="http://www.w3.org/2000/svg" xmlns:xlink="http://www.w3.org/1999/xlink" width="113.911" height="113.911" viewBox="0 0 113.911 113.911">
  <defs>
    <linearGradient id="linear-gradient" x1="0.293" y1="0.357" x2="0.647" y2="0.684" gradientUnits="objectBoundingBox">
      <stop offset="0" stop-color="#de3400"/>
      <stop offset="1" stop-color="#ff7247"/>
    </linearGradient>
  </defs>
  <g id="_297794400">
    <path id="_297794232" d="M56.955,0A56.955,56.955,0,1,1,0,56.955,56.955,56.955,0,0,1,56.955,0ZM52.532,8.828a2.714,2.714,0,1,1-2.714,2.714,2.714,2.714,0,0,1,2.714-2.714Zm25.23.534a4,4,0,1,1-4,4A4,4,0,0,1,77.762,9.362ZM47.348,38.068a1.017,1.017,0,1,0,0,2.034h.068a1.017,1.017,0,1,0,0-2.034Zm10.969,6.357A2.714,2.714,0,1,1,55.6,47.139,2.714,2.714,0,0,1,58.317,44.425Zm19.089-9.433a4,4,0,1,1-4,4,4,4,0,0,1,4-4ZM93.624,44.12a1.017,1.017,0,0,0,0,2.034h.068a1.017,1.017,0,0,0,0-2.034Zm6.846,9.2a5.325,5.325,0,1,1-5.325,5.325A5.325,5.325,0,0,1,100.47,53.324ZM79.241,71.174a1.017,1.017,0,1,0,0,2.034h.068a1.017,1.017,0,1,0,0-2.034ZM58.006,65.249a4,4,0,1,1-4,4A4,4,0,0,1,58.006,65.249ZM36.678,79.31A3.778,3.778,0,1,1,32.9,83.089a3.778,3.778,0,0,1,3.778-3.778ZM63.078,90.4a1.017,1.017,0,1,0,0,2.034h.068a1.017,1.017,0,0,0,0-2.034Zm-10.147,11a4,4,0,1,1-4,4A4,4,0,0,1,52.931,101.4ZM31.041,59.071a1.017,1.017,0,0,0,0,2.034h.068a1.017,1.017,0,0,0,0-2.034ZM8.9,49.815a1.017,1.017,0,1,0,0,2.034H8.97a1.017,1.017,0,1,0,0-2.034ZM22.23,42.289a4,4,0,1,1-4,4,4,4,0,0,1,4-4ZM35.49,14.524a8.009,8.009,0,1,1-8.009,8.009A8.009,8.009,0,0,1,35.49,14.524ZM95.241,83.633a10.754,10.754,0,0,0-6.8,19.081l.049-.029a34.259,34.259,0,0,0,6.049-4.862,86.3,86.3,0,0,0,8.883-10.42,10.729,10.729,0,0,0-8.176-3.769ZM5.092,77.127s1.315,3.08,2.985,6.3a57,57,0,0,0,4.116,6.4l.011.011A7.3,7.3,0,0,0,5.092,77.127Z" fill-rule="evenodd" fill="url(#linear-gradient)"/>
  </g>
</svg>
