<svg xmlns="http://www.w3.org/2000/svg" xmlns:xlink="http://www.w3.org/1999/xlink" width="196.801" height="196.801" viewBox="0 0 196.801 196.801">
  <defs>
    <linearGradient id="linear-gradient" x1="0.293" y1="0.357" x2="0.647" y2="0.684" gradientUnits="objectBoundingBox">
      <stop offset="0" stop-color="#de3400"/>
      <stop offset="1" stop-color="#ff7247"/>
    </linearGradient>
  </defs>
  <path id="sun" d="M105.973,7.572a7.572,7.572,0,0,0-15.144,0v20.18a7.572,7.572,0,0,0,15.144,0ZM39.514,28.828A7.556,7.556,0,1,0,28.828,39.514l14.26,14.26A7.556,7.556,0,1,0,53.774,43.089ZM167.973,39.514a7.556,7.556,0,0,0-10.686-10.686l-14.3,14.26a7.556,7.556,0,0,0,10.686,10.686ZM7.572,90.828a7.572,7.572,0,1,0,0,15.144h20.18a7.572,7.572,0,1,0,0-15.144Zm161.477,0a7.572,7.572,0,1,0,0,15.144h20.18a7.572,7.572,0,1,0,0-15.144ZM53.813,153.713a7.57,7.57,0,0,0-10.686-10.724l-14.3,14.3a7.57,7.57,0,0,0,10.686,10.724Zm99.9-10.724a7.583,7.583,0,1,0-10.724,10.724l14.26,14.26a7.583,7.583,0,0,0,10.724-10.724Zm-47.74,26.061a7.572,7.572,0,1,0-15.144,0v20.18a7.572,7.572,0,1,0,15.144,0ZM45.433,98.4A52.967,52.967,0,1,1,98.4,151.368,52.97,52.97,0,0,1,45.433,98.4Z" transform="translate(0)" fill="url(#linear-gradient)"/>
</svg>
