<svg width="220" height="37" viewBox="0 0 220 37" fill="none" xmlns="http://www.w3.org/2000/svg">
<path d="M8.95057 0.0247192C9.02336 0.0247192 9.06052 0.0617992 9.06052 0.134417V1.44308C9.06052 1.51569 9.02336 1.55277 8.95057 1.55277H5.79915V11.9247C5.79915 11.9973 5.76198 12.0344 5.6892 12.0344H4.37752C4.30474 12.0344 4.26757 11.9989 4.26757 11.9247V1.55277H1.10995C1.03717 1.55277 1 1.51724 1 1.44308V0.134417C1 0.0617992 1.03562 0.0247192 1.10995 0.0247192H8.95212H8.95057Z" fill="#977124"/>
<path d="M22.411 11.8737C22.4281 11.9077 22.425 11.9433 22.4033 11.9834C22.3863 12.0174 22.3553 12.0344 22.3104 12.0344H20.8144C20.7695 12.0344 20.7385 12.0143 20.7215 11.9757L17.8968 6.83532L17.9046 6.8276H15.8294V11.9C15.8294 11.9726 15.7923 12.0097 15.7195 12.0097H14.4078C14.335 12.0097 14.2979 11.9726 14.2979 11.9V0.126696C14.2979 0.0540783 14.3335 0.0169983 14.4078 0.0169983H18.8291C19.7923 0.0169983 20.6115 0.361547 21.2836 1.0491C21.9557 1.73664 22.2778 2.5617 22.25 3.52272C22.2221 4.29989 21.9557 4.98743 21.4509 5.58537C20.9522 6.16631 20.3281 6.54639 19.5771 6.72562L22.4095 11.8737H22.411ZM18.8306 5.29953C19.351 5.29953 19.797 5.11568 20.1671 4.74641C20.5372 4.37714 20.7215 3.93525 20.7215 3.42075C20.7215 2.90625 20.5372 2.45664 20.1671 2.08737C19.797 1.72428 19.3525 1.54197 18.8306 1.54197H15.831V5.29799H18.8306V5.29953Z" fill="#977124"/>
<path d="M32.889 0C32.9401 0 32.9726 0.0231747 32.9896 0.0664362L37.9065 11.8815C37.9235 11.9155 37.9204 11.9479 37.8987 11.9819C37.877 12.0159 37.8461 12.0329 37.8058 12.0329H36.4616C36.4105 12.0329 36.378 12.0112 36.361 11.9664L34.436 7.33746H30.1743L28.2493 11.9664C28.2323 12.0112 28.1982 12.0329 28.1487 12.0329H26.8045C26.7658 12.0329 26.7348 12.0159 26.7116 11.9819C26.6883 11.9479 26.6868 11.9155 26.7038 11.8815L31.6207 0.0664362C31.6423 0.0216296 31.6764 0 31.7213 0H32.889ZM33.8212 5.87739L32.3082 2.22951L30.7875 5.87739H33.8212Z" fill="#977124"/>
<path d="M51.6025 0.0169983C51.6753 0.0169983 51.7124 0.0540783 51.7124 0.126696V11.9247C51.7124 11.9973 51.6753 12.0344 51.6025 12.0344H51.0062C50.9722 12.0344 50.9443 12.0205 50.9226 11.9927L44.5098 3.44856V11.9263C44.5098 11.9989 44.4727 12.036 44.3999 12.036H43.1563C43.0836 12.036 43.0464 12.0004 43.0464 11.9263V0.128242C43.0464 0.0556248 43.082 0.0185425 43.1563 0.0185425H43.7107C43.7448 0.0185425 43.7727 0.0355384 43.7944 0.0695296L50.249 8.66466V0.128242C50.249 0.0556248 50.2846 0.0185425 50.3589 0.0185425H51.6025V0.0169983Z" fill="#977124"/>
<path d="M61.7505 5.1064C61.8574 5.1512 61.9379 5.18674 61.9936 5.2161L62.2461 5.3258C62.4427 5.42159 62.6208 5.50966 62.7834 5.59463C63.2031 5.81867 63.5593 6.05351 63.8504 6.29918C64.6294 6.95892 65.0181 7.7608 65.0181 8.70637C65.0181 9.73538 64.6681 10.545 63.9681 11.1383C63.2681 11.7362 62.3157 12.036 61.1109 12.036C60.2251 12.036 59.3904 11.8397 58.6068 11.4488C58.3327 11.3098 58.0741 11.1491 57.8341 10.9714C57.7442 10.905 57.6575 10.837 57.5739 10.7706C57.5119 10.7196 57.4562 10.6701 57.4051 10.6192C57.3493 10.5682 57.3493 10.5156 57.4051 10.46L58.3637 9.56233C58.4148 9.51752 58.4643 9.51752 58.5154 9.56233C58.5542 9.59632 58.596 9.63186 58.6409 9.67203C58.6966 9.71684 58.7586 9.76165 58.8252 9.80645C58.994 9.92388 59.1752 10.0305 59.3718 10.1247C59.9154 10.3812 60.4946 10.511 61.1109 10.511C62.6967 10.511 63.4896 9.90997 63.4896 8.70792C63.4896 8.2444 63.2883 7.83805 62.8841 7.49196C62.5418 7.19531 61.9565 6.86621 61.128 6.50313L61.1032 6.4954L60.7083 6.30227L60.4977 6.20957L60.27 6.10914C60.0904 6.02571 59.9278 5.94382 59.7822 5.86656C59.4074 5.67034 59.0869 5.46176 58.8236 5.23773C58.1237 4.63979 57.7737 3.91052 57.7737 3.04993C57.7737 2.11672 58.0896 1.38127 58.723 0.84514C59.3563 0.302826 60.2189 0.0324402 61.3122 0.0324402C62.102 0.0324402 62.8469 0.205486 63.5484 0.551578C63.7947 0.675183 64.027 0.817328 64.2453 0.979559C64.3243 1.03518 64.4017 1.0939 64.4807 1.1557C64.5365 1.20668 64.5876 1.25303 64.6325 1.29784C64.6944 1.34883 64.6944 1.40136 64.6325 1.45698L64.1617 1.90196L63.6832 2.35466C63.6321 2.39946 63.5825 2.40256 63.5314 2.36238C63.4973 2.32839 63.4617 2.29594 63.4214 2.26195C63.3703 2.22333 63.3177 2.18316 63.2619 2.14453C63.1102 2.0441 62.9538 1.95758 62.7912 1.88496C62.3266 1.66711 61.8326 1.55741 61.3122 1.55741C59.9727 1.55741 59.3037 2.05492 59.3037 3.04993C59.3037 3.44083 59.474 3.78228 59.8163 4.07275C60.1028 4.31842 60.6092 4.59808 61.337 4.91172L61.3618 4.92872L61.7489 5.11258L61.7505 5.1064Z" fill="#977124"/>
<path d="M72.346 1.54196V5.23927H76.902C76.9748 5.23927 77.0119 5.27635 77.0119 5.34897V6.66535C77.0119 6.73797 76.9748 6.77506 76.902 6.77506H72.346V11.9232C72.346 11.9958 72.3088 12.0329 72.236 12.0329H70.9166C70.8438 12.0329 70.8066 11.9973 70.8066 11.9232V0.117418C70.8066 0.0448009 70.8423 0.00772095 70.9166 0.00772095H78.2198C78.2926 0.00772095 78.3298 0.0448009 78.3298 0.117418V1.4338C78.3298 1.50642 78.2926 1.5435 78.2198 1.5435H72.3444L72.346 1.54196Z" fill="#977124"/>
<path d="M88.4378 0.0247192C90.0964 0.0247192 91.5134 0.611839 92.6903 1.78608C93.8673 2.96032 94.4557 4.37404 94.4557 6.0288C94.4557 7.68355 93.8673 9.09728 92.6903 10.2715C91.5134 11.4458 90.0964 12.0329 88.4378 12.0329C86.7793 12.0329 85.3623 11.4458 84.1853 10.2715C83.0084 9.09728 82.4199 7.68355 82.4199 6.0288C82.4199 4.37404 83.0084 2.96032 84.1853 1.78608C85.3623 0.611839 86.7793 0.0247192 88.4378 0.0247192ZM88.4378 10.4986C89.6705 10.4986 90.7267 10.0629 91.6063 9.18998C92.4797 8.31857 92.918 7.26484 92.918 6.0288C92.918 4.79275 92.4813 3.74521 91.6063 2.86762C90.7267 1.99621 89.6705 1.55896 88.4378 1.55896C87.2051 1.55896 86.1428 1.99466 85.2694 2.86762C84.3959 3.74521 83.9577 4.79893 83.9577 6.0288C83.9577 7.25866 84.3944 8.31857 85.2694 9.18998C86.1428 10.0614 87.1989 10.4986 88.4378 10.4986Z" fill="#977124"/>
<path d="M108.478 11.8737C108.495 11.9077 108.492 11.9433 108.471 11.9834C108.454 12.0174 108.423 12.0344 108.378 12.0344H106.882C106.837 12.0344 106.806 12.0143 106.789 11.9757L103.964 6.83532L103.972 6.8276H101.897V11.9C101.897 11.9726 101.86 12.0097 101.787 12.0097H100.475C100.402 12.0097 100.365 11.9726 100.365 11.9V0.126696C100.365 0.0540783 100.401 0.0169983 100.475 0.0169983H104.896C105.86 0.0169983 106.679 0.361547 107.351 1.0491C108.023 1.73664 108.345 2.5617 108.317 3.52272C108.289 4.29989 108.023 4.98743 107.518 5.58537C107.02 6.16631 106.396 6.54639 105.644 6.72562L108.477 11.8737H108.478ZM104.898 5.29953C105.418 5.29953 105.864 5.11568 106.234 4.74641C106.605 4.37714 106.789 3.93525 106.789 3.42075C106.789 2.90625 106.605 2.45664 106.234 2.08737C105.864 1.72428 105.42 1.54197 104.898 1.54197H101.898V5.29799H104.898V5.29953Z" fill="#977124"/>
<path d="M123.814 0.0247192C123.887 0.0247192 123.924 0.0617992 123.924 0.134417V11.9247C123.924 11.9973 123.887 12.0344 123.814 12.0344H122.571C122.498 12.0344 122.461 11.9989 122.461 11.9247V3.0283L119.074 6.80132C119.018 6.85694 118.964 6.85694 118.914 6.80132L115.535 3.03603V11.9247C115.535 11.9973 115.498 12.0344 115.425 12.0344H114.182C114.109 12.0344 114.072 11.9989 114.072 11.9247V0.134417C114.072 0.0617992 114.107 0.0247192 114.182 0.0247192H114.67C114.753 0.0247192 114.826 0.0587095 114.888 0.125147L118.989 4.70314L123.099 0.125147C123.161 0.0587095 123.233 0.0247192 123.317 0.0247192H123.813H123.814Z" fill="#977124"/>
<path d="M135.24 0C135.291 0 135.324 0.0231747 135.341 0.0664362L140.258 11.8815C140.275 11.9155 140.271 11.9479 140.25 11.9819C140.228 12.0159 140.197 12.0329 140.157 12.0329H138.813C138.762 12.0329 138.729 12.0112 138.712 11.9664L136.787 7.33746H132.525L130.6 11.9664C130.583 12.0112 130.549 12.0329 130.5 12.0329H129.156C129.117 12.0329 129.086 12.0159 129.063 11.9819C129.039 11.9479 129.038 11.9155 129.055 11.8815L133.972 0.0664362C133.993 0.0216296 134.027 0 134.072 0H135.24ZM136.174 5.87739L134.661 2.22951L133.14 5.87739H136.174Z" fill="#977124"/>
<path d="M152.391 0.0247192C152.463 0.0247192 152.501 0.0617992 152.501 0.134417V1.44308C152.501 1.51569 152.463 1.55277 152.391 1.55277H149.239V11.9247C149.239 11.9973 149.202 12.0344 149.129 12.0344H147.818C147.745 12.0344 147.708 11.9989 147.708 11.9247V1.55277H144.547C144.474 1.55277 144.437 1.51724 144.437 1.44308V0.134417C144.437 0.0617992 144.473 0.0247192 144.547 0.0247192H152.389H152.391Z" fill="#977124"/>
<path d="M159.169 0.0247192C159.242 0.0247192 159.279 0.0617992 159.279 0.134417V11.9247C159.279 11.9973 159.242 12.0344 159.169 12.0344H157.85C157.777 12.0344 157.74 11.9989 157.74 11.9247V0.134417C157.74 0.0617992 157.775 0.0247192 157.85 0.0247192H159.169Z" fill="#977124"/>
<path d="M170.866 0.0247192C172.524 0.0247192 173.941 0.611839 175.118 1.78608C176.295 2.96032 176.883 4.37404 176.883 6.0288C176.883 7.68355 176.295 9.09728 175.118 10.2715C173.941 11.4458 172.524 12.0329 170.866 12.0329C169.207 12.0329 167.79 11.4458 166.613 10.2715C165.436 9.09728 164.848 7.68355 164.848 6.0288C164.848 4.37404 165.436 2.96032 166.613 1.78608C167.79 0.611839 169.207 0.0247192 170.866 0.0247192ZM170.866 10.4986C172.098 10.4986 173.154 10.0629 174.034 9.18998C174.907 8.31857 175.346 7.26484 175.346 6.0288C175.346 4.79275 174.909 3.74521 174.034 2.86762C173.154 1.99621 172.098 1.55896 170.866 1.55896C169.633 1.55896 168.571 1.99466 167.697 2.86762C166.824 3.74521 166.385 4.79893 166.385 6.0288C166.385 7.25866 166.822 8.31857 167.697 9.18998C168.571 10.0614 169.627 10.4986 170.866 10.4986Z" fill="#977124"/>
<path d="M191.352 0.0169983C191.425 0.0169983 191.462 0.0540783 191.462 0.126696V11.9247C191.462 11.9973 191.425 12.0344 191.352 12.0344H190.756C190.722 12.0344 190.694 12.0205 190.672 11.9927L184.259 3.44856V11.9263C184.259 11.9989 184.222 12.036 184.149 12.036H182.906C182.833 12.036 182.796 12.0004 182.796 11.9263V0.128242C182.796 0.0556248 182.832 0.0185425 182.906 0.0185425H183.46C183.494 0.0185425 183.522 0.0355384 183.544 0.0695296L189.998 8.66466V0.128242C189.998 0.0556248 190.034 0.0185425 190.108 0.0185425H191.352V0.0169983Z" fill="#977124"/>
<path d="M202.78 0C202.831 0 202.863 0.0231747 202.88 0.0664362L207.797 11.8815C207.814 11.9155 207.811 11.9479 207.789 11.9819C207.768 12.0159 207.737 12.0329 207.696 12.0329H206.352C206.301 12.0329 206.269 12.0112 206.252 11.9664L204.327 7.33746H200.065L198.14 11.9664C198.123 12.0112 198.089 12.0329 198.039 12.0329H196.695C196.656 12.0329 196.625 12.0159 196.602 11.9819C196.58 11.9479 196.577 11.9155 196.594 11.8815L201.511 0.0664362C201.533 0.0216296 201.567 0 201.612 0H202.78ZM203.712 5.87739L202.199 2.22951L200.678 5.87739H203.712Z" fill="#977124"/>
<path d="M219.737 10.4986C219.81 10.4986 219.847 10.5357 219.847 10.6083V11.9247C219.847 11.9973 219.81 12.0344 219.737 12.0344H213.047C212.974 12.0344 212.937 11.9989 212.937 11.9247V0.126696C212.937 0.0540783 212.973 0.0169983 213.047 0.0169983H214.366C214.439 0.0169983 214.476 0.0540783 214.476 0.126696V10.4986H219.737Z" fill="#977124"/>
<path d="M73.2085 35.226C73.2472 35.2878 73.2363 35.3373 73.1744 35.3774C72.1833 36.0264 71.0869 36.3508 69.8882 36.3508C69.0474 36.3508 68.2436 36.1824 67.4755 35.8471C66.7353 35.5227 66.0864 35.0653 65.5258 34.472C64.3318 33.2205 63.7836 31.7296 63.8781 30.0022C63.9617 28.5159 64.5332 27.2319 65.5924 26.1535C66.6455 25.075 67.9169 24.4771 69.4082 24.3597C70.7756 24.2531 72.0269 24.5698 73.1651 25.3068C73.2271 25.3454 73.2379 25.3964 73.1992 25.4582L72.4589 26.5397C72.4202 26.6015 72.3691 26.6124 72.3072 26.5737C71.4663 26.0314 70.5418 25.7997 69.5336 25.8785C68.3907 25.9681 67.4182 26.4378 66.6176 27.2875C65.8216 28.1373 65.4159 29.1385 65.3988 30.2896C65.3818 31.5364 65.817 32.6041 66.7012 33.4925C67.5808 34.3809 68.6432 34.8259 69.8867 34.8259C70.7725 34.8259 71.5809 34.5879 72.3149 34.1136C72.3769 34.075 72.4264 34.0858 72.4667 34.1476L73.2069 35.2291L73.2085 35.226Z" fill="#010101"/>
<path d="M86.7451 24.3408C86.8179 24.3408 86.8551 24.3778 86.8551 24.4505V32.0398C86.8551 33.214 86.44 34.2198 85.6115 35.0588C84.783 35.8978 83.7795 36.3273 82.6026 36.3505C81.3977 36.3721 80.3633 35.9457 79.5007 35.0681C78.6381 34.2013 78.2061 33.1615 78.2061 31.9486V24.452C78.2061 24.3794 78.2417 24.3423 78.316 24.3423H79.6277C79.7005 24.3423 79.7376 24.3794 79.7376 24.452V31.9656C79.7376 32.7258 79.9947 33.3855 80.5104 33.9448C81.0369 34.5041 81.6765 34.7977 82.426 34.8255C83.2158 34.8533 83.8972 34.5937 84.4686 34.0452C85.0401 33.4921 85.3266 32.8246 85.3266 32.0413V24.452C85.3266 24.3794 85.3622 24.3423 85.4365 24.3423H86.7482L86.7451 24.3408Z" fill="#010101"/>
<path d="M97.7181 24.333C98.6876 24.333 99.5083 24.6776 100.18 25.3651C100.859 26.0589 101.184 26.8886 101.156 27.8558C101.128 28.7843 100.769 29.5723 100.08 30.2197C99.3968 30.8624 98.5869 31.1838 97.6515 31.1838H94.7014V36.2408C94.7014 36.3134 94.6643 36.3505 94.5915 36.3505H93.2721C93.1993 36.3505 93.1621 36.3149 93.1621 36.2408V24.435C93.1621 24.3686 93.1977 24.3346 93.2721 24.3346H97.7181V24.333ZM97.7181 29.6403C98.2447 29.6403 98.6922 29.4564 99.0623 29.0872C99.4324 28.7179 99.6167 28.2745 99.6167 27.7538C99.6167 27.2331 99.4324 26.7897 99.0623 26.4204C98.6922 26.0511 98.2447 25.8673 97.7181 25.8673H94.7014V29.6403H97.7181Z" fill="#010101"/>
<path d="M111.372 24.333C112.342 24.333 113.163 24.6776 113.835 25.3651C114.513 26.0589 114.838 26.8886 114.81 27.8558C114.782 28.7843 114.423 29.5723 113.734 30.2197C113.051 30.8624 112.241 31.1838 111.306 31.1838H108.356V36.2408C108.356 36.3134 108.319 36.3505 108.246 36.3505H106.926C106.854 36.3505 106.816 36.3149 106.816 36.2408V24.435C106.816 24.3686 106.852 24.3346 106.926 24.3346H111.372V24.333ZM111.372 29.6403C111.899 29.6403 112.347 29.4564 112.717 29.0872C113.087 28.7179 113.271 28.2745 113.271 27.7538C113.271 27.2331 113.087 26.7897 112.717 26.4204C112.347 26.0511 111.899 25.8673 111.372 25.8673H108.356V29.6403H111.372Z" fill="#010101"/>
<path d="M121.9 24.3408C121.973 24.3408 122.01 24.3778 122.01 24.4505V36.2408C122.01 36.3134 121.973 36.3505 121.9 36.3505H120.581C120.508 36.3505 120.471 36.3149 120.471 36.2408V24.4505C120.471 24.3778 120.506 24.3408 120.581 24.3408H121.9Z" fill="#010101"/>
<path d="M136.999 24.333C137.072 24.333 137.109 24.3701 137.109 24.4427V36.2408C137.109 36.3134 137.072 36.3505 136.999 36.3505H136.403C136.369 36.3505 136.341 36.3366 136.319 36.3088L129.906 27.7646V36.2423C129.906 36.3149 129.869 36.352 129.796 36.352H128.553C128.48 36.352 128.443 36.3165 128.443 36.2423V24.4443C128.443 24.3717 128.478 24.3346 128.553 24.3346H129.107C129.141 24.3346 129.169 24.3516 129.191 24.3856L135.645 32.9807V24.4443C135.645 24.3717 135.681 24.3346 135.755 24.3346H136.999V24.333Z" fill="#010101"/>
<path d="M153.149 30.144C153.222 30.144 153.259 30.1811 153.259 30.2537V34.2863C153.259 34.3141 153.248 34.3388 153.225 34.362L153.107 34.4871C151.969 35.6382 150.625 36.2562 149.073 36.3397C148.2 36.3845 147.359 36.25 146.552 35.9379C145.779 35.6305 145.095 35.184 144.502 34.5968C143.913 34.0051 143.466 33.3222 143.158 32.5512C142.838 31.7462 142.701 30.9072 142.746 30.0358C142.829 28.4429 143.463 27.0925 144.646 25.9863C145.827 24.88 147.22 24.3346 148.822 24.3516C150.447 24.3686 151.836 24.9495 152.991 26.0959C153.042 26.1469 153.039 26.1995 152.983 26.2551L152.042 27.1698C151.991 27.2146 151.941 27.2115 151.89 27.162C150.976 26.2674 149.878 25.8426 148.596 25.8874C147.464 25.9214 146.484 26.3354 145.654 27.128C144.824 27.9222 144.369 28.8801 144.283 30.0034C144.183 31.3121 144.578 32.443 145.468 33.3994C146.358 34.3496 147.452 34.8255 148.746 34.8255C149.889 34.8255 150.882 34.4485 151.721 33.693V31.672H149.762C149.69 31.672 149.652 31.6365 149.652 31.5623V30.2537C149.652 30.1811 149.69 30.144 149.762 30.144H153.149Z" fill="#010101"/>
<path d="M157.828 29.2772C157.232 28.6793 156.935 27.9577 156.935 27.1157C156.935 26.2736 157.232 25.5552 157.828 24.9603C158.427 24.3624 159.151 24.0627 159.995 24.0627C160.839 24.0627 161.559 24.3624 162.155 24.9603C162.754 25.5552 163.055 26.2721 163.055 27.1157C163.055 27.9593 162.754 28.6777 162.155 29.2772C161.559 29.8721 160.839 30.1687 159.995 30.1687C159.151 30.1687 158.429 29.8721 157.828 29.2772ZM158.259 25.3914C157.779 25.8657 157.539 26.4405 157.539 27.1157C157.539 27.7909 157.779 28.3687 158.259 28.8477C158.739 29.3267 159.316 29.5661 159.995 29.5661C160.673 29.5661 161.247 29.3267 161.723 28.8477C162.203 28.3687 162.443 27.7924 162.443 27.1157C162.443 26.4389 162.203 25.8657 161.723 25.3914C161.247 24.9124 160.671 24.673 159.995 24.673C159.318 24.673 158.739 24.9124 158.259 25.3914ZM160.933 28.4877C160.967 28.4877 160.993 28.4722 161.011 28.4429C161.028 28.4166 161.029 28.3888 161.017 28.3594L160.535 27.3459C160.685 27.2686 160.803 27.1574 160.888 27.0122C160.978 26.8623 161.017 26.7001 161.004 26.5255C160.987 26.3076 160.893 26.1222 160.721 25.9677C160.554 25.8225 160.357 25.7499 160.129 25.7499H159.179C159.118 25.7499 159.089 25.7777 159.089 25.8333V28.3981C159.089 28.4583 159.118 28.4877 159.179 28.4877H159.609C159.669 28.4877 159.699 28.4583 159.699 28.3981V27.4293H159.905L160.38 28.4367C160.393 28.4707 160.419 28.4877 160.458 28.4877H160.933ZM159.699 26.3524H160.162C160.227 26.3524 160.281 26.3756 160.329 26.4235C160.376 26.4698 160.4 26.5255 160.4 26.5904C160.4 26.6553 160.377 26.7093 160.329 26.7572C160.281 26.8036 160.227 26.8283 160.162 26.8283H159.699V26.354V26.3524Z" fill="#010101"/>
</svg>
