<svg xmlns="http://www.w3.org/2000/svg" width="19.121" height="23.44" viewBox="0 0 19.121 23.44">
  <g id="apple-black-logo" transform="translate(-46.315)">
    <g id="Group_89693" data-name="Group 89693" transform="translate(46.315)">
      <path id="Path_157640" data-name="Path 157640" d="M62.3,128.506c-.645-3.245,2.435-5.148,2.435-5.148a5.885,5.885,0,0,0-3.217-2.183,5.607,5.607,0,0,0-4.032.531,4.49,4.49,0,0,1-1.511.42c-1.455,0-2.518-1.54-5.289-.839A6.534,6.534,0,0,0,46.4,126.6a14.418,14.418,0,0,0,1.931,8.591c1.511,2.6,3.05,3.583,4.142,3.611s2.183-.783,3.5-.98,2.125.477,3.416.84,1.736.026,3.217-1.233,2.829-4.872,2.829-4.872A5.217,5.217,0,0,1,62.3,128.506Z" transform="translate(-46.315 -115.366)"/>
      <path id="Path_157641" data-name="Path 157641" d="M255.484,3.709A4.437,4.437,0,0,0,256.428,0a6.842,6.842,0,0,0-3.35,1.75,5.042,5.042,0,0,0-1.121,3.609A6.311,6.311,0,0,0,255.484,3.709Z" transform="translate(-242.355)"/>
    </g>
  </g>
</svg>
