<svg width="27" height="28" viewBox="0 0 27 28" fill="none" xmlns="http://www.w3.org/2000/svg">
<g clip-path="url(#clip0_2008_125)">
<path d="M18.8465 0.964742C18.7894 0.900919 16.7319 0.989935 14.9415 2.93318C13.1511 4.87474 13.4266 7.10182 13.4669 7.15893C13.5072 7.21603 16.0198 7.30505 17.6238 5.04605C19.2278 2.78706 18.9036 1.03024 18.8465 0.964742V0.964742ZM24.4125 20.6709C24.3319 20.5097 20.5076 18.5984 20.8636 14.9235C21.2197 11.247 23.6769 10.2392 23.7155 10.1301C23.7541 10.0209 22.7128 8.80321 21.6094 8.18681C20.7992 7.75223 19.9025 7.50325 18.9842 7.45789C18.8028 7.45285 18.173 7.29833 16.8781 7.65272C16.0249 7.88617 14.1018 8.64197 13.5727 8.6722C13.042 8.70244 11.4632 7.79548 9.76516 7.5553C8.67849 7.34536 7.52632 7.77532 6.70166 8.1062C5.87868 8.43539 4.31334 9.37258 3.21827 11.8634C2.1232 14.3524 2.69593 18.296 3.10574 19.5221C3.51555 20.7465 4.15546 22.7536 5.24381 24.2181C6.21123 25.8708 7.49441 27.0179 8.03019 27.4076C8.56596 27.7973 10.0776 28.0559 11.1256 27.5201C11.9687 27.0028 13.4904 26.7055 14.0917 26.7274C14.6913 26.7492 15.8737 26.986 17.0846 27.6327C18.0437 27.9635 18.9506 27.8258 19.8593 27.4563C20.7679 27.0851 22.083 25.6777 23.6181 22.8241C24.2009 21.4973 24.4663 20.7801 24.4125 20.6709V20.6709Z" fill="#2C2C2C"/>
<path d="M18.8465 0.964742C18.7894 0.900919 16.7319 0.989935 14.9415 2.93318C13.1511 4.87474 13.4266 7.10182 13.4669 7.15893C13.5072 7.21603 16.0198 7.30505 17.6238 5.04605C19.2278 2.78706 18.9036 1.03024 18.8465 0.964742V0.964742ZM24.4125 20.6709C24.3319 20.5097 20.5076 18.5984 20.8636 14.9235C21.2197 11.247 23.6769 10.2392 23.7155 10.1301C23.7541 10.0209 22.7128 8.80321 21.6094 8.18681C20.7992 7.75223 19.9025 7.50325 18.9842 7.45789C18.8028 7.45285 18.173 7.29833 16.8781 7.65272C16.0249 7.88617 14.1018 8.64197 13.5727 8.6722C13.042 8.70244 11.4632 7.79548 9.76516 7.5553C8.67849 7.34536 7.52632 7.77532 6.70166 8.1062C5.87868 8.43539 4.31334 9.37258 3.21827 11.8634C2.1232 14.3524 2.69593 18.296 3.10574 19.5221C3.51555 20.7465 4.15546 22.7536 5.24381 24.2181C6.21123 25.8708 7.49441 27.0179 8.03019 27.4076C8.56596 27.7973 10.0776 28.0559 11.1256 27.5201C11.9687 27.0028 13.4904 26.7055 14.0917 26.7274C14.6913 26.7492 15.8737 26.986 17.0846 27.6327C18.0437 27.9635 18.9506 27.8258 19.8593 27.4563C20.7679 27.0851 22.083 25.6777 23.6181 22.8241C24.2009 21.4973 24.4663 20.7801 24.4125 20.6709V20.6709Z" fill="#2C2C2C"/>
</g>
<defs>
<clipPath id="clip0_2008_125">
<rect width="26.8728" height="26.8728" fill="white" transform="translate(0.065918 0.951294)"/>
</clipPath>
</defs>
</svg>
