<svg width="406" height="224" viewBox="0 0 406 224" fill="none" xmlns="http://www.w3.org/2000/svg">
<path d="M89 199.604C48.6 210.179 12.8333 204.011 0 199.604V0H406V223.5C159 156.897 139.5 186.386 89 199.604Z" fill="#ECECEC"/>
<mask id="mask0_76_939" style="mask-type:alpha" maskUnits="userSpaceOnUse" x="0" y="0" width="406" height="224">
<path d="M89 199.604C48.6 210.179 12.8333 204.011 0 199.604V0H406V223.5C159 156.897 139.5 186.386 89 199.604Z" fill="#ECECEC"/>
</mask>
<g mask="url(#mask0_76_939)">
<g opacity="0.15">
<path d="M64.756 231.749C-0.700452 211.701 -37.5137 142.187 -17.3148 76.7772L5.32308 83.7109C-11.0218 136.641 18.7746 192.904 71.7367 209.118L64.751 231.74L64.756 231.749ZM138.014 -5.48261C203.471 14.5658 240.284 84.0793 220.085 149.489L197.447 142.556C213.792 89.6261 183.996 33.3624 131.028 17.1393L138.014 -5.48261Z" fill="#010101"/>
<path d="M22.9667 156.704C43.1656 91.294 112.839 54.396 178.296 74.4444L171.31 97.0663C118.343 80.8432 61.9495 110.708 45.6141 163.633L22.9762 156.699L22.9667 156.704Z" fill="#977124"/>
<path d="M75.8813 65.6192L92.0691 13.1981C82.8431 14.0857 73.8481 16.2607 65.3164 19.5636L44.0677 88.3736C53.522 79.2225 64.2616 71.5784 75.8813 65.6192Z" fill="#977124"/>
<path d="M157.087 197.728L112.588 113.702C105.07 116.274 97.9931 120.046 91.6612 124.858L125.057 187.917L157.087 197.728Z" fill="#977124"/>
</g>
</g>
</svg>
