<svg id="Group_89757" data-name="Group 89757" xmlns="http://www.w3.org/2000/svg" width="114.1" height="48.19" viewBox="0 0 114.1 48.19">
  <path id="Path_157814" data-name="Path 157814" d="M251.357,140.637a4.249,4.249,0,0,1-1.067.916,4.487,4.487,0,0,1-3.318.5l-.025,0a4.205,4.205,0,0,1-2.207-1.358l-5.647.041.36.546a20.069,20.069,0,0,0,2.144,2.986c.063.066.126.129.192.192s.129.124.2.184.134.121.2.179.137.117.206.173.142.112.214.167.143.107.217.16c.049.035.1.068.146.1l10.017-.072.164-.115c.061-.044.121-.09.181-.134s.12-.091.179-.138l.175-.143c.056-.049.115-.1.17-.146l.169-.151.163-.156c.053-.052.107-.105.16-.159s.1-.109.156-.164.1-.11.151-.167c.013-.013.024-.025.035-.038l.113-.132c.049-.058.1-.115.143-.175s.094-.117.14-.176l.135-.181c.044-.062.086-.123.131-.184l.126-.187c.041-.063.08-.126.121-.19s.079-.127.117-.194.076-.129.112-.2.072-.132.107-.2.069-.134.1-.2.065-.135.1-.2.062-.137.091-.2.06-.138.086-.209.057-.138.083-.209.052-.142.076-.212.041-.118.06-.178Z" transform="translate(-190.31 -105.292)"/>
  <path id="Path_157815" data-name="Path 157815" d="M307.1,27a20.843,20.843,0,0,0-3.6-6.624l-.53-.666-.834-.173c-.2-.042-4.983-1.034-10.825-1.908-7.362-1.1-12.894-1.492-16.467-1.164-1.432-.856-4.882-2.9-8.539-4.907C263.482,10,261.079,8.776,259.166,7.9c-3.315-1.514-4.728-1.757-5.6-1.736-.736-.049-4.254-.263-9.646-.335a21.658,21.658,0,0,1,2.516,3.439c.236.373.459.724.684,1.062.065.094.128.19.192.286,3.781.105,6.029.26,6.062.261l.165.013.121-.01a15.244,15.244,0,0,1,3.922,1.482c1.814.845,4.081,2.014,6.739,3.477,4.566,2.514,8.731,5.043,8.772,5.068l.716.434.831-.114c6.539-.9,21.893,2,25.684,2.747A14.978,14.978,0,0,1,303.3,32.86a13.954,13.954,0,0,1-.414,3.488l-2.034,1.309c-.371.135-1.1.4-1.839.68-.621.235-1.125.431-1.5.585-.252.1-.448.19-.6.264a2.588,2.588,0,0,0-1.369,1.375l-.024.06-.021.062c-1.537,4.577-4.885,5.5-6.745,5.647a10.045,10.045,0,0,1-9.469-5.508l-.665-1.281-1.444.011-15.068.108c-.049.187-.1.373-.16.555-.017.055-.036.108-.053.164l-.033.1-.091.25a.025.025,0,0,1,0,.01c-.031.083-.065.165-.1.245s-.066.16-.105.25a.006.006,0,0,1,0,0c-.033.077-.069.156-.108.244a0,0,0,0,0,0,0c-.038.082-.077.164-.116.244a.005.005,0,0,0,0,0c-.042.085-.082.162-.121.236s-.086.164-.131.244-.091.162-.134.233-.09.15-.14.233-.1.152-.148.23-.094.143-.146.22c0,0,0,0-.006.008-.052.076-.1.148-.154.217s-.105.143-.164.22-.109.14-.167.212-.115.142-.175.212c-.041.047-.086.1-.135.156-.016.017-.03.033-.044.05-.057.063-.118.131-.178.2l16.353-.12a15.05,15.05,0,0,0,5.288,4.94,14.7,14.7,0,0,0,3.888,1.5,13.6,13.6,0,0,0,4.1.313,12.053,12.053,0,0,0,6.476-2.464,12.317,12.317,0,0,0,2.566-2.727,14.1,14.1,0,0,0,1.444-2.678c.768-.305,2.017-.772,3.092-1.159l.253-.09,3.85-2.476.278-.713a17.046,17.046,0,0,0,.935-5.884A19.391,19.391,0,0,0,307.1,27" transform="translate(-193.922 -4.367)" fill="#e05024"/>
  <path id="Path_157816" data-name="Path 157816" d="M193.126,6.687c-.074-.069-.148-.135-.225-.2s-.153-.129-.23-.192-.157-.124-.238-.184-.16-.12-.244-.178-.165-.113-.249-.169l-.044-.028h-.035c-3.321-.008-6.655.045-9.95.16-.05.034-.1.069-.149.105l-.176.132c-.058.044-.115.09-.172.135s-.113.093-.168.14-.112.094-.167.143l-.16.148c-.053.049-.107.1-.159.151s-.1.1-.154.156l-.151.159c-.049.053-.1.107-.146.162s-.1.11-.142.167-.093.112-.138.17c-.024.028-.046.057-.068.085s-.045.058-.068.088c-.044.058-.087.116-.131.176s-.083.118-.126.178-.082.121-.121.182-.079.123-.116.186-.076.124-.113.187-.073.128-.107.19l-.1.194c-.033.065-.066.131-.1.2s-.065.132-.094.2-.06.134-.088.2-.058.135-.085.2-.053.135-.079.2-.05.137-.074.206-.047.137-.069.208-.044.139-.065.209c0,0,0,.007,0,.01,1.806-.088,3.543-.154,5.192-.2.045-.06.093-.12.143-.176.025-.03.052-.06.08-.09s.046-.05.069-.075.044-.046.068-.069.058-.058.088-.085c.073-.071.148-.137.225-.2.021-.019.041-.035.062-.05s.044-.035.064-.049a.516.516,0,0,1,.062-.044s0,0,0,0c.033-.025.068-.049.1-.071a.52.52,0,0,1,.077-.052l.068-.044c.058-.036.117-.071.176-.1s.1-.055.156-.082a4.35,4.35,0,0,1,2.221-.461,4.231,4.231,0,0,1,1.087.212c.082.028.165.058.245.091s.162.068.241.107.156.077.233.12.151.088.225.135.146.1.217.148.14.105.206.162.134.113.2.172.126.123.186.186c.033.035.065.069.094.1s.061.071.091.107c.326,0,.645,0,.958,0,.2,0,.4,0,.592,0,1.482,0,2.86.019,4.121.041a18.892,18.892,0,0,0-2.846-3.806" transform="translate(-144.874 -4.295)"/>
  <path id="Path_157817" data-name="Path 157817" d="M92.87,42.866c-.159-.247-.308-.48-.458-.7l-1.045-1.58-11.235.082-1.66.013-.547,1.567c-1.4,3.995-4.182,6.361-7.464,6.361l-.163,0c-2.95-.071-6.723-2.225-8.462-8.06l-.366-1.232-9.187-2.675-.459-.573c-2.5-3.883-2.278-5.217-2.258-5.31a16.841,16.841,0,0,0,1.319-5.7,7.892,7.892,0,0,1,3.4-6.108,49.949,49.949,0,0,0,5.076-4.077l.053-.05.052-.053a6.415,6.415,0,0,1,3.493-1.905c4.666-.551,9.221-.917,13.45-1.158.01-.042.019-.085.03-.128,0,0,0,0,0-.006.022-.088.044-.175.066-.256s.046-.173.069-.253.05-.167.077-.25c0,0,0,0,0,0,.02-.066.044-.134.068-.2,0,0,.016-.047.017-.05.03-.09.06-.17.088-.247s.065-.17.094-.245.068-.165.1-.247.072-.165.108-.241.069-.151.112-.236.079-.162.12-.239a0,0,0,0,1,0,0c.038-.074.077-.148.121-.228s.082-.148.132-.233a0,0,0,0,1,0,0c.045-.08.09-.152.132-.223l0-.006c.049-.079.094-.151.14-.22s.1-.146.146-.22.1-.143.153-.217.1-.139.156-.211l.057-.075.033-.041.014-.019c.021-.025.041-.05.06-.075.053-.068.11-.135.167-.2s.112-.132.175-.2c.019-.022.038-.044.058-.066l-.559.025c-5.538.266-10.932.706-16.029,1.309l-.077.01-.129.024A11.175,11.175,0,0,0,56.1,11.46a46.116,46.116,0,0,1-4.481,3.6,12.567,12.567,0,0,0-5.449,9.775,12.119,12.119,0,0,1-.963,4.113A6.214,6.214,0,0,0,45.136,33a20.93,20.93,0,0,0,2.793,5.724l.063.1,1.54,1.924,8.2,2.385a19.006,19.006,0,0,0,1.7,3.518,15.5,15.5,0,0,0,3.018,3.567,13.023,13.023,0,0,0,3.686,2.261,11.664,11.664,0,0,0,4.056.839l.272,0a11.43,11.43,0,0,0,6.965-2.387A13.431,13.431,0,0,0,80.3,47.91a16.189,16.189,0,0,0,1.446-2.541l12.892-.094a16.186,16.186,0,0,1-1.768-2.409" transform="translate(-44.836 -5.131)" />
  <path id="Path_157818" data-name="Path 157818" d="M209.53,28.434a19.022,19.022,0,0,0-1.123-1.765l-1.751-2.639L204.1,20.148a18.786,18.786,0,0,0-2.541-3.433,8.221,8.221,0,0,0-3.277-1.842,8.137,8.137,0,0,0-2.9-.327,10.212,10.212,0,0,0-2.406.5,7.185,7.185,0,0,0-1.292.6c-.455.267-.889.587-1.328.881-.677.45-1.359.886-2.02,1.359.266.431.552.848.829,1.271.524.8.88,1.536,1.906,1.779a2.187,2.187,0,0,0,1.718-.327c.393-.245.758-.53,1.153-.769a4.022,4.022,0,0,1,1.759-.585,3.513,3.513,0,0,1,1.076.079,3.574,3.574,0,0,1,1.748.958,11.214,11.214,0,0,1,1.279,1.83l1.447,2.223,2.731,4.176c.376.571.772,1.131,1.136,1.71a4.464,4.464,0,0,1,.612,3.362,4.347,4.347,0,0,1-.253.757,4.133,4.133,0,0,1-.617,1,4.253,4.253,0,0,1-1.067.916,4.487,4.487,0,0,1-3.318.5l-.025,0a4.207,4.207,0,0,1-2.208-1.358,6.932,6.932,0,0,1-.73-1.009q-.967-1.616-2.012-3.183c-.65-.974-1.329-1.929-1.979-2.906a8.911,8.911,0,0,1-6.2-.84,11.309,11.309,0,0,0,.707,1.082l1.287,1.938,3.277,4.957.36.546a20.106,20.106,0,0,0,2.145,2.986c.063.066.126.129.192.192s.129.124.2.184.134.121.2.179.137.117.206.173.142.112.214.167.143.107.217.16c.049.035.1.068.146.1.025.019.05.035.076.052q.111.076.227.146c.076.047.153.094.231.14s.156.09.235.132.159.085.239.126l.244.118c.08.038.162.074.246.11s.165.069.25.1.167.064.252.1l.255.088c.069.022.14.042.209.063s.14.039.211.058.14.036.211.053l.212.047c.072.016.143.03.214.042s.143.027.216.038l.215.031c.072.009.145.019.217.027s.145.016.217.022.145.011.217.016.145.008.217.011l.219,0c.072,0,.145,0,.219,0s.145,0,.217-.006.146-.006.219-.011.145-.009.217-.016.145-.013.217-.022.145-.016.217-.027l.216-.032.214-.038.214-.042.214-.049.017,0c.065-.014.129-.032.193-.049l.211-.058c.069-.021.138-.041.208-.065l.208-.068.2-.074c.068-.025.135-.052.2-.079l.2-.085c.068-.028.134-.058.2-.088s.132-.062.2-.094.131-.065.2-.1.132-.069.2-.105.132-.072.2-.11.131-.077.193-.117.128-.08.191-.12.126-.083.189-.126l.021-.014.163-.115c.062-.044.121-.09.181-.134s.12-.091.179-.138.117-.094.175-.143.115-.1.17-.146l.168-.151.163-.156c.053-.052.107-.105.16-.159s.1-.109.156-.164.1-.11.151-.167c.013-.013.024-.025.035-.038l.113-.132c.049-.058.1-.115.143-.175s.094-.117.14-.176.091-.121.135-.181l.131-.184.126-.187c.041-.063.08-.126.121-.19s.079-.127.117-.194.075-.129.111-.195.073-.132.107-.2.069-.134.1-.2.065-.135.1-.2.061-.137.091-.2.06-.138.086-.209.057-.138.083-.209.052-.142.076-.212.041-.118.06-.178c0-.011.008-.024.013-.036a9.125,9.125,0,0,0-.522-6.838M197.4,21.2c-.033-.03-.066-.057-.1-.083a1.261,1.261,0,0,0-.1-.077l-.109-.072c-.038-.022-.074-.044-.113-.065s-.077-.039-.116-.057-.079-.036-.12-.052l-.036-.014c-.028-.009-.056-.02-.085-.028s-.083-.027-.126-.036a2.2,2.2,0,0,0-1.743.3c-1.331.793-2.064,1.543-3.606,1.315a4.569,4.569,0,0,1-.475-.094c-.041-.009-.082-.022-.123-.033l-.123-.038c-.039-.014-.08-.028-.12-.044s-.079-.03-.118-.046-.079-.033-.118-.052l-.115-.055c-.038-.019-.075-.038-.112-.058s-.076-.041-.112-.063l-.109-.068c-.034-.022-.071-.046-.105-.071s-.069-.049-.1-.074l-.1-.079c-.031-.027-.065-.053-.1-.082l-.1-.085c-.031-.03-.061-.058-.091-.09s-.06-.06-.088-.091a10.639,10.639,0,0,1-1.072-1.535l-1.407-2.168-2.631-4.025c-.56-.848-1.15-1.687-1.673-2.558-.027-.047-.055-.091-.077-.14a4.217,4.217,0,0,1-.3-2.9c.027-.1.057-.206.09-.307a4.4,4.4,0,0,1,.691-1.312c.046-.06.093-.12.143-.176q.038-.045.08-.09c.022-.025.045-.05.069-.076s.044-.046.068-.069.058-.058.088-.085c.073-.071.148-.137.225-.2.021-.019.041-.034.062-.05s.044-.035.065-.049a.49.49,0,0,1,.061-.044s0,0,0,0c.033-.025.068-.049.1-.071A.539.539,0,0,1,183.6,5.3l.068-.044c.058-.036.117-.071.176-.1s.1-.055.156-.082a4.353,4.353,0,0,1,2.221-.461,4.208,4.208,0,0,1,1.087.212c.082.028.165.058.245.091s.162.068.241.107.156.077.233.12.151.088.225.135.146.1.217.148.14.105.206.162.134.113.2.172.126.123.186.186c.033.035.065.069.094.1s.061.071.091.107c.345.425.6.917.908,1.369,1.035,1.515,2.036,3.062,3.04,4.6.277.425.535.862.82,1.283a8.61,8.61,0,0,1,6.123.747q-2.311-3.592-4.692-7.14c-.176-.264-.352-.538-.527-.815h0a18.887,18.887,0,0,0-2.846-3.806c-.074-.069-.148-.135-.225-.2s-.153-.129-.23-.192-.157-.124-.238-.184-.16-.12-.244-.178-.165-.113-.249-.168l-.044-.028c-.069-.046-.138-.088-.209-.131-.087-.053-.173-.1-.26-.153s-.176-.1-.266-.143-.178-.09-.269-.134-.181-.085-.272-.124-.184-.079-.279-.117-.186-.072-.28-.105-.189-.066-.285-.1-.192-.06-.288-.087S188.24.3,188.144.271s-.2-.047-.293-.068L187.634.16,187.415.12c-.072-.013-.146-.024-.219-.033s-.146-.021-.22-.028-.146-.016-.22-.024l-.22-.017c-.074,0-.146-.008-.22-.011L186.093,0c-.074,0-.148,0-.222,0s-.146,0-.22,0-.148,0-.222.01-.148.009-.22.016-.148.014-.22.022l-.22.025c-.072.011-.146.021-.219.033s-.146.024-.219.038-.145.027-.217.042-.145.032-.215.049-.143.034-.215.053-.142.038-.212.058l-.01,0c-.068.019-.135.039-.2.061s-.14.046-.211.069-.139.049-.208.076-.139.052-.206.079l-.2.085c-.068.03-.135.06-.2.091s-.134.061-.2.094l-.2.1c-.066.035-.131.069-.195.105l-.194.108c-.063.038-.126.076-.189.115s-.126.079-.187.12-.121.08-.181.123l-.028.021c-.05.035-.1.069-.149.105l-.176.132c-.058.044-.115.09-.172.135s-.113.093-.168.14-.112.094-.167.143l-.16.148c-.053.049-.107.1-.159.151s-.1.1-.154.156l-.151.159c-.049.053-.1.107-.146.162s-.1.11-.142.167-.093.112-.138.17c-.024.028-.046.057-.068.085s-.045.058-.068.088c-.044.058-.087.117-.131.176s-.083.118-.126.178-.082.121-.121.183-.079.123-.116.186-.076.124-.113.187-.073.128-.107.19l-.1.194c-.033.065-.066.131-.1.2s-.065.132-.094.2-.06.134-.088.2-.058.135-.085.2-.053.135-.079.2-.05.137-.074.206-.047.137-.069.207-.044.139-.065.209c0,0,0,.006,0,.009-.019.066-.038.134-.055.2s-.036.14-.053.212-.033.142-.049.214a5.571,5.571,0,0,0-.135.765,9.485,9.485,0,0,0,.6,4.509,18.934,18.934,0,0,0,2.066,3.48l2.443,3.7,1.639,2.5c.466.721.927,1.46,1.457,2.135a8.175,8.175,0,0,0,8.789,2.66,6.449,6.449,0,0,0,1.153-.494c.516-.288,1-.672,1.5-1q1.036-.677,2.051-1.381c.123-.083.246-.168.367-.253A15.855,15.855,0,0,0,197.4,21.2" transform="translate(-143.818 0)" fill="#fff"/>
  <path id="Path_157819" data-name="Path 157819" d="M199.13,23.723c-.121.085-.244.17-.367.253q-1.017.7-2.052,1.381c-.492.327-.98.711-1.5,1a6.475,6.475,0,0,1-1.153.494,8.175,8.175,0,0,1-8.789-2.66c-.53-.675-.991-1.415-1.457-2.135l-1.639-2.5-2.443-3.7a18.926,18.926,0,0,1-2.066-3.48,9.488,9.488,0,0,1-.6-4.509,5.567,5.567,0,0,1,.135-.765c.016-.072.031-.143.049-.214s.035-.143.053-.212.036-.135.055-.2c0,0,0-.006,0-.01.021-.071.042-.14.065-.209s.046-.14.069-.208.049-.138.074-.206.052-.137.079-.2.055-.135.085-.2.058-.134.088-.2.061-.132.094-.2.065-.131.1-.2l.1-.194c.035-.063.071-.127.107-.19s.076-.126.114-.187.077-.124.116-.186.08-.121.121-.182.083-.12.126-.178.086-.118.131-.176c.022-.03.045-.06.068-.088s.044-.057.068-.085c.045-.058.091-.115.138-.17s.094-.112.142-.167.1-.108.146-.162.1-.107.151-.159.1-.1.154-.156.105-.1.159-.151l.16-.148c.055-.049.11-.1.167-.143s.112-.094.168-.14.113-.091.172-.135l.176-.132c.049-.036.1-.071.149-.105a.288.288,0,0,1,.028-.021c.06-.042.121-.083.181-.123s.124-.08.187-.12.126-.077.189-.115l.193-.108c.065-.036.129-.071.2-.105l.2-.1c.066-.033.134-.065.2-.094s.135-.061.2-.091l.2-.085c.068-.027.137-.053.206-.079s.139-.052.208-.075.14-.047.211-.069.135-.042.2-.061l.01,0,.212-.058L183.9.241c.071-.017.143-.033.215-.049s.145-.03.217-.042.145-.027.219-.038.146-.022.218-.033.146-.017.22-.025.146-.016.22-.022.146-.011.22-.016.148-.008.222-.009.146,0,.22,0,.148,0,.222,0l.222.006c.074,0,.146.006.22.011l.22.017c.074.008.148.014.22.024s.148.017.22.028.146.02.219.033.146.025.218.039l.217.044c.1.021.2.044.293.068s.194.05.29.079.192.057.288.086.19.063.285.1.187.069.28.105.186.075.279.116.183.082.272.124.181.088.269.134.178.094.266.143.173.1.26.153c.071.042.14.085.209.131l.044.028c.083.055.167.112.249.169s.164.116.244.178.159.121.238.184.154.127.23.192.151.132.225.2A18.9,18.9,0,0,1,194.915,6.2h0c.175.277.351.55.527.815q2.381,3.547,4.692,7.14a8.61,8.61,0,0,0-6.123-.747c-.285-.42-.543-.857-.82-1.282-1-1.536-2-3.082-3.04-4.6-.308-.452-.563-.944-.908-1.369-.03-.036-.06-.073-.091-.107s-.062-.069-.094-.1c-.06-.063-.123-.124-.186-.186s-.131-.117-.2-.172-.135-.11-.206-.162-.143-.1-.217-.148-.15-.091-.225-.135-.154-.082-.233-.12-.159-.074-.241-.107-.164-.063-.246-.091a4.227,4.227,0,0,0-1.087-.212A4.35,4.35,0,0,0,184,5.076c-.052.027-.1.053-.156.082s-.118.068-.176.1c-.022.013-.046.028-.068.044a.547.547,0,0,0-.077.052.849.849,0,0,0-.1.071s0,0,0,0a.518.518,0,0,0-.062.044c-.02.014-.042.032-.065.049s-.041.031-.061.05a2.966,2.966,0,0,0-.225.2c-.03.027-.06.055-.088.085s-.047.046-.068.069-.049.05-.069.075-.055.06-.08.09c-.05.057-.1.117-.143.176a4.4,4.4,0,0,0-.691,1.312c-.033.1-.063.2-.09.307a4.217,4.217,0,0,0,.3,2.9c.022.049.05.093.077.14.522.872,1.112,1.71,1.672,2.558l2.631,4.025,1.407,2.168a10.635,10.635,0,0,0,1.071,1.536c.028.031.058.061.088.091s.06.06.091.09l.1.085c.031.028.065.055.1.082l.1.079c.033.025.068.05.1.074s.071.049.105.071.072.046.109.068.074.042.111.063.074.039.112.058l.115.055c.039.019.079.035.118.052l.118.046c.039.016.08.03.12.044l.123.038c.041.011.082.024.123.033a4.557,4.557,0,0,0,.475.094c1.542.228,2.275-.522,3.606-1.315a2.2,2.2,0,0,1,1.743-.3,1.3,1.3,0,0,1,.126.036c.028.008.056.019.085.028l.036.014c.041.016.08.033.12.052s.079.036.117.057.076.042.113.064.072.047.108.073a1.264,1.264,0,0,1,.1.077c.035.027.068.053.1.083a15.87,15.87,0,0,1,1.734,2.517" transform="translate(-143.817 0)" />
  <path id="Path_157820" data-name="Path 157820" d="M240.826,78.6c0,.013-.008.025-.013.036-.019.06-.039.12-.06.178s-.05.142-.076.212-.055.14-.083.209-.057.14-.087.209-.06.137-.091.2-.065.137-.1.2-.068.134-.1.2-.071.132-.107.2-.074.131-.111.2-.077.129-.117.193-.08.128-.121.19l-.126.187c-.044.061-.086.123-.131.184s-.09.121-.135.181-.093.118-.14.176-.094.117-.143.175l-.113.132c-.011.013-.022.025-.035.038-.049.057-.1.112-.151.167s-.1.11-.156.164-.107.107-.16.159l-.164.156-.168.151c-.055.049-.113.1-.17.146s-.116.1-.175.143-.118.093-.179.138-.12.09-.181.134l-.163.115-.021.014c-.063.042-.124.085-.189.126s-.126.08-.19.12-.127.079-.193.117-.131.074-.2.11l-.2.105c-.065.035-.129.068-.2.1s-.131.063-.2.094-.132.06-.2.088l-.2.085c-.068.027-.135.053-.2.079l-.2.074c-.069.024-.138.045-.208.068s-.139.044-.208.065l-.211.058c-.065.017-.129.034-.193.049l-.017,0c-.071.017-.143.033-.214.049l-.214.042-.214.038-.216.032c-.072.011-.145.019-.217.027s-.145.016-.217.022-.145.013-.217.016-.146.009-.218.011-.145,0-.217.006-.146,0-.219,0l-.219,0c-.072,0-.145-.006-.217-.011s-.145-.01-.217-.016-.145-.014-.217-.022-.145-.017-.217-.027l-.215-.031c-.073-.011-.143-.024-.216-.038s-.142-.027-.214-.042l-.212-.047c-.071-.017-.141-.035-.211-.053s-.142-.038-.211-.058-.14-.041-.209-.063l-.255-.088c-.085-.031-.168-.063-.252-.1s-.167-.066-.25-.1-.165-.072-.246-.11l-.244-.118c-.08-.041-.16-.083-.239-.126s-.157-.087-.235-.132-.156-.093-.231-.14-.152-.1-.227-.146c-.025-.017-.05-.033-.076-.052l-.146-.1c-.074-.053-.146-.105-.217-.161s-.143-.11-.214-.167-.138-.113-.206-.173-.135-.118-.2-.179-.131-.121-.2-.184-.129-.126-.192-.192a20.093,20.093,0,0,1-2.145-2.986l-.36-.546L220.1,73.808,218.81,71.87a11.359,11.359,0,0,1-.706-1.082,8.911,8.911,0,0,0,6.2.84c.65.977,1.329,1.932,1.979,2.906q1.046,1.567,2.012,3.183a6.919,6.919,0,0,0,.73,1.009,4.207,4.207,0,0,0,2.207,1.358l.025,0a4.488,4.488,0,0,0,3.318-.5,4.26,4.26,0,0,0,1.067-.916,4.133,4.133,0,0,0,.617-1,4.344,4.344,0,0,0,.253-.757,4.464,4.464,0,0,0-.612-3.362c-.363-.579-.76-1.139-1.136-1.71l-2.732-4.176-1.447-2.223a11.208,11.208,0,0,0-1.279-1.83,3.574,3.574,0,0,0-1.748-.958,3.512,3.512,0,0,0-1.076-.079,4.022,4.022,0,0,0-1.759.585c-.395.239-.76.524-1.153.769a2.188,2.188,0,0,1-1.718.327c-1.026-.244-1.381-.975-1.905-1.779-.277-.423-.563-.84-.829-1.271.661-.473,1.344-.909,2.02-1.359.439-.294.873-.614,1.328-.881a7.185,7.185,0,0,1,1.292-.6,10.225,10.225,0,0,1,2.406-.5,8.137,8.137,0,0,1,2.9.327,8.221,8.221,0,0,1,3.277,1.842,18.788,18.788,0,0,1,2.541,3.433l2.552,3.883L239.181,70a19,19,0,0,1,1.123,1.765,9.124,9.124,0,0,1,.522,6.838" transform="translate(-174.592 -43.331)" fill="#e05024"/>
</svg>
