<svg id="Group_89894" data-name="Group 89894" xmlns="http://www.w3.org/2000/svg" xmlns:xlink="http://www.w3.org/1999/xlink" width="222.195" height="129.623" viewBox="0 0 222.195 129.623">
  <defs>
    <clipPath id="clip-path">
      <rect id="Rectangle_26480" data-name="Rectangle 26480" width="222.195" height="129.623" fill="none"/>
    </clipPath>
  </defs>
  <g id="Group_89894-2" data-name="Group 89894" clip-path="url(#clip-path)">
    <path id="Path_157943" data-name="Path 157943" d="M225.171,119.735a6.854,6.854,0,0,1-1.722,1.477,7.239,7.239,0,0,1-5.353.8l-.041-.008a6.781,6.781,0,0,1-3.56-2.191l-9.11.066.582.881a32.4,32.4,0,0,0,3.459,4.818c.1.107.2.208.31.31s.208.2.315.3.216.2.327.289.221.188.332.279.229.18.346.269.231.173.351.259c.078.056.157.109.236.162l16.161-.117c.089-.061.175-.122.264-.185s.2-.145.292-.216.193-.148.289-.224.188-.152.282-.231.185-.158.274-.236.182-.162.271-.244.178-.168.264-.251.173-.17.259-.256.168-.175.251-.264.165-.178.244-.269c.02-.02.038-.041.055-.061l.183-.213c.079-.094.155-.185.231-.282s.153-.188.227-.284.147-.2.218-.292.14-.2.211-.3.134-.2.2-.3.129-.2.195-.307.127-.206.188-.312.122-.208.18-.315.117-.213.172-.32.112-.216.165-.325.1-.218.158-.33.1-.221.147-.33.1-.223.139-.337.091-.223.135-.337.084-.228.122-.343c.033-.094.066-.19.1-.287Z" transform="translate(-107.624 -62.712)"/>
    <path id="Path_157944" data-name="Path 157944" d="M311.42,39.109a33.622,33.622,0,0,0-5.8-10.686l-.855-1.074-1.346-.279C303.1,27,295.38,25.4,285.955,23.991c-11.877-1.774-20.8-2.406-26.566-1.878-2.31-1.381-7.877-4.68-13.776-7.917-4.559-2.5-8.435-4.48-11.521-5.891-5.348-2.442-7.628-2.835-9.039-2.8-1.188-.079-6.864-.424-15.562-.541a34.932,34.932,0,0,1,4.059,5.549c.381.6.741,1.168,1.1,1.714.1.152.206.307.309.462,6.1.17,9.727.419,9.78.421l.267.02.2-.015c.259.025,1.731.248,6.328,2.391,2.927,1.363,6.585,3.249,10.872,5.61,7.366,4.056,14.085,8.136,14.151,8.176l1.155.7,1.34-.183c10.549-1.455,35.32,3.223,41.435,4.432A24.166,24.166,0,0,1,305.3,48.57a22.545,22.545,0,0,1-.667,5.628l-3.282,2.112c-.6.218-1.772.644-2.967,1.1-1,.378-1.814.7-2.414.944-.406.168-.723.307-.972.426a4.176,4.176,0,0,0-2.209,2.219l-.038.1-.033.1c-2.48,7.384-7.881,8.879-10.882,9.11a16.207,16.207,0,0,1-15.275-8.887l-1.074-2.066-2.33.018-24.31.175q-.118.453-.259.9c-.028.089-.058.175-.086.264l-.053.155c-.046.127-.094.259-.147.4a.036.036,0,0,1-.005.015c-.05.135-.1.267-.155.4s-.107.259-.17.4a.009.009,0,0,1,0,.008c-.053.124-.111.251-.175.394a.007.007,0,0,0,0,0c-.061.132-.124.264-.188.394a.01.01,0,0,0,0,.008c-.069.137-.132.261-.2.381s-.139.264-.21.393-.148.262-.216.376-.144.241-.226.376-.155.246-.238.371-.152.231-.236.355c0,.005-.008.008-.01.013-.084.122-.165.238-.248.35s-.17.231-.264.355-.175.226-.269.343-.185.228-.282.343c-.066.076-.139.162-.218.251-.025.028-.048.053-.071.081-.091.1-.19.21-.287.315l26.384-.193a24.278,24.278,0,0,0,8.531,7.97,23.712,23.712,0,0,0,6.272,2.422,21.964,21.964,0,0,0,6.612.505,19.444,19.444,0,0,0,10.447-3.975,19.858,19.858,0,0,0,4.14-4.4,22.766,22.766,0,0,0,2.33-4.32c1.239-.492,3.254-1.246,4.987-1.871l.409-.145,6.211-4,.449-1.15a27.5,27.5,0,0,0,1.508-9.493,31.291,31.291,0,0,0-1.493-9.43" transform="translate(-109.776 -2.601)" fill="#e05024"/>
    <path id="Path_157945" data-name="Path 157945" d="M177.466,6.418c-.12-.112-.239-.218-.363-.325s-.247-.208-.37-.309-.254-.2-.384-.3-.259-.193-.393-.287-.267-.183-.4-.271l-.071-.046h-.056c-5.359-.013-10.737.073-16.052.259-.081.056-.163.111-.241.17-.1.071-.191.142-.284.213s-.186.145-.277.218-.183.15-.272.226-.18.152-.269.231-.172.158-.258.239-.173.162-.257.244-.168.168-.249.251-.162.17-.243.256-.158.173-.236.261-.156.178-.229.269-.15.18-.224.274c-.038.046-.074.091-.109.137s-.074.094-.109.142c-.071.094-.139.188-.21.284s-.135.19-.2.287-.132.2-.2.295-.127.2-.188.3-.122.2-.183.3-.117.205-.172.307-.112.208-.167.312-.107.21-.158.315-.1.213-.152.32-.1.216-.142.322-.094.218-.137.327-.087.218-.127.33-.082.221-.12.333-.076.221-.111.335-.072.223-.1.337a.065.065,0,0,1-.005.015c2.914-.142,5.717-.249,8.376-.325.074-.1.15-.193.231-.285.04-.048.084-.1.129-.145s.074-.081.112-.122.071-.073.109-.111.093-.094.142-.137a4.492,4.492,0,0,1,.363-.32c.033-.03.066-.056.1-.081s.071-.056.1-.079a.787.787,0,0,1,.1-.071c0-.005,0-.008.005-.005.053-.04.109-.079.165-.114a.965.965,0,0,1,.124-.084l.109-.071c.094-.059.188-.114.284-.168s.168-.089.251-.132A7.02,7.02,0,0,1,168.03,10a6.783,6.783,0,0,1,1.754.343c.132.046.267.094.4.147s.261.109.388.173.251.124.376.193.244.142.363.218.236.155.351.238.225.17.332.261.216.183.32.277.2.2.3.3c.053.056.1.111.153.168s.1.114.147.172q.789,0,1.546,0c.323,0,.64,0,.954,0,2.391.005,4.615.03,6.648.066a30.461,30.461,0,0,0-4.591-6.14" transform="translate(-80.563 -2.558)"/>
    <path id="Path_157946" data-name="Path 157946" d="M117.533,63.935c-.257-.4-.5-.774-.739-1.137,0,0-.736-1.112-1.685-2.548l-18.126.132L94.3,60.4l-.883,2.528c-2.259,6.445-6.747,10.262-12.042,10.262-.089,0-.175,0-.264,0-4.759-.114-10.846-3.589-13.651-13L66.873,58.2l-14.82-4.315-.742-.924c-4.029-6.264-3.676-8.417-3.643-8.567A27.136,27.136,0,0,0,49.8,35.2a12.733,12.733,0,0,1,5.485-9.854,80.39,80.39,0,0,0,8.188-6.577l.087-.081.084-.086a10.347,10.347,0,0,1,5.635-3.074c7.529-.889,14.877-1.48,21.7-1.868.015-.069.03-.137.048-.206,0,0,0-.008,0-.01.036-.142.071-.282.107-.414s.074-.279.112-.408.081-.269.124-.4c0,0,0-.005,0-.008.033-.107.071-.216.109-.327,0,0,.025-.076.028-.081.048-.144.1-.274.142-.4.053-.145.1-.274.152-.4s.109-.267.165-.4.117-.267.175-.388.111-.244.18-.381.127-.261.193-.386c0,0,0,0,0,0,.061-.119.124-.238.2-.368.063-.114.132-.238.213-.376a0,0,0,0,1,0,0c.074-.129.145-.247.213-.361,0,0,0-.008.008-.01.079-.127.152-.244.226-.356s.155-.236.236-.355.16-.231.247-.35.162-.223.251-.34l.091-.122.053-.066.023-.03c.033-.041.066-.081.1-.122.087-.109.178-.218.269-.33s.18-.213.282-.325c.03-.036.061-.071.094-.107-.3.013-.6.025-.9.04-8.935.429-17.636,1.14-25.86,2.112L68.132,8l-.208.038a18.029,18.029,0,0,0-9.712,5.229,74.327,74.327,0,0,1-7.229,5.8,20.275,20.275,0,0,0-8.791,15.77,19.544,19.544,0,0,1-1.553,6.635,10.021,10.021,0,0,0-.117,6.546,33.779,33.779,0,0,0,4.505,9.234l.1.16,2.485,3.1,13.222,3.848a30.676,30.676,0,0,0,2.739,5.676A25,25,0,0,0,68.444,75.8a21.016,21.016,0,0,0,5.947,3.647A18.816,18.816,0,0,0,80.935,80.8c.147,0,.294.005.439.005a18.437,18.437,0,0,0,11.237-3.851,21.664,21.664,0,0,0,4.643-4.878,26.158,26.158,0,0,0,2.333-4.1l20.8-.152a26.123,26.123,0,0,1-2.853-3.886" transform="translate(-20.98 -3.057)"/>
    <path id="Path_157947" data-name="Path 157947" d="M205.007,45.874a30.611,30.611,0,0,0-1.813-2.848l-2.825-4.257L196.252,32.5a30.321,30.321,0,0,0-4.1-5.539,13.267,13.267,0,0,0-5.287-2.972,13.126,13.126,0,0,0-4.678-.528,16.476,16.476,0,0,0-3.881.81,11.616,11.616,0,0,0-2.084.962c-.734.431-1.434.947-2.142,1.421-1.091.726-2.193,1.429-3.259,2.193.429.7.891,1.368,1.338,2.051.845,1.3,1.419,2.478,3.074,2.871A3.529,3.529,0,0,0,178,33.246c.635-.4,1.224-.856,1.861-1.241a6.494,6.494,0,0,1,2.838-.944,5.665,5.665,0,0,1,1.736.127,5.77,5.77,0,0,1,2.82,1.546,18.083,18.083,0,0,1,2.063,2.952l2.335,3.587,4.407,6.737c.606.922,1.246,1.825,1.833,2.759a7.2,7.2,0,0,1,.987,5.424,7,7,0,0,1-.408,1.221,6.667,6.667,0,0,1-1,1.609A6.85,6.85,0,0,1,195.76,58.5a7.241,7.241,0,0,1-5.353.8l-.04-.008A6.788,6.788,0,0,1,186.8,57.1a11.148,11.148,0,0,1-1.178-1.627q-1.561-2.608-3.247-5.135c-1.048-1.571-2.145-3.112-3.193-4.688a14.377,14.377,0,0,1-10-1.356,18.252,18.252,0,0,0,1.14,1.746l2.076,3.127,5.287,8,.581.881a32.39,32.39,0,0,0,3.46,4.817c.1.107.2.208.309.31s.208.2.315.3.216.2.327.289.221.188.333.279.228.18.345.269.231.173.35.259c.079.056.158.109.236.163.04.03.081.056.122.084q.179.121.366.236c.122.076.246.152.373.226s.251.145.378.213.257.137.386.2l.394.19c.129.061.261.119.4.178s.267.112.4.165.269.1.406.155.274.1.411.142c.112.035.226.069.338.1s.226.063.34.094.226.059.34.087l.343.076c.117.026.231.049.345.069s.231.043.348.061.231.036.347.051.234.03.35.043.234.025.35.035.234.018.35.026.234.012.35.018l.353.008c.117,0,.234,0,.353,0s.234-.005.35-.01.236-.01.353-.018.233-.015.35-.025.233-.02.35-.036.234-.025.35-.043.231-.033.348-.051l.345-.061.345-.069c.114-.025.231-.05.346-.079l.028-.008c.1-.023.208-.051.312-.079s.226-.061.34-.094.223-.066.335-.1.223-.071.335-.109.221-.079.33-.119.218-.084.327-.127l.325-.137c.109-.046.216-.094.323-.142s.213-.1.317-.152.211-.1.315-.16.213-.111.319-.17.213-.117.317-.178.211-.124.312-.188.206-.129.307-.193.2-.135.3-.2l.033-.023c.089-.061.175-.122.264-.185s.2-.145.292-.216.193-.147.289-.223.188-.152.282-.231.186-.157.274-.236.183-.162.272-.244.178-.168.264-.251.173-.17.259-.256.168-.175.251-.264.165-.178.244-.269c.02-.02.038-.04.056-.061l.183-.213c.079-.094.155-.185.231-.282s.152-.188.226-.284.148-.2.218-.292.139-.2.211-.3l.2-.3c.066-.1.129-.2.2-.307s.127-.206.188-.312.122-.208.18-.315.117-.213.173-.32.111-.216.165-.325.1-.218.158-.33.1-.221.147-.33.1-.224.14-.338.091-.223.134-.337.084-.228.122-.343c.033-.094.066-.19.1-.287.008-.018.012-.038.02-.059a14.718,14.718,0,0,0-.842-11.031M185.431,34.211c-.053-.048-.107-.091-.162-.135s-.109-.086-.168-.124-.117-.079-.175-.117-.119-.071-.183-.1-.124-.063-.188-.091-.127-.059-.193-.084l-.059-.023c-.046-.015-.091-.033-.137-.046a2.028,2.028,0,0,0-.2-.058,3.544,3.544,0,0,0-2.813.482c-2.147,1.279-3.33,2.49-5.818,2.122a7.327,7.327,0,0,1-.766-.152c-.066-.015-.132-.036-.2-.053l-.2-.061c-.063-.023-.129-.046-.193-.071s-.127-.049-.19-.074-.127-.053-.19-.084-.122-.059-.185-.089-.122-.061-.18-.094-.122-.066-.18-.1-.117-.071-.175-.109-.114-.073-.17-.114-.112-.079-.165-.119l-.165-.127c-.051-.043-.1-.086-.155-.132s-.1-.091-.155-.137-.1-.094-.147-.145-.1-.1-.142-.147a17.172,17.172,0,0,1-1.728-2.478l-2.27-3.5-4.244-6.493c-.9-1.368-1.855-2.721-2.7-4.127-.043-.076-.089-.147-.124-.226a6.8,6.8,0,0,1-.482-4.678c.043-.165.091-.332.145-.495a7.091,7.091,0,0,1,1.114-2.117c.073-.1.149-.193.231-.284.04-.048.084-.1.129-.145s.074-.081.112-.122.071-.074.109-.112.094-.094.142-.137a4.742,4.742,0,0,1,.363-.32c.033-.03.066-.056.1-.081s.071-.056.1-.079a.812.812,0,0,1,.1-.071c0-.005,0-.008,0-.005.053-.04.109-.079.165-.114a.9.9,0,0,1,.124-.084l.109-.071c.094-.059.188-.114.284-.168s.168-.089.251-.132a7.019,7.019,0,0,1,3.584-.744,6.831,6.831,0,0,1,1.754.343c.132.046.266.094.4.148s.262.109.388.172.251.125.376.193.244.142.363.218.236.155.35.238.226.17.333.262.216.183.32.277.2.2.3.3q.08.084.152.168c.051.056.1.114.147.173.556.685.967,1.48,1.465,2.208,1.67,2.445,3.285,4.94,4.9,7.417.446.685.863,1.391,1.322,2.069a13.888,13.888,0,0,1,9.879,1.206q-3.727-5.8-7.569-11.519c-.284-.426-.568-.868-.85-1.315h0a30.455,30.455,0,0,0-4.592-6.14c-.119-.112-.238-.218-.363-.325s-.246-.208-.371-.31-.254-.2-.383-.3-.259-.193-.394-.287-.267-.183-.4-.272l-.071-.046c-.112-.073-.224-.142-.338-.21-.139-.087-.279-.168-.419-.247s-.284-.155-.429-.231-.287-.145-.434-.216-.292-.137-.439-.2-.3-.127-.449-.188-.3-.117-.452-.17-.3-.107-.46-.158-.309-.1-.465-.139-.312-.087-.467-.127-.315-.076-.472-.109c-.117-.026-.233-.049-.35-.071s-.236-.043-.353-.063-.236-.038-.353-.053S168.739.109,168.62.1s-.236-.025-.355-.038-.236-.018-.356-.028-.236-.012-.355-.018S167.315,0,167.2,0s-.239,0-.358,0-.236,0-.356.008-.238.008-.358.015-.238.015-.355.025-.239.023-.356.036-.236.025-.355.04-.236.033-.353.053-.236.038-.353.061-.234.043-.35.069-.234.051-.347.079-.231.056-.348.087-.228.061-.343.094c-.005,0-.01,0-.015.005-.109.03-.218.063-.327.1s-.226.073-.34.111-.224.079-.335.122-.224.084-.333.127l-.33.137c-.109.048-.218.1-.327.147s-.216.1-.322.152l-.317.16c-.107.056-.211.112-.315.17l-.312.175c-.1.061-.2.122-.3.186s-.2.127-.3.193-.2.129-.292.2a.544.544,0,0,0-.046.033c-.081.056-.162.112-.241.17-.1.071-.19.142-.284.213s-.185.145-.277.218-.183.15-.272.226-.18.152-.269.231-.173.158-.259.238-.173.163-.257.244-.167.168-.248.251-.162.17-.244.257-.158.172-.236.261-.155.178-.228.269-.15.18-.223.274c-.038.046-.074.091-.109.137s-.073.094-.109.142c-.071.094-.139.188-.21.284s-.135.19-.2.287-.132.2-.2.294-.127.2-.188.3-.122.2-.183.3-.117.206-.173.307l-.168.312c-.053.1-.107.211-.157.315s-.1.213-.152.319-.1.216-.142.323-.094.218-.137.327-.086.218-.127.33-.081.221-.119.333-.076.22-.112.335-.071.224-.1.338c0,0,0,.01,0,.015-.03.107-.061.216-.089.325s-.059.226-.086.343-.053.228-.079.345a8.953,8.953,0,0,0-.218,1.234,15.3,15.3,0,0,0,.962,7.275,30.534,30.534,0,0,0,3.333,5.615l3.942,5.97,2.645,4.039c.752,1.162,1.5,2.355,2.35,3.444a13.19,13.19,0,0,0,14.179,4.292,10.426,10.426,0,0,0,1.861-.8c.833-.465,1.619-1.084,2.414-1.612q1.671-1.092,3.31-2.229c.2-.135.4-.272.592-.409a25.624,25.624,0,0,0-2.8-4.061" transform="translate(-79.934 0)" fill="#fff"/>
    <path id="Path_157948" data-name="Path 157948" d="M188.229,38.272c-.2.137-.394.274-.592.409q-1.641,1.135-3.31,2.229c-.795.528-1.582,1.147-2.414,1.612a10.444,10.444,0,0,1-1.861.8,13.19,13.19,0,0,1-14.179-4.292c-.855-1.089-1.6-2.282-2.35-3.445l-2.645-4.038-3.942-5.97a30.544,30.544,0,0,1-3.333-5.615,15.308,15.308,0,0,1-.962-7.275,8.944,8.944,0,0,1,.218-1.234c.025-.117.05-.231.079-.345s.056-.231.086-.343.059-.218.089-.325c0,0,0-.01.005-.015.033-.114.069-.226.1-.337s.074-.226.112-.335.079-.223.119-.332.084-.221.127-.33.089-.218.137-.327.094-.216.142-.322.1-.213.152-.32.1-.21.157-.315l.168-.312c.056-.1.114-.206.173-.307s.122-.2.183-.3.124-.2.188-.3.129-.2.2-.295.135-.193.2-.287.139-.19.21-.285c.036-.048.074-.1.109-.142s.071-.091.109-.137c.074-.094.147-.185.223-.274s.152-.18.228-.269.158-.175.236-.262.163-.172.244-.256.165-.168.249-.251.17-.165.256-.244.173-.16.259-.238.178-.155.269-.231.18-.152.271-.226.183-.148.277-.218.188-.142.285-.213c.079-.058.16-.114.241-.17a.457.457,0,0,1,.046-.033c.1-.069.2-.135.292-.2s.2-.129.3-.193.2-.124.3-.185L160,1.8c.1-.059.208-.114.315-.17l.317-.16c.107-.053.216-.1.322-.152s.218-.1.327-.147l.33-.137c.109-.043.221-.087.333-.127s.223-.084.335-.122.226-.076.34-.112.218-.069.327-.1l.015,0c.114-.033.228-.064.343-.094s.231-.058.348-.086.231-.053.347-.079.234-.049.35-.069.234-.043.353-.061.236-.036.353-.053.236-.028.355-.041.236-.025.356-.035.236-.018.356-.026.238-.012.358-.015.236-.008.355-.008.238,0,.358,0,.238.005.358.01.236.01.355.018.239.018.356.028.238.023.356.038.238.028.355.046.236.033.353.053.236.04.353.063.233.046.35.071c.157.033.315.071.472.109s.312.081.467.127.309.091.465.14.307.1.459.157.3.112.452.17.3.122.449.188.295.132.439.2.292.142.434.216.287.152.429.231.279.16.419.246c.114.069.226.137.337.211l.071.046c.135.089.269.18.4.272s.264.188.393.287.257.2.384.3.248.206.37.31.244.213.363.325A30.48,30.48,0,0,1,181.429,10h0c.282.447.566.889.85,1.315q3.842,5.723,7.57,11.519a13.893,13.893,0,0,0-9.879-1.206c-.46-.678-.876-1.383-1.323-2.069-1.619-2.478-3.234-4.973-4.9-7.417-.5-.729-.909-1.523-1.465-2.209-.048-.058-.1-.117-.147-.172s-.1-.112-.152-.168c-.1-.1-.2-.2-.3-.3s-.211-.188-.32-.277-.218-.178-.333-.261-.231-.162-.35-.238-.241-.148-.363-.218-.249-.132-.376-.193-.257-.119-.388-.173-.264-.1-.4-.147a6.831,6.831,0,0,0-1.754-.343,7.02,7.02,0,0,0-3.584.744c-.084.043-.168.086-.251.132s-.19.109-.284.168a1.216,1.216,0,0,0-.109.071.909.909,0,0,0-.125.084,1.346,1.346,0,0,0-.165.114s0,0-.005.005a.754.754,0,0,0-.1.071c-.033.023-.069.051-.1.079s-.066.051-.1.081a4.742,4.742,0,0,0-.363.32c-.048.043-.1.089-.142.137s-.076.074-.109.112-.079.081-.112.121-.089.1-.129.145c-.081.091-.157.188-.231.285a7.1,7.1,0,0,0-1.114,2.117c-.053.163-.1.33-.145.5a6.8,6.8,0,0,0,.482,4.678c.036.079.081.15.125.226.842,1.406,1.794,2.759,2.7,4.127l4.244,6.493,2.269,3.5a17.148,17.148,0,0,0,1.729,2.477c.046.051.094.1.142.148s.1.1.148.145.1.091.155.137.1.089.155.132l.165.127c.053.041.109.081.165.119s.114.079.17.114.117.074.175.109.119.069.18.1.119.063.18.094.124.061.185.089.127.056.19.084.127.05.19.073.129.049.193.071l.2.061c.066.018.132.038.2.053a7.614,7.614,0,0,0,.767.152c2.488.368,3.67-.843,5.818-2.122a3.546,3.546,0,0,1,2.813-.482,2.041,2.041,0,0,1,.2.059c.046.012.091.03.137.046l.058.023c.066.025.129.053.193.084s.127.058.188.091.122.069.183.1.117.076.175.117a1.978,1.978,0,0,1,.168.124c.056.043.109.086.162.135a25.569,25.569,0,0,1,2.8,4.061" transform="translate(-79.934 0)"/>
    <path id="Path_157949" data-name="Path 157949" d="M224.178,82.714c-.008.02-.013.04-.02.059-.03.1-.063.193-.1.287-.038.114-.081.228-.122.343s-.089.226-.135.337-.091.226-.139.338-.1.221-.148.33-.1.221-.157.33-.109.216-.165.325-.114.213-.172.32-.119.21-.18.315-.124.208-.188.312-.129.206-.2.307l-.2.3c-.071.1-.139.2-.211.3s-.144.2-.218.292-.15.19-.226.284-.152.188-.231.282l-.183.213c-.018.02-.036.04-.056.061-.079.091-.163.18-.244.269s-.168.178-.251.264-.173.173-.259.257-.175.168-.264.251-.18.163-.271.244-.183.158-.274.236-.188.155-.282.231-.19.149-.289.223-.193.145-.292.216-.175.125-.264.185c-.01.008-.023.015-.033.023-.1.069-.2.137-.3.2s-.2.129-.307.193-.206.127-.312.188-.211.119-.317.178-.213.114-.32.17-.208.109-.315.16-.211.1-.317.152-.213.1-.322.142l-.325.137c-.109.043-.218.086-.327.127s-.22.081-.33.119-.223.074-.335.109-.223.071-.335.1-.226.064-.34.094-.208.056-.312.079l-.028.008c-.114.028-.231.053-.345.079l-.345.069-.346.061c-.117.018-.233.036-.347.051s-.234.03-.35.043-.234.025-.35.035-.234.02-.35.026-.236.015-.353.018-.234.008-.35.01-.236,0-.353,0l-.353-.008c-.117,0-.233-.01-.35-.018s-.234-.015-.35-.025-.234-.023-.35-.036-.234-.028-.35-.043-.234-.033-.348-.05-.231-.038-.347-.061-.228-.043-.346-.069l-.343-.076c-.114-.028-.228-.056-.34-.087s-.228-.061-.34-.094-.226-.066-.337-.1c-.137-.046-.274-.094-.411-.142s-.271-.1-.406-.155-.269-.107-.4-.165-.267-.117-.4-.178l-.393-.19c-.129-.066-.259-.135-.386-.2s-.254-.139-.378-.213-.251-.149-.373-.226-.246-.155-.365-.236c-.041-.028-.081-.053-.122-.084-.079-.053-.158-.107-.236-.162-.119-.087-.236-.17-.35-.259s-.231-.178-.346-.269-.223-.183-.332-.279-.218-.19-.327-.289-.211-.2-.315-.3-.209-.2-.31-.31a32.4,32.4,0,0,1-3.459-4.817l-.582-.881-5.287-8L188.66,71.85a18.176,18.176,0,0,1-1.14-1.746,14.373,14.373,0,0,0,10,1.356c1.048,1.576,2.145,3.117,3.193,4.688q1.686,2.528,3.246,5.135a11.148,11.148,0,0,0,1.178,1.627,6.788,6.788,0,0,0,3.561,2.19l.041.008a7.239,7.239,0,0,0,5.353-.8,6.853,6.853,0,0,0,1.721-1.477,6.65,6.65,0,0,0,.995-1.609A7.006,7.006,0,0,0,217.213,80a7.205,7.205,0,0,0-.987-5.424c-.586-.934-1.226-1.838-1.833-2.759l-4.406-6.737-2.335-3.587a18.136,18.136,0,0,0-2.064-2.952A5.766,5.766,0,0,0,202.767,57a5.663,5.663,0,0,0-1.736-.127,6.489,6.489,0,0,0-2.838.944c-.637.386-1.226.845-1.861,1.241a3.53,3.53,0,0,1-2.772.528c-1.655-.394-2.229-1.574-3.074-2.871-.447-.683-.909-1.356-1.338-2.051,1.066-.764,2.168-1.467,3.26-2.193.708-.475,1.408-.99,2.142-1.421a11.606,11.606,0,0,1,2.084-.962,16.5,16.5,0,0,1,3.881-.81,13.129,13.129,0,0,1,4.678.528,13.271,13.271,0,0,1,5.287,2.972,30.306,30.306,0,0,1,4.1,5.539l4.117,6.264,2.825,4.257a30.769,30.769,0,0,1,1.813,2.848,14.723,14.723,0,0,1,.843,11.032" transform="translate(-98.263 -25.808)" fill="#e05024"/>
    <path id="Path_157950" data-name="Path 157950" d="M0,197.588a64.966,64.966,0,0,1,10.263-.733c6.6,0,11.154,1.361,14.4,4.084,3.4,2.775,5.5,6.965,5.5,12.987,0,6.284-2.147,11-5.5,14.034-3.509,3.194-9.111,4.817-15.972,4.817A70.338,70.338,0,0,1,0,232.307Zm6.441,29.9a24,24,0,0,0,3.561.157c8.379.052,13.353-4.556,13.353-13.51.053-7.8-4.45-12.254-12.516-12.254a20.611,20.611,0,0,0-4.4.367Z" transform="translate(0 -103.154)" fill="#e05024"/>
    <path id="Path_157951" data-name="Path 157951" d="M94.885,217.042h-13.3V227.41H96.456V232.7H75.143V197.4H95.671v5.289H81.584V211.8h13.3Z" transform="translate(-39.376 -103.442)" fill="#e05024"/>
    <path id="Path_157952" data-name="Path 157952" d="M131.8,232.7V197.4h7.331l9.112,15.134a97.1,97.1,0,0,1,6.022,11.835h.1c-.419-4.713-.576-9.268-.576-14.662V197.4h5.97V232.7h-6.65L143.9,217.2a122.876,122.876,0,0,1-6.336-12.2l-.158.052c.262,4.556.315,9.216.315,15.029V232.7Z" transform="translate(-69.066 -103.442)" fill="#e05024"/>
    <path id="Path_157953" data-name="Path 157953" d="M209.3,202.8H199.244V197.4H225.9V202.8H215.74v29.9H209.3Z" transform="translate(-104.406 -103.442)" fill="#e05024"/>
    <path id="Path_157954" data-name="Path 157954" d="M263.935,197.4h20.37v5.289h-13.93v9.74h12.987v5.289H270.376V232.7h-6.441Z" transform="translate(-138.305 -103.442)"/>
    <rect id="Rectangle_26479" data-name="Rectangle 26479" width="6.441" height="35.295" transform="translate(152.285 93.962)"/>
    <path id="Path_157955" data-name="Path 157955" d="M364.941,232.7l-3.822-7.017c-1.519-2.723-2.514-4.608-3.509-6.65h-.157c-.838,2.042-1.781,3.927-3.194,6.65L350.75,232.7h-7.384l10.473-17.857L343.785,197.4h7.384l3.823,7.279c1.152,2.2,1.99,3.927,2.933,5.917h.1c.942-2.2,1.675-3.77,2.776-5.917l3.77-7.279h7.384l-10.316,17.228L372.377,232.7Z" transform="translate(-179.928 -103.442)"/>
    <path id="Path_157956" data-name="Path 157956" d="M414.329,197.587a61.15,61.15,0,0,1,9.74-.733c5.079,0,8.536.838,10.892,2.828A8.932,8.932,0,0,1,438,206.751a9.414,9.414,0,0,1-6.389,8.85v.157c2.514.942,4.032,3.4,4.923,6.808,1.1,4.4,2.042,8.484,2.775,9.845h-6.651a49.863,49.863,0,0,1-2.356-8.326c-1-4.608-2.671-6.074-6.337-6.179h-3.246v14.506h-6.389Zm6.389,15.605h3.823c4.346,0,7.069-2.3,7.069-5.812,0-3.875-2.723-5.656-6.912-5.656a18.522,18.522,0,0,0-3.98.314Z" transform="translate(-217.113 -103.154)"/>
  </g>
</svg>
