<svg width="73" height="58" viewBox="0 0 73 58" fill="none" xmlns="http://www.w3.org/2000/svg">
<path d="M11.0366 54.0356C-2.9484 40.0828 -2.9484 17.3838 11.0366 3.43088L15.8733 8.25643C4.55664 19.547 4.55664 37.9195 15.8733 49.207L11.0366 54.0325V54.0356ZM61.7579 3.43088C75.7429 17.3838 75.7429 40.0828 61.7579 54.0356L56.9212 49.2101C68.2379 37.9195 68.2379 19.547 56.9212 8.25643L61.7579 3.43088Z" fill="#010101"/>
<path d="M10.5146 29.2539C24.4997 15.3011 47.2509 15.3011 61.236 29.2539L56.3993 34.0795C45.0827 22.7889 26.6679 22.7889 15.3544 34.0795L10.5178 29.2539H10.5146Z" fill="#977124"/>
<path d="M36.3102 13.1719L47.518 1.98973C45.0454 0.97007 42.4577 0.309926 39.8359 0L25.124 14.6781C28.7709 13.6213 32.5421 13.1223 36.3102 13.1719Z" fill="#977124"/>
<path d="M39.1774 57.8292V30.3914C36.9128 30.0319 34.5986 30.0381 32.334 30.41V51.0015L39.1774 57.8292Z" fill="#977124"/>
</svg>
